<svg width="86" height="74" viewBox="0 0 86 74" fill="none" xmlns="http://www.w3.org/2000/svg">
<path fill-rule="evenodd" clip-rule="evenodd" d="M41.7769 38.0617C41.7769 36.2554 41.7769 34.6151 41.7769 32.8903C46.0078 32.8903 50.2035 32.8903 54.5257 32.8903C54.5468 33.1776 54.592 33.4907 54.592 33.8049C54.597 37.1839 54.6131 40.563 54.5699 43.941C54.5639 44.3784 54.3521 44.9381 54.0369 45.2284C48.7992 50.048 42.6793 51.5342 35.948 49.2049C29.1786 46.8638 25.1143 41.9359 24.2842 34.8547C23.0917 24.6668 30.3329 16.2118 40.6557 15.3747C40.9518 15.3509 41.2519 15.3717 41.6303 15.3717C41.6303 19.723 41.6303 24.0376 41.6303 28.1214C39.952 28.6921 38.2637 29.0032 36.8504 29.7966C33.3091 31.7828 31.5896 34.9392 31.8897 38.9724C32.1929 43.0503 34.4012 45.9402 38.2356 47.3907C41.9535 48.7964 45.4175 48.0826 48.4128 45.4611C50.5277 43.61 50.8188 40.7598 49.1767 38.6801C47.5214 36.5835 44.7099 36.1878 42.353 37.7198C42.2165 37.8072 42.074 37.8858 41.7769 38.0617Z" fill="#8C9FB2"/>
<path fill-rule="evenodd" clip-rule="evenodd" d="M79.6692 73.7726C79.5086 73.8382 79.4795 73.8601 79.4464 73.863C76.3116 74.1831 76.3307 74.1802 75.873 71.1322C75.4102 68.0553 74.9044 64.9845 74.4125 61.9126C74.3673 61.6293 74.282 61.3529 74.0632 61.0905C74.0632 65.3155 74.0632 69.5406 74.0632 73.8382C72.667 73.8382 71.35 73.8382 69.9487 73.8382C69.9256 73.4783 69.8865 73.1582 69.8865 72.8391C69.8835 66.4448 69.9016 60.0516 69.8674 53.6574C69.8624 52.8074 70.1405 52.5738 70.9525 52.6155C72.0868 52.6752 73.2291 52.6702 74.3633 52.6175C75.071 52.5857 75.344 52.8153 75.4655 53.5261C76.1701 57.6379 76.9289 61.7406 77.6717 65.8464C77.739 66.2212 77.8293 66.592 78.0813 66.9707C78.3945 65.2539 78.7126 63.54 79.0228 61.8221C79.5157 59.0853 80.0165 56.3495 80.4853 53.6077C80.6007 52.9297 80.8145 52.5708 81.6206 52.6115C83.0509 52.6831 84.4873 52.6324 86 52.6324C86 59.7335 86 66.7391 86 73.9048C84.8065 73.9048 83.611 73.9426 82.4236 73.866C82.2379 73.8531 81.9468 73.3163 81.9428 73.019C81.9077 70.2364 81.9237 67.4539 81.9247 64.6713C81.9257 63.5181 81.9257 62.3639 81.6949 61.1899C81.0223 65.3841 80.3458 69.5773 79.6692 73.7726Z" fill="#8C9FB2"/>
<path fill-rule="evenodd" clip-rule="evenodd" d="M38.3429 55.3359C37.8481 55.3359 37.5229 55.3359 37.0923 55.3359C37.0923 61.4915 37.0923 67.6064 37.0923 73.8158C35.6769 73.8158 34.365 73.8158 32.9648 73.8158C32.9437 73.4817 32.9055 73.1636 32.9055 72.8445C32.9035 66.4502 32.9206 60.056 32.8865 53.6608C32.8824 52.8148 33.1525 52.5971 33.9665 52.611C36.4749 52.6547 38.9844 52.6239 41.4938 52.6289C41.7869 52.6289 42.08 52.6666 42.4353 52.6915C42.4353 59.7568 42.4353 66.7614 42.4353 73.8356C41.0772 73.8356 39.7613 73.8356 38.3439 73.8356C38.3429 67.6472 38.3429 61.5323 38.3429 55.3359Z" fill="#8C9FB2"/>
<path fill-rule="evenodd" clip-rule="evenodd" d="M67.1482 63.2657C67.1482 65.582 67.1602 67.8974 67.1452 70.2137C67.1271 73.0708 66.301 73.887 63.4503 73.9049C62.6152 73.9099 61.78 73.9158 60.9449 73.9099C58.6041 73.8939 57.5963 72.9257 57.5833 70.5755C57.5602 66.2411 57.5672 61.9067 57.5833 57.5723C57.5863 56.6518 57.5923 55.7153 57.7519 54.8126C57.9908 53.4527 58.85 52.721 60.2362 52.6593C61.6365 52.5977 63.0438 52.5947 64.443 52.6544C66.1404 52.7269 67.0518 53.735 67.1161 55.6238C67.1763 57.3755 67.1382 59.1291 67.1422 60.8828C67.1432 61.6781 67.1422 62.4714 67.1422 63.2647C67.1462 63.2657 67.1482 63.2657 67.1482 63.2657ZM61.7409 63.1444C61.7409 65.4627 61.7158 67.782 61.767 70.0994C61.776 70.4602 62.1053 71.0905 62.3422 71.1183C63.0388 71.1989 63.0398 70.5736 63.0398 70.0685C63.0448 65.4975 63.0448 60.9275 63.0428 56.3575C63.0428 55.8416 62.9996 55.2321 62.311 55.3415C62.0711 55.3793 61.775 56.0185 61.766 56.3883C61.7168 58.64 61.7419 60.8917 61.7409 63.1444Z" fill="#8C9FB2"/>
<path fill-rule="evenodd" clip-rule="evenodd" d="M18.7776 73.9017C17.4918 73.9017 16.3605 73.9316 15.2333 73.8729C15.0386 73.862 14.7274 73.4892 14.7023 73.2585C14.5708 72.0417 14.4965 70.819 14.4343 69.5952C14.366 68.2461 14.3801 68.2442 13.0029 68.2839C12.8403 68.2889 12.6777 68.3098 12.4137 68.3336C12.2732 70.1598 12.1347 71.9582 11.9901 73.8322C10.6601 73.8322 9.3763 73.8322 7.97504 73.8322C8.12761 72.1501 8.26111 70.5108 8.42774 68.8754C8.9497 63.7706 9.50177 58.6697 9.99262 53.5628C10.0629 52.8292 10.2887 52.5995 11.0175 52.6214C12.5884 52.6671 14.1623 52.6661 15.7332 52.6194C16.4187 52.5985 16.6657 52.8352 16.7299 53.4962C17.2127 58.4371 17.7236 63.3759 18.2225 68.3157C18.4042 70.1191 18.5809 71.9254 18.7776 73.9017ZM14.2014 65.8533C13.9595 62.2973 13.7276 58.8795 13.4948 55.4636C13.4014 55.4676 13.3081 55.4716 13.2157 55.4756C12.9899 58.9212 12.764 62.3679 12.5352 65.8533C13.1545 65.8533 13.6072 65.8533 14.2014 65.8533Z" fill="#8C9FB2"/>
<path fill-rule="evenodd" clip-rule="evenodd" d="M20.7188 66.4841C21.8802 66.4841 23.0426 66.4553 24.1999 66.515C24.3816 66.5239 24.6757 66.9275 24.6888 67.1621C24.747 68.1851 24.6677 69.218 24.757 70.238C24.7851 70.5601 25.1826 70.8504 25.4105 71.1556C25.6192 70.8603 25.9957 70.571 26.0067 70.2678C26.0669 68.6802 26.0388 67.0906 26.0318 65.5C26.0278 64.6639 25.6012 64.2116 24.747 64.1688C24.5472 64.1589 24.3475 64.134 24.1477 64.1291C22.7033 64.0903 22.3309 63.6141 22.6983 62.2104C22.7414 62.0434 22.9683 61.9002 23.1399 61.7978C23.2393 61.7382 23.4009 61.7809 23.5354 61.7769C26.0378 61.7014 26.0388 61.7004 26.0388 59.2429C26.0388 58.2826 26.095 57.3163 26.0057 56.3639C25.9706 55.9941 25.6072 55.6541 25.3924 55.3012C25.1666 55.6422 24.7801 55.9672 24.747 56.3251C24.6576 57.3063 24.7159 58.3015 24.7159 59.3692C23.3467 59.3692 22.0619 59.3692 20.5081 59.3692C20.6235 57.698 20.6305 56.0259 20.8875 54.3906C21.0682 53.2453 22.0669 52.7125 23.1851 52.6628C24.6526 52.5962 26.1292 52.5952 27.5957 52.6697C29.0301 52.7423 29.9555 53.5953 30.0559 55.0775C30.1784 56.8898 30.1774 58.718 30.088 60.5333C30.0248 61.8147 29.1324 62.5106 27.7653 62.8367C30.1312 63.1707 30.2135 64.813 30.1663 66.5607C30.1252 68.0489 30.1894 69.5421 30.1131 71.0293C30.0117 72.9977 29.0311 73.8755 27.0336 73.8994C25.83 73.9123 24.6255 73.9342 23.423 73.8984C21.9093 73.8536 20.9005 73.1488 20.759 71.7153C20.5914 70.0252 20.7188 68.3044 20.7188 66.4841Z" fill="#8C9FB2"/>
<path fill-rule="evenodd" clip-rule="evenodd" d="M48.0937 0C54.8942 9.12512 54.6995 22.9445 48.1398 31.503C42.3631 24.2528 40.6106 10.4105 48.0937 0ZM51.5777 20.2355C52.5042 13.9476 51.4302 8.03754 48.1699 2.48831C45.3012 5.84449 43.3197 16.1178 44.724 20.3777C44.8565 15.8981 45.9305 11.6721 48.0927 7.47884C50.2658 11.6393 51.3609 15.8067 51.5777 20.2355ZM48.0886 19.2096C46.2126 22.4713 46.2608 28.0185 48.1388 30.2295C49.9787 27.7223 49.9787 21.8828 48.0886 19.2096Z" fill="#8C9FB2"/>
<path fill-rule="evenodd" clip-rule="evenodd" d="M45.3543 52.7033C47.7874 52.7033 50.1854 52.6238 52.5744 52.7351C53.8452 52.7948 54.7114 53.7978 54.7486 55.2006C54.8279 58.177 54.8369 61.1594 54.7405 64.1348C54.6893 65.7085 53.6695 66.5664 52.0544 66.6678C51.1982 66.7225 50.336 66.6778 49.3613 66.6778C49.3613 67.9731 49.3613 69.1223 49.3613 70.2706C49.3613 71.4267 49.3613 72.5819 49.3613 73.8226C48.0042 73.8226 46.7224 73.8226 45.3533 73.8226C45.3543 66.7971 45.3543 59.7745 45.3543 52.7033ZM49.4175 55.3358C49.4175 58.3122 49.4175 61.2697 49.4175 64.2193C50.344 64.4619 50.6843 64.0165 50.6903 63.26C50.7104 60.9446 50.7114 58.6283 50.6933 56.313C50.6873 55.6151 50.3661 55.1727 49.4175 55.3358Z" fill="#8C9FB2"/>
<path fill-rule="evenodd" clip-rule="evenodd" d="M0 52.6855C2.61683 52.6855 5.14532 52.6855 7.75713 52.6855C7.75713 53.5236 7.75713 54.3298 7.75713 55.2752C6.56867 55.2752 5.38623 55.2752 4.09136 55.2752C4.09136 57.1909 4.09136 58.9724 4.09136 60.7529C4.09136 64.795 4.06828 68.8392 4.11144 72.8813C4.12047 73.7253 3.85548 73.9788 3.03138 73.9261C2.04066 73.8625 1.04292 73.9102 0 73.9102C0 66.7843 0 59.8045 0 52.6855Z" fill="#8C9FB2"/>
</svg>
