<svg width="134" height="78" viewBox="0 0 134 78" fill="none" xmlns="http://www.w3.org/2000/svg">
<path d="M0 77.9599C0.25368 77.9739 0.40308 77.9889 0.553483 77.9889C2.73433 77.9899 4.91617 77.9779 7.09701 77.9999C7.50411 78.003 7.69461 77.8587 7.86006 77.5001C8.90486 75.231 9.97472 72.9729 11.0376 70.7129C11.1118 70.5546 11.197 70.4013 11.3063 70.1909C12.8775 72.5892 14.3976 74.9084 15.9557 77.2867C17.4056 74.8813 18.8014 72.5652 20.2312 70.1919C20.3686 70.4133 20.4829 70.5826 20.5821 70.7579C21.7703 72.8707 22.9645 74.9795 24.1337 77.1023C24.3302 77.46 24.5377 77.6133 24.9629 77.6022C26.1952 77.5692 27.4285 77.5902 28.6608 77.5902C29.7166 77.5902 30.7714 77.5902 31.9275 77.5902C28.0652 69.7822 24.244 62.0553 20.3696 54.2223C18.8736 57.5693 17.4427 60.771 15.9537 64.1C14.3454 60.753 12.7983 57.5342 11.206 54.2233C7.45096 62.1796 3.74503 70.0276 0 77.9599ZM80.9198 51.7709C80.9689 51.7088 81.0181 51.6467 81.0662 51.5836C80.9038 51.4884 80.7162 51.4203 80.5839 51.296C77.9178 48.8056 74.8796 46.8941 71.4504 45.6659C66.445 43.8717 61.2802 43.1214 55.9619 43.6313C53.8222 43.8356 51.7366 44.2634 49.7172 45.0328C48.525 45.4876 47.9455 46.27 48.0638 47.5423C48.2232 49.2574 48.3365 50.9795 48.5761 52.6835C48.8358 54.5359 49.2179 56.3711 49.5457 58.2134C48.8118 56.5755 48.145 54.9075 47.6146 53.1974C47.029 51.3071 46.7563 49.3646 47.2015 47.2788C46.0945 47.6836 45.0878 48.0582 44.0751 48.4179C43.662 48.5641 43.5537 48.7625 43.685 49.2213C44.5744 52.3319 45.4267 55.4545 46.289 58.5721C46.4785 59.2583 46.66 59.9456 46.8485 60.6448C45.8889 61.0565 44.9905 61.4412 44.0921 61.8269C44.1042 61.865 44.1162 61.9041 44.1292 61.9431C46.7322 61.7999 49.3362 61.6586 51.9732 61.5144C51.7366 60.5837 51.4869 59.7342 51.3055 58.8686C50.9756 57.2928 50.6698 55.71 50.8743 54.083C51.0247 52.8829 51.6023 52.0243 52.8095 51.6847C53.373 51.5264 53.9405 51.3461 54.5181 51.273C57.11 50.9394 59.2929 51.5896 60.9092 53.8146C62.9035 56.5575 64.9781 59.2443 67.0386 61.9381C67.2141 62.1675 67.5349 62.398 67.8047 62.418C68.7642 62.4931 69.7318 62.4871 70.6964 62.4911C70.8849 62.4911 71.0724 62.395 71.3 62.3338C70.8398 61.4833 70.4066 60.7089 69.9965 59.9215C69.5864 59.1331 69.1613 58.3477 68.8083 57.5322C68.1927 56.1077 67.5971 54.6701 67.4477 53.1013C67.3174 51.7448 67.8257 51.3101 69.1402 51.6387C70.0808 51.8731 70.915 52.3048 71.5758 53.0231C74.1567 55.8272 76.7326 58.6362 79.3145 61.4382C79.4739 61.6115 79.6795 61.86 79.871 61.867C80.999 61.9081 82.13 61.888 83.3874 61.888C80.7764 58.3357 78.2366 54.8825 75.6316 51.3371C77.4756 51.4894 79.1982 51.6296 80.9198 51.7709ZM125.145 72.2276C126.069 73.8926 126.961 75.4754 127.823 77.0743C128.024 77.447 128.236 77.6143 128.691 77.6042C130.283 77.5692 131.877 77.5912 133.471 77.5882C133.627 77.5882 133.783 77.5672 134 77.5511C131.054 71.6536 128.139 65.8211 125.185 59.9095C124.066 62.446 122.993 64.8804 121.883 67.3959C120.641 64.8654 119.446 62.43 118.21 59.9095C115.386 65.8401 112.607 71.6736 109.79 77.5902C111.537 77.5902 113.182 77.5592 114.825 77.6072C115.439 77.6253 115.757 77.454 116.021 76.8789C116.737 75.3201 117.534 73.7994 118.336 72.1885C119.532 73.9627 120.684 75.6708 121.884 77.448C122.445 76.5514 122.973 75.7068 123.502 74.8603C124.032 74.0118 124.562 73.1613 125.145 72.2276ZM65.708 75.9122C69.6636 75.4303 71.1536 74.0659 71.2449 70.9032C71.282 69.5838 71.0233 68.3346 70.183 67.2717C69.06 65.8502 67.4648 65.5125 65.7461 65.4444C65.7201 65.0818 65.696 64.7532 65.6719 64.4226C64.1599 64.4226 62.705 64.4226 61.212 64.4226C61.1869 64.7722 61.1619 65.1008 61.1388 65.4174C57.3186 65.9413 55.7915 67.3378 55.6962 70.3943C55.6541 71.7477 55.8988 73.041 56.7591 74.143C57.868 75.5646 59.4603 75.8341 61.1799 75.8751C61.1799 76.4722 61.1799 77.0142 61.1799 77.5822C62.71 77.5822 64.1799 77.5822 65.708 77.5822C65.708 77.0132 65.708 76.4722 65.708 75.9122ZM76.4508 64.8534C74.9057 64.8534 73.4388 64.8534 71.9548 64.8534C71.9548 69.108 71.9548 73.3206 71.9548 77.5902C72.5714 77.5902 73.162 77.5281 73.7355 77.6032C75.006 77.7675 75.9936 77.4269 76.7296 76.3179C77.1016 75.7559 77.638 75.3041 78.1012 74.8032C78.4793 74.3935 78.8593 73.9858 79.3516 73.4538C79.3516 74.9305 79.3516 76.2408 79.3516 77.5471C80.7533 77.5471 82.0879 77.5471 83.4165 77.5471C83.4165 73.2895 83.4165 69.0749 83.4165 64.8163C82.2253 64.8163 81.0712 64.8023 79.9191 64.8313C79.7547 64.8363 79.5602 65.0157 79.4398 65.1629C78.5946 66.2088 77.7663 67.2687 76.9311 68.3216C76.8118 68.4729 76.6814 68.6171 76.4508 68.8886C76.4508 67.444 76.4508 66.1807 76.4508 64.8534ZM43.302 71.371C43.291 71.1787 43.283 70.9132 43.2609 70.6488C42.919 66.4763 38.6947 63.9097 34.8704 65.5516C32.2113 66.6927 30.7514 69.652 31.3099 72.7676C31.9576 76.374 35.46 78.574 38.9824 77.5872C41.5543 76.8679 43.3 74.3835 43.302 71.371ZM98.7736 64.8474C98.7736 69.108 98.7736 73.3346 98.7736 77.5812C101.267 77.5812 103.714 77.6393 106.154 77.5592C107.573 77.5121 108.851 76.9361 109.574 75.6347C110.51 73.9487 110.4 72.1845 109.519 70.5215C108.706 68.9878 107.275 68.4759 105.601 68.5079C104.565 68.5269 103.529 68.5109 102.426 68.5109C102.426 67.2447 102.426 66.0455 102.426 64.8474C101.171 64.8474 99.9829 64.8474 98.7736 64.8474ZM55.7283 68.7403C54.856 66.1387 51.7356 64.5458 48.896 65.2631C46.3381 65.9092 44.804 67.6173 44.3268 70.1539C43.8154 72.8677 44.6035 75.2089 46.9267 76.8359C49.6691 78.7563 53.5064 77.9539 55.259 75.1598C55.3543 75.0096 55.4115 74.673 55.3262 74.5948C54.3045 73.6441 53.2537 72.7265 52.1547 71.7497C52.1066 72.0994 52.1096 72.3708 52.0244 72.6103C51.9341 72.8637 51.8098 73.1502 51.6103 73.3105C50.8954 73.8856 49.7824 73.8826 49.0013 73.3576C48.1781 72.8046 47.7991 71.7788 48.0618 70.8111C48.3034 69.9225 49.1116 69.2502 50.027 69.1601C50.9876 69.0639 51.7065 69.4867 52.2931 70.233C53.4532 69.7301 54.5933 69.2342 55.7283 68.7403ZM98.1169 77.5892C95.8197 72.9308 93.5637 68.3587 91.2645 63.6963C88.9623 68.3637 86.7083 72.9339 84.4111 77.5902C85.8681 77.5902 87.2267 77.5642 88.5813 77.6042C89.0726 77.6193 89.3183 77.475 89.5218 77.0272C90.0563 75.8451 90.6489 74.691 91.2555 73.4498C91.3848 73.6872 91.4771 73.8475 91.5603 74.0128C92.1007 75.0767 92.6312 76.1436 93.1847 77.1995C93.2679 77.3578 93.4554 77.5712 93.5958 77.5732C95.0677 77.6002 96.5406 77.5892 98.1169 77.5892ZM53.8733 38.8327C54.1581 38.7796 54.4439 38.6363 54.6755 38.6974C56.373 39.1512 58.0746 39.6041 59.7491 40.138C63.4811 41.3292 67.18 42.6315 71.0564 43.3037C72.0099 43.468 72.9685 43.5972 73.9251 43.7425C73.9381 43.6994 73.9511 43.6563 73.9642 43.6133C73.5741 43.3107 73.1861 43.0092 72.6727 42.6115C74.7673 42.6425 76.6694 42.5253 78.3319 41.3923C76.2713 41.7008 74.2118 41.5606 72.1493 41.5015C71.1105 41.4714 70.2131 41.1298 69.3117 40.6409C66.439 39.0851 63.452 37.7968 60.2223 37.1747C58.7093 36.8832 57.1812 36.7229 55.6852 37.322C54.8861 37.6445 54.3195 38.2126 53.8733 38.8327ZM78.7049 31.7059C78.6678 31.6568 78.6307 31.6077 78.5926 31.5586C78.3038 31.6338 78.018 31.763 77.7252 31.777C76.2152 31.8491 74.7031 31.9463 73.1931 31.9343C70.1419 31.9093 67.0917 31.778 64.0416 31.78C63.0549 31.78 62.0623 32.0335 61.0826 32.2248C60.5332 32.332 60.1642 32.7117 60.1722 33.3038C60.1802 33.8888 60.5913 34.1833 61.1127 34.2845C62.0041 34.4558 62.8985 34.6331 63.7999 34.7183C66.2846 34.9547 68.7602 34.7293 71.2288 34.4578C73.2914 34.2304 75.3078 33.7996 77.1457 32.7848C77.6962 32.4803 78.1865 32.0675 78.7049 31.7059ZM82.3867 29.3316C82.13 29.4558 81.9776 29.5791 81.8122 29.6011C80.8546 29.7263 79.8971 29.8716 78.9335 29.9327C72.5584 30.3374 66.2034 30.077 59.8684 29.2755C59.8183 29.2695 59.7641 29.2855 59.6889 29.2946C59.734 29.3887 59.7711 29.4649 59.8133 29.553C59.5425 29.6742 59.2768 29.7925 59.0251 29.9047C58.9399 29.4779 58.8617 29.0912 58.7845 28.7055C58.7344 28.6925 58.6852 28.6795 58.6351 28.6664C58.0606 29.8215 57.1772 30.4466 55.8165 30.3364C56.1544 30.6079 56.4693 30.8153 56.8152 30.9105C57.1642 31.0066 57.5442 30.9896 57.9162 31.0237C56.9295 33.4851 57.7989 35.7662 59.8102 36.0877C59.7571 34.9197 59.6077 33.7425 59.6849 32.5805C59.7401 31.757 60.092 30.9525 60.3316 30.1441C60.4129 29.8726 60.5943 29.7874 60.9052 29.8856C63.6315 30.7482 66.427 31.202 69.2876 31.2511C73.6714 31.3252 78.0732 31.5877 82.3035 30.0169C83.1989 31.9002 85.5171 32.7357 87.3039 31.8311C86.6441 31.746 85.9392 31.7279 85.2775 31.5466C84.6327 31.3693 83.9579 31.1248 83.4385 30.7251C82.9673 30.3585 82.6855 29.7444 82.3867 29.3316ZM50.1433 25.9105C48.7907 27.1086 47.8041 28.5432 47.8271 30.3935C47.8743 34.1523 50.0351 36.6417 53.0521 38.7004C52.7363 36.5987 52.3753 34.6201 51.496 32.7748C51.0568 31.8532 50.6256 30.9285 50.1724 30.0139C49.6992 29.0601 49.5457 28.0804 49.8425 27.0445C49.9498 26.6689 50.0431 26.2892 50.1433 25.9105ZM44.5223 23.1706C44.5915 23.1756 44.6607 23.1816 44.7298 23.1876C44.772 23.0133 44.8151 22.84 44.8542 22.6657C45.0397 21.8372 45.1831 20.9967 45.4247 20.1852C45.531 19.8256 45.8338 19.524 46.0985 19.1183C46.5307 19.9708 46.8455 20.6811 47.2446 21.3413C47.4722 21.717 47.5233 22.0656 47.4291 22.4663C47.1062 23.8298 46.64 25.061 44.8953 25.108C45.3094 25.4817 45.8178 25.5859 46.3893 25.4426C47.6797 25.1201 48.1109 24.1183 48.3154 22.848C48.6233 23.1756 48.8409 23.4371 49.0895 23.6655C49.3332 23.8879 49.6089 24.0762 49.8706 24.2796C47.1764 19.8416 46.5046 14.9258 45.9601 9.94084C45.6954 10.6501 45.4458 11.3624 45.3194 12.0967C44.9785 14.0733 45.2202 16.0147 45.7596 17.9332C45.8158 18.1315 45.8097 18.4471 45.6894 18.5773C44.9755 19.3547 44.6476 20.2914 44.5343 21.3012C44.4651 21.9153 44.5223 22.5465 44.5223 23.1706ZM63.0008 20.4687C62.9487 19.7114 62.6819 19.1954 62.1475 18.945C61.5248 18.6515 60.841 18.3209 60.1792 18.3109C58.8607 18.2908 57.5833 18.1476 56.3279 17.7629C56.2557 17.7408 56.1805 17.7268 56.1063 17.7098C54.3185 17.278 52.8225 18.4391 52.3563 19.9268C52.247 20.2774 52.1648 20.636 52.0675 21.0017C51.4137 20.3525 50.775 19.7174 50.0852 19.0311C50.5153 20.1502 50.9996 21.1179 51.2433 22.1417C51.4218 22.8911 51.6765 23.4711 52.3282 23.8788C52.6471 24.0782 52.9378 24.3226 53.2416 24.547C53.2958 24.518 53.3489 24.4879 53.4031 24.4589C52.7423 22.321 53.2958 20.3074 53.9977 18.2688C54.7888 18.1225 55.5879 18.2538 56.3319 18.7076C57.3497 19.3297 58.3513 19.9788 59.3871 20.5659C60.4109 21.1469 61.5409 21.3152 62.8464 21.2892C61.7384 20.0189 60.3186 19.4148 59.0402 18.6084C60.5191 18.7627 61.8076 19.3257 63.0008 20.4687ZM46.1847 7.69881C46.7543 7.87914 47.2135 8.04644 47.6858 8.16866C48.9772 8.50326 50.2657 8.60544 51.519 8.01338C52.8275 7.39527 53.2055 5.88256 52.3272 4.72949C52.0645 4.38587 51.7597 4.0653 51.4318 3.78279C49.8225 2.3933 47.8883 1.62391 45.908 0.956716C44.9113 0.621114 43.9026 0.31757 42.8999 0C42.8809 0.0490881 42.8628 0.0981761 42.8448 0.146262C43.0082 0.227408 43.1727 0.304546 43.3331 0.389699C44.9735 1.25325 46.6289 2.08975 48.2453 2.99437C49.1818 3.51731 49.9478 4.26265 50.4582 5.22638C50.9204 6.09894 50.6517 6.95548 49.7423 7.34117C49.3011 7.52851 48.7937 7.6347 48.3144 7.64071C47.5113 7.64972 46.7071 7.54955 45.8498 7.49144C46.0564 8.05044 46.2629 8.60745 46.4695 9.16545C46.5347 9.1414 46.6009 9.11836 46.667 9.09432C46.5176 8.66354 46.3692 8.23277 46.1847 7.69881ZM64.4757 23.8017C63.3497 22.7158 62.0693 22.4653 60.6966 23.0554C59.5896 23.5312 58.4887 23.5392 57.4008 23.0263C57.1722 22.9181 56.9927 22.7047 56.7711 22.5234C56.6418 23.2718 56.5786 24.0782 56.35 24.8366C56.1143 25.622 55.7193 26.3593 55.3934 27.1177C55.4395 27.1597 55.4867 27.2028 55.5328 27.2459C55.7754 27.0686 56.0091 26.8802 56.2617 26.7189C56.4873 26.5747 56.725 26.3683 56.9706 26.3483C58.5659 26.22 60.1501 26.2621 61.6752 26.8412C62.0362 26.9784 62.4042 27.0996 62.7682 27.2289C61.95 26.4605 60.9663 26.0507 59.9165 25.7682C58.8216 25.4737 57.7598 25.5488 56.742 26.0848C56.8884 25.2413 57.0248 24.4599 57.1722 23.6184C58.1658 24.6562 59.3731 25.087 60.7678 25.066C62.1415 25.0449 63.3277 24.519 64.4757 23.8017ZM48.4177 25.099C46.9749 26.222 45.9321 27.5835 45.6613 29.4268C45.152 32.901 46.3452 35.8653 48.4448 38.5482C48.4839 38.5983 48.5591 38.6213 48.7015 38.7095C48.6634 38.5371 48.6513 38.454 48.6263 38.3749C48.2984 37.349 47.9254 36.3352 47.6467 35.2963C46.9779 32.7998 46.6239 30.2753 47.3809 27.7348C47.6467 26.8442 48.0598 25.9966 48.4177 25.099ZM64.8548 28.8047C67.0557 28.6654 69.0931 28.5082 71.1326 28.416C73.2553 28.3198 75.384 28.2968 77.4826 28.7105C78.2847 28.8688 79.0688 29.1213 79.8569 29.3296C79.133 28.5522 77.3933 27.6847 75.9204 27.4543C72.5223 26.9223 69.1954 27.2369 65.9537 28.3939C65.6258 28.5122 65.301 28.6384 64.8548 28.8047ZM85.5011 30.9435C86.3534 29.561 85.8239 28.2567 84.3179 27.7999C83.1538 27.4462 80.1397 27.3611 78.6868 27.6797C81.3309 28.1615 83.5829 29.1623 85.5011 30.9435ZM46.1316 44.5269C47.9194 43.7555 49.8064 43.5211 51.7256 43.3708C51.0929 42.0765 50.013 41.6768 48.8007 42.2769C47.7339 42.8068 46.9017 43.6263 46.1316 44.5269ZM52.6079 40.7401C52.0665 39.573 51.119 39.1362 50.024 39.5399C48.7847 39.9978 47.8873 40.9054 47.0531 41.9012C48.7967 41.0577 50.6377 40.7281 52.6079 40.7401ZM43.4975 3.13663C43.4634 3.343 43.4033 3.49527 43.4213 3.63753C43.4975 4.24562 43.1677 4.5111 42.6402 4.67138C42.3364 4.76355 42.0557 4.93185 41.7649 5.06709C41.788 5.12119 41.811 5.17429 41.8351 5.22838C42.1549 5.10316 42.4928 5.01099 42.7916 4.8457C43.2298 4.60326 43.5216 4.67439 43.8425 5.0711C44.3017 5.64012 44.8341 6.15003 45.3385 6.687C45.4849 5.09815 44.5965 4.10036 43.4975 3.13663ZM48.529 18.5683C48.5771 18.6104 48.6253 18.6535 48.6734 18.6965C48.7667 18.5964 48.904 18.5112 48.9441 18.393C49.0033 18.2187 48.9963 18.0203 49.0133 17.831C49.2369 15.3475 48.7807 13.0073 47.5233 10.8404C47.4391 10.6942 47.2877 10.587 47.1674 10.4608C47.1082 10.5028 47.048 10.5439 46.9889 10.586C48.513 13.0584 48.903 15.7422 48.529 18.5683ZM51.1581 29.0832C51.7005 29.9638 52.6039 30.2373 53.366 29.8355C54.0267 29.4869 54.3757 28.3589 54.0147 27.5434C53.4953 28.8267 52.4726 29.1683 51.1581 29.0832Z" fill="white"/>
<path fill-rule="evenodd" clip-rule="evenodd" d="M0 77.9602C3.74503 70.028 7.45096 62.1789 11.206 54.2237C12.7973 57.5356 14.3444 60.7544 15.9537 64.1004C17.4417 60.7714 18.8736 57.5687 20.3696 54.2227C24.244 62.0557 28.0662 69.7826 31.9275 77.5906C30.7714 77.5906 29.7156 77.5906 28.6608 77.5906C27.4285 77.5906 26.1942 77.5695 24.9629 77.6026C24.5377 77.6136 24.3302 77.4603 24.1337 77.1027C22.9645 74.9799 21.7703 72.8711 20.5821 70.7583C20.4829 70.582 20.3686 70.4127 20.2312 70.1923C18.8014 72.5656 17.4056 74.8817 15.9557 77.287C14.3966 74.9088 12.8775 72.5896 11.3063 70.1913C11.198 70.4027 11.1128 70.555 11.0376 70.7132C9.97472 72.9743 8.90586 75.2324 7.86006 77.5004C7.69461 77.8591 7.50511 78.0033 7.09701 78.0003C4.91617 77.9793 2.73433 77.9903 0.553483 77.9893C0.40308 77.9903 0.25368 77.9743 0 77.9602Z" fill="#8C9FB2"/>
<path fill-rule="evenodd" clip-rule="evenodd" d="M80.9198 51.7708C79.1982 51.6295 77.4755 51.4893 75.6296 51.337C78.2356 54.8824 80.7744 58.3356 83.3854 61.8879C82.128 61.8879 80.997 61.909 79.8689 61.8669C79.6784 61.8599 79.4719 61.6114 79.3125 61.4381C76.7305 58.6351 74.1546 55.8261 71.5737 53.023C70.913 52.3047 70.0787 51.874 69.1382 51.6386C67.8237 51.31 67.3163 51.7447 67.4457 53.1012C67.5951 54.669 68.1907 56.1076 68.8063 57.5321C69.1593 58.3466 69.5834 59.133 69.9945 59.9214C70.4046 60.7088 70.8378 61.4842 71.298 62.3337C71.0704 62.3959 70.8829 62.491 70.6944 62.491C69.7298 62.487 68.7622 62.493 67.8026 62.4179C67.5329 62.3969 67.212 62.1664 67.0366 61.938C64.976 59.2442 62.9015 56.5574 60.9071 53.8145C59.2908 51.5895 57.108 50.9393 54.516 51.2729C53.9385 51.346 53.371 51.5264 52.8074 51.6846C51.5992 52.0242 51.0227 52.8818 50.8723 54.0829C50.6677 55.7099 50.9735 57.2927 51.3034 58.8685C51.4849 59.7331 51.7346 60.5836 51.9712 61.5143C49.3341 61.6585 46.7302 61.7998 44.1272 61.943C44.1142 61.904 44.1021 61.8649 44.0901 61.8268C44.9885 61.4411 45.8869 61.0565 46.8465 60.6447C46.658 59.9455 46.4765 59.2572 46.287 58.572C45.4247 55.4544 44.5724 52.3318 43.683 49.2212C43.5517 48.7624 43.6609 48.564 44.073 48.4178C45.0858 48.0591 46.0925 47.6845 47.1994 47.2787C46.7532 49.3645 47.026 51.307 47.6125 53.1974C48.143 54.9074 48.8097 56.5754 49.5437 58.2133C49.2148 56.371 48.8338 54.5358 48.5741 52.6834C48.3345 50.9794 48.2212 49.2573 48.0617 47.5422C47.9434 46.2699 48.523 45.4875 49.7152 45.0327C51.7336 44.2623 53.8202 43.8356 55.9599 43.6312C61.2781 43.1213 66.443 43.8716 71.4484 45.6658C74.8776 46.895 77.9157 48.8055 80.5819 51.2959C80.7152 51.4202 80.9017 51.4883 81.0642 51.5835C81.017 51.6466 80.9679 51.7077 80.9198 51.7708ZM69.0319 48.8225C69.074 48.7874 69.1151 48.7524 69.1573 48.7163C69.0028 48.3667 68.8935 47.988 68.686 47.6744C68.1405 46.85 67.3314 46.3601 66.3969 46.0986C64.9751 45.7009 63.5232 45.6488 62.0622 45.8341C61.0726 45.9604 60.117 46.1988 59.2437 46.7899C62.6879 46.6246 65.9206 47.432 69.0319 48.8225Z" fill="#8C9FB2"/>
<path fill-rule="evenodd" clip-rule="evenodd" d="M125.145 72.2273C124.562 73.1619 124.032 74.0115 123.501 74.861C122.972 75.7075 122.443 76.552 121.883 77.4486C120.683 75.6714 119.531 73.9634 118.335 72.1892C117.533 73.7991 116.736 75.3208 116.02 76.8796C115.755 77.4536 115.438 77.6249 114.824 77.6079C113.181 77.5598 111.537 77.5909 109.789 77.5909C112.607 71.6743 115.385 65.8408 118.209 59.9102C119.445 62.4307 120.64 64.865 121.882 67.3966C122.991 64.8811 124.065 62.4477 125.184 59.9102C128.138 65.8218 131.053 71.6552 133.999 77.5518C133.782 77.5678 133.626 77.5889 133.47 77.5889C131.876 77.5919 130.282 77.5688 128.69 77.6049C128.235 77.6149 128.023 77.4476 127.822 77.075C126.961 75.4751 126.069 73.8922 125.145 72.2273Z" fill="#8C9FB2"/>
<path fill-rule="evenodd" clip-rule="evenodd" d="M65.708 75.9115C65.708 76.4725 65.708 77.0134 65.708 77.5825C64.1799 77.5825 62.711 77.5825 61.1799 77.5825C61.1799 77.0144 61.1799 76.4725 61.1799 75.8754C59.4603 75.8343 57.868 75.5638 56.7591 74.1433C55.8998 73.0403 55.6541 71.747 55.6962 70.3946C55.7915 67.3381 57.3186 65.9426 61.1388 65.4176C61.1619 65.1011 61.1869 64.7715 61.212 64.4229C62.705 64.4229 64.1599 64.4229 65.6719 64.4229C65.696 64.7524 65.7201 65.081 65.7461 65.4447C67.4647 65.5128 69.06 65.8504 70.183 67.272C71.0233 68.3349 71.282 69.5841 71.2449 70.9035C71.1536 74.0652 69.6636 75.4286 65.708 75.9115ZM65.712 72.5605C66.807 72.7047 67.6512 72.0666 67.7565 71.0878C67.8648 70.067 67.1639 69.1664 66.1763 69.1093C66.0279 69.1012 65.7371 69.3026 65.7331 69.4148C65.698 70.4517 65.712 71.4895 65.712 72.5605ZM61.1729 69.1814C60.0409 69.1293 59.2618 69.7624 59.1815 70.7111C59.0983 71.6959 59.737 72.5414 60.6856 72.6436C60.837 72.6596 61.1488 72.4763 61.1518 72.3771C61.1859 71.3222 61.1729 70.2673 61.1729 69.1814Z" fill="#8C9FB2"/>
<path fill-rule="evenodd" clip-rule="evenodd" d="M76.4509 64.8536C76.4509 66.1799 76.4509 67.4442 76.4509 68.8888C76.6815 68.6173 76.8118 68.4731 76.9312 68.3218C77.7664 67.2679 78.5946 66.209 79.4399 65.1631C79.5592 65.0159 79.7537 64.8365 79.9192 64.8315C81.0713 64.8035 82.2254 64.8165 83.4165 64.8165C83.4165 69.0751 83.4165 73.2897 83.4165 77.5473C82.088 77.5473 80.7544 77.5473 79.3517 77.5473C79.3517 76.241 79.3517 74.9306 79.3517 73.454C78.8593 73.9849 78.4793 74.3937 78.1013 74.8034C77.6381 75.3043 77.1016 75.7561 76.7296 76.3181C75.9937 77.4271 75.005 77.7677 73.7356 77.6034C73.1621 77.5293 72.5715 77.5904 71.9548 77.5904C71.9548 73.3208 71.9548 69.1082 71.9548 64.8536C73.4398 64.8536 74.9057 64.8536 76.4509 64.8536Z" fill="#8C9FB2"/>
<path fill-rule="evenodd" clip-rule="evenodd" d="M43.302 71.372C43.3 74.3844 41.5543 76.8678 38.9834 77.5881C35.461 78.5749 31.9576 76.375 31.3109 72.7685C30.7514 69.6529 32.2113 66.6936 34.8714 65.5525C38.6956 63.9106 42.92 66.4772 43.2619 70.6497C43.2829 70.9142 43.291 71.1796 43.302 71.372ZM35.3557 71.394C35.3507 72.4549 36.1889 73.3115 37.2518 73.3335C38.3307 73.3545 39.22 72.487 39.2251 71.4091C39.2301 70.3552 38.3828 69.4906 37.324 69.4696C36.2401 69.4475 35.3607 70.3081 35.3557 71.394Z" fill="#8C9FB2"/>
<path fill-rule="evenodd" clip-rule="evenodd" d="M98.7736 64.8477C99.9829 64.8477 101.171 64.8477 102.427 64.8477C102.427 66.0458 102.427 67.246 102.427 68.5112C103.53 68.5112 104.566 68.5273 105.602 68.5082C107.276 68.4762 108.708 68.9881 109.52 70.5218C110.401 72.1838 110.51 73.949 109.575 75.635C108.852 76.9364 107.574 77.5124 106.155 77.5595C103.714 77.6396 101.268 77.5815 98.7746 77.5815C98.7736 73.3339 98.7736 69.1083 98.7736 64.8477ZM102.915 71.8212C102.915 72.6657 102.915 73.4601 102.915 74.2866C103.657 74.2866 104.356 74.3176 105.047 74.2766C105.728 74.2365 106.197 73.6885 106.195 73.0303C106.192 72.4323 105.743 71.8753 105.127 71.8332C104.399 71.7821 103.664 71.8212 102.915 71.8212Z" fill="#8C9FB2"/>
<path fill-rule="evenodd" clip-rule="evenodd" d="M55.7283 68.7409C54.5932 69.2338 53.4532 69.7297 52.2931 70.2336C51.7065 69.4872 50.9876 69.0645 50.027 69.1606C49.1115 69.2518 48.3024 69.924 48.0617 70.8116C47.799 71.7793 48.178 72.8052 49.0013 73.3582C49.7823 73.8831 50.8953 73.8861 51.6102 73.3111C51.8098 73.1508 51.9341 72.8643 52.0243 72.6108C52.1096 72.3714 52.1066 72.0989 52.1547 71.7503C53.2536 72.727 54.3045 73.6447 55.3262 74.5954C55.4104 74.6735 55.3533 75.0101 55.259 75.1604C53.5053 77.9544 49.669 78.7569 46.9267 76.8364C44.6035 75.2095 43.8154 72.8683 44.3267 70.1544C44.805 67.6179 46.3381 65.9098 48.896 65.2636C51.7366 64.5474 54.8559 66.1402 55.7283 68.7409Z" fill="#8C9FB2"/>
<path fill-rule="evenodd" clip-rule="evenodd" d="M98.1169 77.5893C96.5406 77.5893 95.0677 77.6003 93.5957 77.5712C93.4544 77.5692 93.2679 77.3559 93.1846 77.1976C92.6312 76.1417 92.1007 75.0748 91.5603 74.0108C91.4771 73.8466 91.3848 73.6863 91.2555 73.4478C90.6488 74.6891 90.0563 75.8441 89.5218 77.0253C89.3193 77.4731 89.0736 77.6173 88.5813 77.6023C87.2257 77.5622 85.868 77.5883 84.4111 77.5883C86.7083 72.9319 88.9623 68.3617 91.2645 63.6943C93.5637 68.3587 95.8197 72.9309 98.1169 77.5893Z" fill="#8C9FB2"/>
<path fill-rule="evenodd" clip-rule="evenodd" d="M53.8734 38.8327C54.3195 38.2126 54.8861 37.6436 55.6842 37.324C57.1802 36.7239 58.7083 36.8852 60.2214 37.1768C63.451 37.7989 66.439 39.0872 69.3107 40.643C70.2121 41.1319 71.1095 41.4735 72.1483 41.5035C74.2108 41.5626 76.2704 41.7029 78.3309 41.3943C76.6694 42.5274 74.7663 42.6446 72.6717 42.6135C73.1851 43.0112 73.5731 43.3128 73.9632 43.6153C73.9501 43.6584 73.9371 43.7015 73.9241 43.7445C72.9675 43.5983 72.0089 43.47 71.0554 43.3057C67.179 42.6335 63.4791 41.3312 59.7481 40.1401C58.0736 39.6061 56.373 39.1533 54.6745 38.6995C54.4439 38.6364 54.1581 38.7796 53.8734 38.8327Z" fill="#8C9FB2"/>
<path fill-rule="evenodd" clip-rule="evenodd" d="M78.7048 31.7059C78.1864 32.0685 77.6961 32.4803 77.1457 32.7838C75.3077 33.7986 73.2903 34.2294 71.2288 34.4568C68.7602 34.7283 66.2846 34.9537 63.7999 34.7173C62.8985 34.6321 62.0031 34.4548 61.1127 34.2835C60.5913 34.1833 60.1802 33.8878 60.1722 33.3027C60.1642 32.7117 60.5332 32.332 61.0826 32.2238C62.0622 32.0325 63.0549 31.779 64.0415 31.779C67.0917 31.777 70.1419 31.9082 73.1931 31.9333C74.7031 31.9463 76.2152 31.8491 77.7252 31.776C78.018 31.762 78.3038 31.6328 78.5925 31.5576C78.6296 31.6067 78.6667 31.6568 78.7048 31.7059Z" fill="#8C9FB2"/>
<path fill-rule="evenodd" clip-rule="evenodd" d="M82.3867 29.3322C82.6855 29.745 82.9662 30.3581 83.4395 30.7237C83.9589 31.1235 84.6337 31.3689 85.2784 31.5452C85.9392 31.7265 86.6441 31.7446 87.3049 31.8297C85.5181 32.7343 83.1989 31.8988 82.3045 30.0155C78.0731 31.5873 73.6723 31.3238 69.2886 31.2497C66.4279 31.2016 63.6324 30.7468 60.9061 29.8842C60.5953 29.7861 60.4138 29.8712 60.3326 30.1427C60.093 30.9501 59.741 31.7556 59.6859 32.5791C59.6087 33.7421 59.7581 34.9193 59.8112 36.0864C57.7998 35.7648 56.9305 33.4837 57.9171 31.0223C57.5441 30.9882 57.1651 31.0052 56.8162 30.9091C56.4703 30.8139 56.1554 30.6065 55.8175 30.335C57.1782 30.4452 58.0605 29.8201 58.6361 28.665C58.6862 28.6781 58.7353 28.6901 58.7855 28.7041C58.8627 29.0908 58.9399 29.4765 59.0261 29.9033C59.2778 29.7911 59.5445 29.6728 59.8142 29.5516C59.7721 29.4635 59.735 29.3863 59.6899 29.2932C59.7651 29.2852 59.8192 29.2681 59.8694 29.2741C66.2043 30.0756 72.5594 30.336 78.9344 29.9313C79.898 29.8702 80.8556 29.7249 81.8132 29.5997C81.9776 29.5797 82.131 29.4565 82.3867 29.3322Z" fill="#8C9FB2"/>
<path fill-rule="evenodd" clip-rule="evenodd" d="M50.1433 25.9111C50.0431 26.2888 49.9508 26.6695 49.8425 27.0452C49.5447 28.081 49.6981 29.0608 50.1724 30.0145C50.6256 30.9291 51.0578 31.8538 51.4959 32.7754C52.3753 34.6208 52.7363 36.5993 53.0521 38.7011C50.035 36.6424 47.8742 34.1529 47.8271 30.3942C47.8041 28.5449 48.7907 27.1103 50.1433 25.9111Z" fill="#8C9FB2"/>
<path fill-rule="evenodd" clip-rule="evenodd" d="M44.5222 23.1702C44.5222 22.5461 44.4651 21.916 44.5353 21.2989C44.6486 20.289 44.9755 19.3524 45.6904 18.575C45.8107 18.4447 45.8157 18.1292 45.7606 17.9308C45.2211 16.0124 44.9785 14.0709 45.3204 12.0943C45.4467 11.36 45.6964 10.6477 45.9611 9.93848C46.5056 14.9234 47.1774 19.8392 49.8716 24.2772C49.6099 24.0738 49.3341 23.8855 49.0905 23.6631C48.8408 23.4347 48.6232 23.1732 48.3164 22.8456C48.1119 24.1159 47.6807 25.1187 46.3902 25.4403C45.8187 25.5835 45.3104 25.4794 44.8962 25.1057C46.6409 25.0596 47.1072 23.8284 47.43 22.4639C47.5253 22.0632 47.4732 21.7146 47.2455 21.3389C46.8475 20.6787 46.5326 19.9685 46.0995 19.1159C45.8348 19.5217 45.533 19.8242 45.4257 20.1829C45.184 20.9943 45.0406 21.8338 44.8551 22.6633C44.816 22.8376 44.7719 23.0109 44.7308 23.1852C44.6606 23.1812 44.5914 23.1752 44.5222 23.1702Z" fill="#8C9FB2"/>
<path fill-rule="evenodd" clip-rule="evenodd" d="M63.0008 20.4683C61.8076 19.3243 60.5192 18.7612 59.0412 18.609C60.3197 19.4164 61.7395 20.0205 62.8474 21.2898C61.5429 21.3148 60.4129 21.1475 59.3882 20.5665C58.3514 19.9794 57.3497 19.3303 56.333 18.7081C55.589 18.2533 54.7898 18.1231 53.9987 18.2694C53.2958 20.308 52.7434 22.3216 53.4041 24.4595C53.35 24.4885 53.2968 24.5186 53.2427 24.5476C52.9389 24.3232 52.6481 24.0788 52.3293 23.8794C51.6775 23.4717 51.4228 22.8917 51.2443 22.1423C51.0007 21.1185 50.5154 20.1507 50.0862 19.0317C50.7761 19.718 51.4148 20.3521 52.0686 21.0023C52.1658 20.6366 52.247 20.278 52.3573 19.9273C52.8226 18.4397 54.3196 17.2786 56.1074 17.7104C56.1816 17.7284 56.2558 17.7414 56.329 17.7635C57.5843 18.1481 58.8618 18.2914 60.1803 18.3114C60.8421 18.3215 61.5259 18.651 62.1486 18.9456C62.682 19.196 62.9487 19.7109 63.0008 20.4683Z" fill="#8C9FB2"/>
<path fill-rule="evenodd" clip-rule="evenodd" d="M46.1848 7.69879C46.3693 8.23275 46.5177 8.66352 46.666 9.09529C46.6009 9.11833 46.5347 9.14238 46.4685 9.16642C46.262 8.60842 46.0554 8.05142 45.8489 7.49242C46.7062 7.55052 47.5103 7.6517 48.3135 7.64169C48.7927 7.63567 49.3001 7.52848 49.7413 7.34215C50.6507 6.95646 50.9194 6.09892 50.4572 5.22735C49.9468 4.26363 49.1808 3.51829 48.2443 2.99535C46.6269 2.09073 44.9715 1.25523 43.3321 0.390676C43.1717 0.306525 43.0072 0.228384 42.8438 0.147239C42.8629 0.0991526 42.8809 0.0500646 42.899 0.000976562C43.9016 0.318546 44.9103 0.621089 45.907 0.957693C47.8883 1.62489 49.8215 2.39427 51.4308 3.78376C51.7587 4.06627 52.0635 4.38684 52.3262 4.73046C53.2046 5.88253 52.8276 7.39624 51.518 8.01435C50.2647 8.60641 48.9752 8.50423 47.6848 8.16963C47.2145 8.04641 46.7543 7.87911 46.1848 7.69879Z" fill="#8C9FB2"/>
<path fill-rule="evenodd" clip-rule="evenodd" d="M64.4758 23.8017C63.3277 24.518 62.1425 25.045 60.7669 25.066C59.3721 25.087 58.1649 24.6563 57.1712 23.6184C57.0248 24.4599 56.8885 25.2413 56.7411 26.0848C57.7588 25.5479 58.8206 25.4737 59.9156 25.7683C60.9654 26.0498 61.949 26.4595 62.7672 27.2289C62.4032 27.0996 62.0363 26.9784 61.6743 26.8412C60.1492 26.2621 58.565 26.2201 56.9697 26.3483C56.724 26.3683 56.4864 26.5747 56.2608 26.719C56.0091 26.8803 55.7745 27.0696 55.5318 27.2459C55.4857 27.2038 55.4386 27.1608 55.3925 27.1177C55.7173 26.3593 56.1124 25.621 56.349 24.8366C56.5776 24.0782 56.6408 23.2718 56.7701 22.5234C56.9917 22.7048 57.1712 22.9181 57.3998 23.0263C58.4877 23.5403 59.5887 23.5312 60.6957 23.0554C62.0683 22.4653 63.3498 22.7158 64.4758 23.8017Z" fill="#8C9FB2"/>
<path fill-rule="evenodd" clip-rule="evenodd" d="M48.4177 25.0986C48.0597 25.9962 47.6466 26.8438 47.3819 27.7334C46.6249 30.2739 46.9788 32.7994 47.6476 35.2949C47.9264 36.3338 48.2994 37.3476 48.6272 38.3735C48.6523 38.4526 48.6643 38.5367 48.7024 38.7081C48.5601 38.6209 48.4849 38.5979 48.4458 38.5468C46.3451 35.8639 45.1519 32.8986 45.6623 29.4254C45.932 27.5831 46.9748 26.2216 48.4177 25.0986Z" fill="#8C9FB2"/>
<path fill-rule="evenodd" clip-rule="evenodd" d="M64.8548 28.8044C65.301 28.6381 65.6259 28.5118 65.9537 28.3946C69.1954 27.2375 72.5233 26.923 75.9204 27.4549C77.3934 27.6854 79.133 28.5519 79.857 29.3303C79.0689 29.1219 78.2848 28.8695 77.4826 28.7112C75.384 28.2964 73.2553 28.3195 71.1326 28.4167C69.0932 28.5078 67.0557 28.6651 64.8548 28.8044Z" fill="#8C9FB2"/>
<path fill-rule="evenodd" clip-rule="evenodd" d="M85.5011 30.9428C83.5829 29.1626 81.3309 28.1618 78.6868 27.6789C80.1397 27.3604 83.1538 27.4465 84.3179 27.7991C85.8239 28.256 86.3524 29.5603 85.5011 30.9428Z" fill="#8C9FB2"/>
<path fill-rule="evenodd" clip-rule="evenodd" d="M46.1316 44.527C46.9017 43.6264 47.7339 42.8059 48.8007 42.2769C50.012 41.6769 51.0919 42.0766 51.7256 43.3709C49.8064 43.5212 47.9194 43.7566 46.1316 44.527Z" fill="#8C9FB2"/>
<path fill-rule="evenodd" clip-rule="evenodd" d="M52.6079 40.7396C50.6376 40.7276 48.7967 41.0562 47.053 41.9007C47.8873 40.9049 48.7847 39.9973 50.024 39.5394C51.1189 39.1357 52.0665 39.5735 52.6079 40.7396Z" fill="#8C9FB2"/>
<path fill-rule="evenodd" clip-rule="evenodd" d="M43.4975 3.13672C44.5964 4.10145 45.4848 5.09924 45.3374 6.68609C44.8331 6.14812 44.3007 5.63921 43.8414 5.07019C43.5206 4.67348 43.2288 4.60235 42.7906 4.84479C42.4928 5.01008 42.1549 5.10225 41.834 5.22747C41.811 5.17337 41.7879 5.12028 41.7639 5.06618C42.0546 4.93194 42.3354 4.76364 42.6392 4.67047C43.1666 4.51019 43.4965 4.24471 43.4203 3.63662C43.4043 3.49436 43.4644 3.34209 43.4975 3.13672Z" fill="#8C9FB2"/>
<path fill-rule="evenodd" clip-rule="evenodd" d="M48.529 18.5685C48.904 15.7424 48.513 13.0586 46.9879 10.5871C47.0481 10.5451 47.1072 10.504 47.1664 10.4619C47.2867 10.5871 47.4381 10.6953 47.5223 10.8416C48.7797 13.0085 49.2359 15.3487 49.0123 17.8321C48.9953 18.0205 49.0023 18.2188 48.9432 18.3941C48.903 18.5124 48.7657 18.5975 48.6724 18.6977C48.6253 18.6536 48.5772 18.6105 48.529 18.5685Z" fill="#8C9FB2"/>
<path fill-rule="evenodd" clip-rule="evenodd" d="M51.1581 29.0837C52.4736 29.1689 53.4953 28.8272 54.0147 27.5439C54.3757 28.3594 54.0268 29.4874 53.366 29.8361C52.604 30.2378 51.7005 29.9643 51.1581 29.0837Z" fill="#8C9FB2"/>
</svg>
