<svg width="130" height="31" viewBox="0 0 130 31" fill="none" xmlns="http://www.w3.org/2000/svg">
<path fill-rule="evenodd" clip-rule="evenodd" d="M91.6746 15.8386C91.267 16.7551 90.8963 17.587 90.5207 18.4318C91.4897 18.4318 92.4768 18.4318 93.4878 18.4318C93.4069 18.0124 93.265 17.6119 93.263 17.2104C93.258 16.0897 93.2471 14.9619 93.358 13.8482C93.5068 12.3458 93.7246 10.8475 93.9884 9.36115C94.5498 6.19913 96.3621 4.06023 99.4811 3.20248C101.463 2.65754 103.427 2.81096 105.144 4.13594C106.603 5.26268 107.243 6.79786 107.202 8.59306C107.174 9.82042 107.047 11.0508 106.882 12.2691C106.692 13.6698 106.453 15.0685 106.152 16.4493C106.004 17.1277 105.666 17.7633 105.409 18.4288C106.472 18.4288 107.553 18.4288 108.65 18.4288C109.299 13.3281 109.945 8.24936 110.597 3.1178C111.111 3.1178 111.604 3.1178 112.096 3.1178C112.635 3.1178 113.173 3.13274 113.711 3.11182C113.993 3.10086 114.139 3.18255 114.233 3.46449C115.25 6.48803 116.281 9.5066 117.307 12.5272C117.368 12.7035 117.431 12.8788 117.514 13.1129C117.899 12.4654 118.259 11.8577 118.619 11.25C120.145 8.66977 121.677 6.09054 123.193 3.50434C123.362 3.21543 123.546 3.09887 123.89 3.10883C124.883 3.13374 125.877 3.1178 126.948 3.1178C126.157 9.34223 125.371 15.5268 124.585 21.7114C123.37 21.7114 122.204 21.7114 121.025 21.7114C121.476 18.1648 121.926 14.6421 122.375 11.1195C122.358 11.1125 122.342 11.1046 122.324 11.0976C121.779 11.9842 121.231 12.8709 120.686 13.7575C119.886 15.0576 119.082 16.3557 118.292 17.6627C118.166 17.8719 118.035 17.9636 117.786 17.9556C117.208 17.9367 116.629 17.9327 116.051 17.9566C115.772 17.9695 115.659 17.8709 115.568 17.6139C114.838 15.5766 114.092 13.5453 113.35 11.512C113.303 11.3815 113.247 11.254 113.132 11.1444C112.686 14.6551 112.239 18.1668 111.785 21.7323C111.638 21.7323 111.495 21.7323 111.351 21.7323C102.175 21.7323 93.0003 21.7333 83.8241 21.7313C81.3934 21.7303 79.1125 20.0278 78.627 17.7185C78.4322 16.791 78.4322 15.7928 78.5191 14.8434C78.681 13.0611 78.9387 11.2869 79.2184 9.51856C79.3813 8.49145 79.663 7.48326 80.1895 6.56474C80.2125 6.5229 80.2235 6.47409 80.2595 6.37745C79.2544 6.37745 78.2883 6.34159 77.3273 6.3914C76.7758 6.41929 76.4761 6.27285 76.2343 5.74585C75.7587 4.70877 74.9645 3.92972 73.9595 3.37682C73.8476 3.31505 73.7387 3.2493 73.6428 3.1178C73.7706 3.1178 73.8975 3.1178 74.0254 3.1178C78.2773 3.1178 82.5283 3.1178 86.7802 3.1168C87.8432 3.1168 88.8622 3.31705 89.8004 3.82911C91.4508 4.7287 92.1941 6.21009 92.4428 7.99931C92.4618 8.13181 92.4718 8.26531 92.4848 8.3988C92.4978 8.5313 92.5078 8.66479 92.5228 8.82618C91.3189 8.82618 90.129 8.82618 88.9292 8.82618C88.8672 8.57313 88.8113 8.31511 88.7404 8.06108C88.3477 6.65141 87.2108 6.08058 85.8721 6.24794C84.1747 6.45914 83.1777 7.41452 82.795 9.31931C82.3515 11.5359 82.0178 13.7744 82.0318 16.0468C82.0398 17.3489 83.0088 18.3561 84.3126 18.4388C85.944 18.5424 87.0869 17.863 87.7803 16.3058C87.9541 15.9173 88.1599 15.8147 88.5575 15.8267C89.5496 15.8575 90.5426 15.8386 91.6746 15.8386ZM103.584 9.32728C103.584 9.09915 103.587 8.87101 103.583 8.64387C103.565 7.5799 102.897 6.6813 101.884 6.35653C100.272 5.84049 98.3982 6.74107 97.8737 8.40876C97.528 9.50859 97.3302 10.6662 97.1833 11.8129C96.9955 13.2823 96.8826 14.7647 96.8167 16.2451C96.7677 17.316 97.543 18.2385 98.574 18.5145C100.301 18.9777 102.072 18.0074 102.606 16.2142C103.274 13.9727 103.416 11.6455 103.584 9.32728Z" fill="#8C9FB2"/>
<path fill-rule="evenodd" clip-rule="evenodd" d="M28.5188 21.7335C27.4878 21.7335 26.4947 21.7424 25.5007 21.7195C25.3938 21.7165 25.2539 21.5452 25.192 21.4207C24.0351 19.1154 22.8872 16.8041 21.7393 14.4949C21.1378 13.2845 20.5394 12.0731 19.938 10.8626C19.88 10.7461 19.8111 10.6345 19.6922 10.4263C19.2057 14.2508 18.7321 17.9737 18.2566 21.7135C12.1714 21.7135 6.11017 21.7135 0 21.7135C0.788248 15.518 1.5745 9.3434 2.36275 3.14487C6.31597 3.14487 10.2512 3.14487 14.2394 3.14487C14.1675 3.37799 14.1065 3.58919 14.0356 3.7974C13.7749 4.55453 13.5001 5.30669 13.2554 6.0688C13.1744 6.31985 13.0486 6.3846 12.7958 6.3836C10.5359 6.37464 8.2761 6.37862 6.01526 6.37862C5.85641 6.37862 5.69757 6.37862 5.50974 6.37862C5.32192 7.83013 5.1391 9.24577 4.95128 10.6963C7.30703 10.6963 9.6438 10.6963 12.0565 10.6963C11.9166 11.813 11.7808 12.891 11.6419 13.9998C9.27016 13.9998 6.9204 13.9998 4.53767 13.9998C4.34785 15.4851 4.16303 16.9396 3.97321 18.425C7.67768 18.425 11.3682 18.425 15.1156 18.425C15.763 13.3403 16.4113 8.25352 17.0657 3.11996C18.0808 3.11996 19.0858 3.10901 20.0898 3.13491C20.2027 3.1379 20.3466 3.33615 20.4155 3.47362C21.6633 5.95722 22.9022 8.4458 24.142 10.9334C24.6495 11.9505 25.156 12.9677 25.6635 13.9838C25.7205 14.0994 25.7844 14.211 25.8893 14.4072C26.0701 13.0075 26.24 11.7025 26.4058 10.3974C26.6056 8.81838 26.8014 7.23936 27.0002 5.65935C27.0962 4.90321 27.207 4.14907 27.288 3.39094C27.3099 3.18073 27.3829 3.111 27.5827 3.11499C27.9184 3.12296 28.255 3.11598 28.5917 3.11598C32.6139 3.11598 36.6371 3.111 40.6592 3.11797C42.4385 3.12096 44.031 3.61509 45.2189 5.01977C46.158 6.13056 46.5106 7.45056 46.5246 8.90804C45.3288 8.90804 44.1639 8.90804 42.982 8.90804C42.936 8.69086 42.8981 8.4697 42.8411 8.25352C42.4295 6.67749 41.2766 6.09669 39.7681 6.24413C38.1686 6.40054 37.2115 7.37585 36.8399 8.87218C36.5481 10.0487 36.3503 11.2552 36.2095 12.4606C36.0576 13.7607 35.9607 15.0737 35.9497 16.3817C35.9387 17.5932 36.9178 18.4917 38.1246 18.6003C40.4424 18.8056 41.9909 17.2216 42.2337 15.1574C42.2787 14.7748 42.3416 14.3933 42.4026 13.9629C41.3026 13.9629 40.2356 13.9629 39.1297 13.9629C39.1546 13.8274 39.1596 13.7387 39.1886 13.6581C39.4853 12.8292 39.7771 11.9973 40.0958 11.1764C40.1437 11.0529 40.3245 10.8995 40.4454 10.8985C42.3556 10.8826 44.2658 10.8895 46.176 10.8925C46.1999 10.8925 46.2249 10.9095 46.3068 10.9393C46.2409 11.4753 46.1889 12.0272 46.101 12.5742C45.8972 13.8394 45.7773 15.1275 45.4417 16.3578C44.6174 19.3864 42.5534 21.1855 39.4973 21.7753C37.6331 22.1349 35.8248 21.8899 34.2803 20.6416C33.1184 19.7032 32.4041 18.5067 32.3811 16.9894C32.3332 13.8284 32.7268 10.7192 33.594 7.67571C33.7168 7.24534 33.9376 6.84386 34.1235 6.40552C32.9016 6.40552 31.6888 6.40552 30.4679 6.40552C29.8186 11.5261 29.1712 16.6168 28.5188 21.7335Z" fill="#8C9FB2"/>
<path fill-rule="evenodd" clip-rule="evenodd" d="M61.6202 14.3006C61.6382 11.8738 62.0598 9.5317 63.1977 7.36191C64.8002 4.30549 67.3537 2.88587 70.8004 3.04526C73.9864 3.19271 75.9835 4.88629 76.5659 8.21667C77.1843 11.7603 76.6349 15.1753 74.7227 18.2636C72.9993 21.0471 70.3489 22.0712 67.1639 21.7753C63.7951 21.4635 62.2566 19.2907 61.7721 16.4605C61.7061 16.0779 61.6542 15.6924 61.6262 15.3048C61.6002 14.9721 61.6202 14.6364 61.6202 14.3006ZM69.8304 9.48886C69.7245 10.3157 69.6076 11.2133 69.4867 12.1398C70.7345 12.1398 71.9393 12.1398 73.1832 12.1398C73.314 10.9981 73.397 9.87141 73.1522 8.80943C72.0522 9.03358 70.9683 9.25574 69.8304 9.48886ZM65.1888 12.1428C66.5335 12.1428 67.7374 12.1428 68.9742 12.1428C69.0791 11.294 69.189 10.4612 69.2769 9.62634C69.2859 9.54365 69.159 9.3723 69.0891 9.36931C68.093 9.32448 67.1419 9.09535 66.1179 8.661C65.8052 9.83655 65.5045 10.9633 65.1888 12.1428ZM69.0781 15.3616C70.1341 15.5947 71.1481 15.8189 72.2171 16.054C72.6667 15.0438 72.9524 13.9171 73.0972 12.6927C71.9014 12.6927 70.7475 12.6867 69.5956 12.7067C69.5177 12.7077 69.3908 12.895 69.3748 13.0085C69.2609 13.8045 69.171 14.6025 69.0781 15.3616ZM68.8983 12.6907C67.9502 12.6907 67.055 12.6907 66.1619 12.6907C65.2128 12.6907 65.1728 12.6897 65.1239 13.6282C65.0809 14.4471 65.1428 15.271 65.1558 16.051C66.3417 15.8089 67.4227 15.5878 68.5546 15.3566C68.6605 14.5338 68.7754 13.6411 68.8983 12.6907ZM71.9054 16.5999C70.9773 16.1935 70.0182 15.9693 68.9852 16.0062C68.8733 16.8898 68.7664 17.7306 68.6605 18.5735C69.9143 18.688 71.298 17.8402 71.9054 16.5999ZM70.249 6.24116C70.1371 7.09991 70.0232 7.96264 69.9053 8.86522C71.0172 8.83434 72.0243 8.6331 72.9864 8.2117C72.5917 6.9435 71.6726 6.28101 70.249 6.24116ZM69.7235 6.22721C68.2249 6.31189 67.1869 6.99231 66.4666 8.23959C67.3397 8.63609 68.2239 8.82238 69.141 8.85227C69.2329 8.85526 69.4008 8.7407 69.4118 8.66299C69.5287 7.86999 69.6196 7.075 69.7235 6.22721ZM68.4717 16.046C67.7194 15.9125 65.9541 16.2901 65.4116 16.6866C65.8382 17.9687 66.9481 18.7398 68.143 18.5635C68.2529 17.7267 68.3628 16.8848 68.4717 16.046Z" fill="#8C9FB2"/>
<path fill-rule="evenodd" clip-rule="evenodd" d="M64.8621 21.7143C58.9767 21.7143 53.1953 21.7143 47.3588 21.7143C48.1481 15.5118 48.9333 9.33516 49.7206 3.14062C53.6938 3.14062 57.63 3.14062 61.6102 3.14062C61.2526 4.18268 60.9109 5.20481 60.5393 6.21598C60.5063 6.30664 60.2805 6.37139 60.1436 6.37238C58.1395 6.38235 56.1345 6.37936 54.1304 6.37936C53.7937 6.37936 53.456 6.36043 53.1223 6.39032C53.0164 6.39928 52.8456 6.5278 52.8326 6.61845C52.6508 7.94344 52.4909 9.27141 52.3281 10.5984C52.3251 10.6203 52.3441 10.6452 52.367 10.705C54.7038 10.705 57.0526 10.705 59.4173 10.705C59.2745 11.8138 59.1376 12.8847 58.9957 13.9935C56.632 13.9935 54.2832 13.9935 51.8975 13.9935C51.7077 15.4819 51.5219 16.9364 51.327 18.4546C51.5268 18.4546 51.6817 18.4546 51.8386 18.4546C55.0265 18.4546 58.2155 18.4596 61.4034 18.4486C61.6971 18.4477 61.86 18.5214 61.9859 18.8003C62.5393 20.0257 63.4085 20.9641 64.6224 21.5698C64.6783 21.5977 64.7283 21.6336 64.8621 21.7143Z" fill="#8C9FB2"/>
<path fill-rule="evenodd" clip-rule="evenodd" d="M69.4328 25.2041C69.4328 27.1079 69.4328 28.9928 69.4328 30.8727C68.7164 31.0171 68.6755 31.0002 68.3058 30.4383C67.5765 29.3305 66.8462 28.2217 66.038 27.1189C66.038 28.3741 66.038 29.6284 66.038 30.9045C65.6943 30.9045 65.4176 30.9045 65.1119 30.9045C65.1119 29.0137 65.1119 27.1288 65.1119 25.244C65.7553 25.0597 65.8981 25.1175 66.2568 25.6624C66.9901 26.7822 67.7304 27.8989 68.5396 29.1253C68.5396 27.7475 68.5396 26.4893 68.5396 25.2031C68.8553 25.2041 69.1201 25.2041 69.4328 25.2041Z" fill="#8C9FB2"/>
<path fill-rule="evenodd" clip-rule="evenodd" d="M42.4176 25.2018C43.3247 25.2018 44.2109 25.159 45.091 25.2167C45.6934 25.2546 46.148 25.6152 46.3208 26.2199C46.5217 26.9183 46.3558 27.518 45.7044 27.9653C46.3488 28.3569 46.5756 28.9247 46.4537 29.636C46.3328 30.3364 45.8403 30.8544 45.131 30.8932C44.2368 30.9431 43.3377 30.9052 42.4166 30.9052C42.4176 29.0094 42.4176 27.1265 42.4176 25.2018ZM43.2967 30.1062C43.8332 30.1062 44.3287 30.1242 44.8213 30.1012C45.2499 30.0803 45.5316 29.7735 45.5646 29.3511C45.6005 28.8829 45.3857 28.4904 44.9631 28.4475C44.4137 28.3917 43.8542 28.4336 43.2967 28.4336C43.2967 29.0004 43.2967 29.5314 43.2967 30.1062ZM43.3067 25.9978C43.3067 26.5547 43.3067 27.0548 43.3067 27.5539C43.8372 27.5539 44.3457 27.5947 44.8452 27.5419C45.3078 27.4921 45.5086 27.1813 45.4836 26.726C45.4617 26.3196 45.1959 26.0257 44.7683 26.0038C44.2898 25.9789 43.8092 25.9978 43.3067 25.9978Z" fill="#8C9FB2"/>
<path fill-rule="evenodd" clip-rule="evenodd" d="M96.0513 29.0841C96.0513 27.7332 96.0513 26.482 96.0513 25.2038C96.365 25.2038 96.6388 25.2038 96.9345 25.2038C96.9345 27.1036 96.9345 28.9875 96.9345 30.8693C96.2402 31.0218 96.1832 31.0028 95.8136 30.443C95.1322 29.4139 94.4579 28.3828 93.7785 27.3527C93.7086 27.2471 93.6297 27.1474 93.5008 26.9691C93.5008 28.329 93.5008 29.5962 93.5008 30.8943C93.1991 30.8943 92.9273 30.8943 92.6306 30.8943C92.6306 29.0094 92.6306 27.1245 92.6306 25.2387C93.277 25.0653 93.3949 25.1082 93.7436 25.6392C94.4369 26.6912 95.1332 27.7412 95.8286 28.7922C95.8755 28.8669 95.9345 28.9327 96.0513 29.0841Z" fill="#8C9FB2"/>
<path fill-rule="evenodd" clip-rule="evenodd" d="M17.879 30.9106C17.879 28.9799 17.879 27.106 17.879 25.2242C18.7651 25.2242 19.6423 25.1465 20.4975 25.2461C21.3307 25.3447 21.8542 25.9524 21.9191 26.7753C21.989 27.6639 21.9811 28.5725 21.8752 29.4561C21.7713 30.3268 21.0789 30.8678 20.1948 30.9027C19.4335 30.9345 18.6692 30.9106 17.879 30.9106ZM18.8221 25.9972C18.8221 27.387 18.8221 28.7329 18.8221 30.1047C19.2497 30.1047 19.6523 30.1276 20.0509 30.0987C20.5324 30.0628 20.959 29.7401 20.988 29.2977C21.0419 28.4878 21.0509 27.6679 21 26.858C20.969 26.3609 20.5324 26.0271 20.0309 26.0012C19.6433 25.9803 19.2537 25.9972 18.8221 25.9972Z" fill="#8C9FB2"/>
<path fill-rule="evenodd" clip-rule="evenodd" d="M82.781 25.1999C83.6742 25.1999 84.5463 25.158 85.4135 25.2128C86.1238 25.2576 86.6773 25.8564 86.7812 26.5438C86.9011 27.3318 86.6064 27.9345 85.929 28.2872C85.8601 28.324 85.7872 28.3559 85.6793 28.4087C86.1069 29.2326 86.5295 30.0465 86.985 30.9252C86.6393 30.9252 86.3486 30.9461 86.0649 30.9132C85.968 30.9013 85.8581 30.7678 85.8031 30.6642C85.5104 30.1073 85.2077 29.5544 84.959 28.9785C84.8041 28.6199 84.6053 28.4436 84.2057 28.5083C84.0378 28.5352 83.863 28.5123 83.6562 28.5123C83.6562 29.3222 83.6562 30.0933 83.6562 30.8963C83.3485 30.8963 83.0767 30.8963 82.78 30.8963C82.781 29.0114 82.781 27.1275 82.781 25.1999ZM83.6662 27.7751C84.2227 27.7492 84.7591 27.7602 85.2836 27.6844C85.6952 27.6247 85.929 27.2351 85.9021 26.8177C85.8771 26.4123 85.5844 26.0407 85.1897 26.0118C84.6862 25.9769 84.1787 26.0028 83.6662 26.0028C83.6662 26.5986 83.6662 27.1554 83.6662 27.7751Z" fill="#8C9FB2"/>
<path fill-rule="evenodd" clip-rule="evenodd" d="M35.7988 28.5131C35.7988 29.332 35.7988 30.1041 35.7988 30.9011C35.4841 30.9011 35.2114 30.9011 34.9156 30.9011C34.9156 29.0003 34.9156 27.1164 34.9156 25.2176C35.8378 25.2176 36.7509 25.1588 37.652 25.2365C38.3474 25.2963 38.8429 25.904 38.9218 26.5605C39.0217 27.3993 38.757 27.9333 38.0606 28.2959C38.0017 28.3258 37.9418 28.3537 37.8289 28.4065C38.2535 29.2274 38.6731 30.0383 39.1316 30.925C38.782 30.925 38.4932 30.9469 38.2105 30.913C38.1136 30.9011 38.0057 30.7656 37.9518 30.661C37.647 30.0802 37.3423 29.4984 37.0696 28.9016C36.9357 28.6068 36.7679 28.4603 36.4332 28.5071C36.2384 28.536 36.0376 28.5131 35.7988 28.5131ZM35.8108 27.7072C36.3593 27.7072 36.8818 27.754 37.3923 27.6932C37.8439 27.6394 38.0577 27.2868 38.0397 26.8215C38.0237 26.4081 37.7529 26.0484 37.3433 26.0146C36.8418 25.9737 36.3353 26.0046 35.8108 26.0046C35.8108 26.5894 35.8108 27.1323 35.8108 27.7072Z" fill="#8C9FB2"/>
<path fill-rule="evenodd" clip-rule="evenodd" d="M103.108 25.198C103.992 25.198 104.851 25.1582 105.705 25.211C106.459 25.2568 106.969 25.8147 107.106 26.5997C107.229 27.302 106.919 27.9227 106.27 28.2754C106.19 28.3182 106.108 28.358 106 28.4138C106.431 29.2437 106.851 30.0576 107.301 30.9273C106.961 30.9273 106.68 30.9482 106.406 30.9164C106.305 30.9034 106.186 30.7819 106.133 30.6802C105.834 30.1124 105.533 29.5426 105.273 28.9568C105.122 28.62 104.927 28.4487 104.545 28.5105C104.377 28.5374 104.203 28.5154 103.991 28.5154C103.991 29.3234 103.991 30.0945 103.991 30.8974C103.679 30.8974 103.407 30.8974 103.107 30.8974C103.108 29.0096 103.108 27.1267 103.108 25.198ZM104.011 25.997C104.011 26.6107 104.011 27.1666 104.011 27.7065C104.547 27.7065 105.059 27.7513 105.558 27.6936C105.999 27.6418 106.245 27.2562 106.219 26.8219C106.194 26.3736 105.88 26.0249 105.432 26.002C104.966 25.9781 104.496 25.997 104.011 25.997Z" fill="#8C9FB2"/>
<path fill-rule="evenodd" clip-rule="evenodd" d="M63.941 28.0429C63.9171 28.4523 63.9091 28.8677 63.8661 29.2792C63.7662 30.2515 62.942 30.9598 61.905 30.9847C60.853 31.0086 59.9329 30.3571 59.8449 29.4007C59.764 28.5141 59.756 27.6075 59.8429 26.7229C59.9418 25.7107 60.852 25.0811 61.9619 25.1209C62.981 25.1578 63.7662 25.8561 63.8691 26.8364C63.9111 27.2339 63.9181 27.6354 63.941 28.0429ZM62.9809 28.0708H62.979C62.979 27.7091 63.0029 27.3445 62.974 26.9849C62.923 26.3553 62.4225 25.9089 61.8201 25.9219C61.2206 25.9348 60.7481 26.3572 60.7171 26.9829C60.6831 27.6902 60.6821 28.4015 60.7171 29.1088C60.7481 29.7494 61.2466 30.1798 61.858 30.1678C62.4774 30.1549 62.935 29.7215 62.978 29.075C62.9999 28.7422 62.9809 28.4055 62.9809 28.0708Z" fill="#8C9FB2"/>
<path fill-rule="evenodd" clip-rule="evenodd" d="M98.3462 25.1787C99.4991 25.1787 100.625 25.1787 101.752 25.1807C101.829 25.1807 101.905 25.1996 102.001 25.2106C102.001 25.4646 102.001 25.6997 102.001 25.9797C101.079 25.9797 100.173 25.9797 99.2424 25.9797C99.2424 26.5396 99.2424 27.0536 99.2424 27.6105C100.01 27.6105 100.768 27.6105 101.554 27.6105C101.554 27.8865 101.554 28.1226 101.554 28.3945C100.804 28.3945 100.043 28.3945 99.2494 28.3945C99.2494 28.9704 99.2494 29.5113 99.2494 30.0971C100.144 30.0971 101.051 30.0971 101.989 30.0971C101.989 30.386 101.989 30.6311 101.989 30.903C100.775 30.903 99.573 30.903 98.3452 30.903C98.3462 29.0092 98.3462 27.1263 98.3462 25.1787Z" fill="#8C9FB2"/>
<path fill-rule="evenodd" clip-rule="evenodd" d="M73.7736 28.6581C73.7736 29.4382 73.7736 30.1565 73.7736 30.9006C73.4549 30.9006 73.1802 30.9006 72.8795 30.9006C72.8795 29.0058 72.8795 27.121 72.8795 25.2291C73.7986 25.2291 74.7177 25.1385 75.6089 25.254C76.496 25.3696 77.0005 26.2034 76.9136 27.101C76.8297 27.9757 76.1913 28.6034 75.2982 28.6532C74.8056 28.6801 74.3111 28.6581 73.7736 28.6581ZM73.7896 27.8492C74.2741 27.8492 74.7287 27.8711 75.1813 27.8432C75.6788 27.8123 75.9875 27.4607 76.0015 26.9715C76.0185 26.4505 75.7607 26.06 75.2862 26.0152C74.7986 25.9683 74.3021 26.0042 73.7896 26.0042C73.7896 26.6228 73.7896 27.2076 73.7896 27.8492Z" fill="#8C9FB2"/>
<path fill-rule="evenodd" clip-rule="evenodd" d="M76.9337 30.8976C77.3842 29.6672 77.8248 28.4658 78.2654 27.2643C78.4912 26.6507 78.7359 26.042 78.9397 25.4213C79.0217 25.1723 79.1765 25.1663 79.3703 25.1782C79.5591 25.1902 79.759 25.1175 79.8589 25.3984C80.5042 27.1956 81.1686 28.9878 81.825 30.78C81.839 30.8149 81.835 30.8557 81.839 30.8926C81.82 30.9006 81.808 30.9085 81.795 30.9105C80.9368 30.9952 80.9258 30.9982 80.6641 30.1674C80.5762 29.8874 80.4603 29.7559 80.1406 29.7748C79.6321 29.8057 79.1196 29.8007 78.61 29.7758C78.3393 29.7629 78.2154 29.8655 78.1685 30.1086C78.1635 30.1345 78.1565 30.1614 78.1475 30.1863C77.8758 30.9853 77.8758 30.9853 76.9337 30.8976ZM79.4183 26.5441C79.1146 27.4188 78.8478 28.1888 78.5721 28.9798C79.1635 28.9798 79.692 28.9798 80.2565 28.9798C79.9827 28.1799 79.719 27.4168 79.4183 26.5441Z" fill="#8C9FB2"/>
<path fill-rule="evenodd" clip-rule="evenodd" d="M47.5607 25.1982C47.8793 25.1982 48.1431 25.1982 48.4478 25.1982C48.4478 25.7641 48.4478 26.311 48.4478 26.857C48.4478 27.5543 48.4388 28.2517 48.4508 28.95C48.4638 29.6972 48.9184 30.1644 49.6117 30.1684C50.332 30.1734 50.7916 29.7022 50.7956 28.9411C50.8006 27.7097 50.7966 26.4764 50.7966 25.2122C51.0953 25.2122 51.367 25.2122 51.6697 25.2122C51.6777 25.3268 51.6937 25.4423 51.6937 25.5599C51.6947 26.6996 51.6987 27.8392 51.6937 28.9799C51.6887 30.1724 50.8235 30.9973 49.6027 30.9863C48.4028 30.9744 47.5636 30.1475 47.5616 28.97C47.5587 27.7227 47.5607 26.4774 47.5607 25.1982Z" fill="#8C9FB2"/>
<path fill-rule="evenodd" clip-rule="evenodd" d="M28.9414 25.7986C28.7656 25.9779 28.5897 26.1563 28.4019 26.3465C27.9793 25.975 27.4908 25.8743 26.9643 25.9202C26.4877 25.961 26.1371 26.2987 26.1081 26.7301C26.0801 27.1375 26.3369 27.4275 26.8474 27.536C27.215 27.6137 27.5917 27.6456 27.9563 27.7323C28.6846 27.9046 29.0872 28.351 29.1522 29.0154C29.2331 29.8463 28.9184 30.4321 28.2201 30.7558C27.3829 31.1454 25.8144 31.0816 25.0561 30.2268C25.2539 30.0396 25.4517 29.8513 25.6625 29.652C26.204 30.1362 26.8644 30.2657 27.5857 30.1073C28.0432 30.0057 28.288 29.6869 28.271 29.2485C28.255 28.8261 28.0093 28.5781 27.5247 28.5004C27.1801 28.4436 26.8334 28.4057 26.4917 28.335C25.8993 28.2115 25.4397 27.9066 25.2899 27.289C25.13 26.6325 25.2559 26.0327 25.7784 25.5655C26.5617 24.8642 28.2441 24.9917 28.9414 25.7986Z" fill="#8C9FB2"/>
<path fill-rule="evenodd" clip-rule="evenodd" d="M107.925 30.2271C108.136 30.0189 108.323 29.8336 108.521 29.6373C109.071 30.1295 109.718 30.26 110.428 30.1125C110.9 30.0139 111.161 29.7051 111.154 29.2837C111.145 28.8503 110.883 28.5783 110.393 28.4977C110.022 28.4369 109.643 28.406 109.281 28.3163C108.657 28.1619 108.221 27.7893 108.127 27.1259C108.03 26.4385 108.219 25.8437 108.82 25.4412C109.66 24.8813 111.079 25.0457 111.796 25.77C111.614 25.9364 111.431 26.1027 111.32 26.2033C110.823 26.1067 110.341 25.9613 109.852 25.9344C109.368 25.9085 109.021 26.2791 108.99 26.7154C108.959 27.1557 109.207 27.4337 109.743 27.5393C110.059 27.6011 110.38 27.6389 110.695 27.6987C111.506 27.8511 111.951 28.3114 112.045 29.0804C112.134 29.8167 111.754 30.5001 111.03 30.776C110.104 31.1297 109.188 31.0719 108.324 30.5579C108.18 30.4722 108.061 30.3417 107.925 30.2271Z" fill="#8C9FB2"/>
<path fill-rule="evenodd" clip-rule="evenodd" d="M55.1375 30.9095C54.8018 30.9095 54.536 30.9095 54.2263 30.9095C54.2263 29.2816 54.2263 27.6667 54.2263 26.011C53.6918 26.011 53.2003 26.011 52.6778 26.011C52.6778 25.7271 52.6778 25.481 52.6778 25.2061C53.9945 25.2061 55.3173 25.2061 56.67 25.2061C56.67 25.4521 56.67 25.6972 56.67 25.9811C56.1695 25.9811 55.6769 25.9811 55.1375 25.9811C55.1375 27.6309 55.1375 29.2458 55.1375 30.9095Z" fill="#8C9FB2"/>
<path fill-rule="evenodd" clip-rule="evenodd" d="M32.3711 30.9105C32.0344 30.9105 31.7687 30.9105 31.459 30.9105C31.459 29.2797 31.459 27.6648 31.459 26.0091C30.9255 26.0091 30.434 26.0091 29.9125 26.0091C29.9125 25.7241 29.9125 25.4791 29.9125 25.2041C31.2332 25.2041 32.556 25.2041 33.9077 25.2041C33.9077 25.4542 33.9077 25.6992 33.9077 25.9832C33.4031 25.9832 32.9106 25.9832 32.3711 25.9832C32.3711 27.6339 32.3711 29.2478 32.3711 30.9105Z" fill="#8C9FB2"/>
<path fill-rule="evenodd" clip-rule="evenodd" d="M90.0521 30.9153C89.7144 30.9153 89.4597 30.9153 89.154 30.9153C89.154 29.2805 89.154 27.6567 89.154 25.9939C88.6125 25.9939 88.123 25.9939 87.6085 25.9939C87.6085 25.718 87.6085 25.4819 87.6085 25.2119C88.9322 25.2119 90.2639 25.2119 91.6166 25.2119C91.6166 25.457 91.6166 25.6931 91.6166 25.974C91.1171 25.974 90.6126 25.974 90.0531 25.974C90.0521 27.6367 90.0521 29.2596 90.0521 30.9153Z" fill="#8C9FB2"/>
<path fill-rule="evenodd" clip-rule="evenodd" d="M40.1747 25.2021C40.4457 25.2021 40.7087 25.2021 41.0067 25.2021C41.0067 27.092 41.0067 28.9858 41.0067 30.9036C40.7367 30.9036 40.4727 30.9036 40.1747 30.9036C40.1747 29.0117 40.1747 27.1189 40.1747 25.2021Z" fill="#8C9FB2"/>
<path fill-rule="evenodd" clip-rule="evenodd" d="M58.53 30.9104C58.239 30.9104 57.975 30.9104 57.684 30.9104C57.684 29.0106 57.684 27.1257 57.684 25.209C57.957 25.209 58.229 25.209 58.53 25.209C58.53 27.0958 58.53 28.9797 58.53 30.9104Z" fill="#8C9FB2"/>
<path fill-rule="evenodd" clip-rule="evenodd" d="M24.0448 30.9114C23.7568 30.9114 23.4928 30.9114 23.2048 30.9114C23.2048 29.0106 23.2048 27.1247 23.2048 25.208C23.4758 25.208 23.7478 25.208 24.0448 25.208C24.0448 27.0949 24.0448 28.9797 24.0448 30.9114Z" fill="#8C9FB2"/>
<path fill-rule="evenodd" clip-rule="evenodd" d="M130 1.587C130.003 2.47762 129.342 3.18693 128.498 3.1969C127.657 3.20686 126.938 2.46467 126.936 1.58401C126.933 0.705333 127.611 0.001997 128.462 4.55027e-06C129.366 -0.0019879 129.998 0.650543 130 1.587ZM128.465 0.222163C127.758 0.232125 127.171 0.856761 127.176 1.59497C127.182 2.31524 127.801 2.97175 128.479 2.97474C129.163 2.97872 129.818 2.27439 129.793 1.56209C129.768 0.818904 129.166 0.2122 128.465 0.222163Z" fill="#8C9FB2"/>
<path fill-rule="evenodd" clip-rule="evenodd" d="M43.2967 30.1077C43.2967 29.5328 43.2967 29.0028 43.2967 28.435C43.8552 28.435 44.4146 28.3931 44.9631 28.4489C45.3857 28.4918 45.6005 28.8853 45.5645 29.3525C45.5316 29.7749 45.2498 30.0817 44.8212 30.1027C44.3277 30.1246 43.8332 30.1077 43.2967 30.1077Z" fill="white"/>
<path fill-rule="evenodd" clip-rule="evenodd" d="M43.3067 25.9981C43.8092 25.9981 44.2897 25.9792 44.7673 26.0041C45.1949 26.025 45.4606 26.3189 45.4826 26.7263C45.5076 27.1816 45.3068 27.4934 44.8442 27.5422C44.3447 27.595 43.8362 27.5542 43.3057 27.5542C43.3067 27.0541 43.3067 26.554 43.3067 25.9981Z" fill="white"/>
<path fill-rule="evenodd" clip-rule="evenodd" d="M128.201 1.80393C128.246 1.77603 128.292 1.74814 128.338 1.72124C128.557 1.99122 128.776 2.2612 128.996 2.53018C129.032 2.50129 129.068 2.4724 129.104 2.4445C128.984 2.21537 128.864 1.98524 128.743 1.75213C129.009 1.53993 129.209 1.31578 129.014 0.96411C128.86 0.685166 128.53 0.623398 128.015 0.774824C127.904 1.74017 127.959 2.35185 128.201 2.49232C128.201 2.25124 128.201 2.02708 128.201 1.80393Z" fill="white"/>
<path fill-rule="evenodd" clip-rule="evenodd" d="M128.201 1.8037C128.201 2.02686 128.201 2.25101 128.201 2.4911C127.96 2.35063 127.904 1.73895 128.015 0.773606C128.53 0.62218 128.86 0.684944 129.014 0.962891C129.208 1.31456 129.008 1.53871 128.743 1.7509C128.864 1.98402 128.984 2.21316 129.104 2.44328C129.068 2.47218 129.032 2.50106 128.996 2.52896C128.776 2.25898 128.557 1.989 128.338 1.72002C128.291 1.74792 128.245 1.77581 128.201 1.8037ZM128.223 1.59549C128.45 1.50583 128.638 1.45104 128.799 1.35242C128.844 1.32552 128.842 1.10137 128.797 1.07546C128.634 0.980823 128.443 0.931011 128.223 0.848324C128.223 1.13524 128.223 1.31555 128.223 1.59549Z" fill="#8C9FB2"/>
</svg>
