<svg width="101" height="59" viewBox="0 0 101 59" fill="none" xmlns="http://www.w3.org/2000/svg">
<path fill-rule="evenodd" clip-rule="evenodd" d="M40.8864 22.9567C40.8864 26.9214 40.8864 30.6909 40.8864 34.5554C38.7657 34.5536 36.761 34.2161 34.8705 33.4381C28.7551 30.9202 25.0062 26.3502 24.0289 19.782C22.6622 10.6036 28.8338 2.00507 37.9936 0.411654C38.3892 0.342754 38.8012 0.344499 39.1855 0.241585C40.3454 -0.0680271 41.2621 0.334904 42.222 0.999481C47.2754 4.49417 52.3685 7.93044 57.4487 11.3841C57.5863 11.4775 57.7395 11.5481 58.0079 11.6981C58.0079 7.8127 58.0079 4.03019 58.0079 0C59.4837 0.236352 60.8652 0.317463 62.1645 0.688125C69.5047 2.78041 73.9063 7.70193 74.9311 15.2626C76.1646 24.3538 69.9505 32.6366 61.1716 34.23C60.551 34.3425 59.9286 34.4446 59.3045 34.5301C58.5454 34.6338 57.885 34.4978 57.2063 34.0312C52.0526 30.4781 46.8668 26.9712 41.6888 23.4529C41.4802 23.3108 41.2612 23.1887 40.8864 22.9567ZM40.9115 4.56569C40.9115 9.05027 40.9297 13.3203 40.8933 17.5903C40.8873 18.2942 41.1305 18.6875 41.6853 19.0608C45.6792 21.747 49.6549 24.4594 53.6375 27.1648C55.0553 28.1276 56.474 29.0887 58.0235 30.1397C58.0235 29.735 58.0235 29.5117 58.0235 29.2876C58.0235 25.1902 58.0079 21.0929 58.039 16.9955C58.0442 16.3536 57.8045 16.0152 57.2981 15.676C53.6808 13.2488 50.0851 10.7885 46.4807 8.34034C44.6751 7.11411 42.8677 5.89223 40.9115 4.56569ZM37.2327 4.39562C32.5775 5.46488 27.4541 10.4666 27.4697 17.3871C27.4844 24.0233 32.3248 29.1847 37.2327 30.3019C37.2327 21.6807 37.2327 13.0691 37.2327 4.39562ZM61.7239 30.335C66.8638 28.9614 72.0435 23.7268 71.39 15.9995C70.8542 9.66688 65.8138 5.28172 61.7239 4.41743C61.7239 13.0421 61.7239 21.6563 61.7239 30.335Z" fill="#8C9FB2"/>
<path fill-rule="evenodd" clip-rule="evenodd" d="M49.6168 52.8038C50.5724 51.3404 51.6128 49.9214 52.4559 48.3951C53.0004 47.4087 53.6522 47.1209 54.7203 47.1802C56.4498 47.2771 56.455 47.209 56.4558 48.9298C56.4567 52.1201 56.4558 55.3104 56.4558 58.5679C55.3167 58.5679 54.2391 58.5679 53.0454 58.5679C53.0454 56.7678 53.0454 54.9415 53.0454 53.1152C52.9831 53.0995 52.9199 53.0847 52.8567 53.069C51.8699 54.5769 50.8399 56.0587 49.9154 57.605C49.448 58.3856 48.9477 58.799 48.0007 58.6472C47.387 58.5487 46.7456 58.6289 46.0895 58.6289C46.0895 54.808 46.0895 51.0508 46.0895 47.2483C47.1931 47.2483 48.2465 47.2483 49.4229 47.2483C49.4229 49.1033 49.4229 50.9313 49.4229 52.7568C49.4878 52.7725 49.5519 52.7882 49.6168 52.8038Z" fill="#8C9FB2"/>
<path fill-rule="evenodd" clip-rule="evenodd" d="M0 47.2432C1.17461 47.2432 2.28777 47.2432 3.49008 47.2432C3.49008 48.6264 3.49008 49.9756 3.49008 51.3981C4.56515 51.3981 5.55366 51.3981 6.66508 51.3981C6.66508 50.0506 6.66508 48.6796 6.66508 47.2589C7.92366 47.2589 9.06192 47.2589 10.2755 47.2589C10.2755 51.044 10.2755 54.7933 10.2755 58.5898C9.09914 58.5898 7.95742 58.5898 6.72308 58.5898C6.72308 57.3051 6.72308 56.0144 6.72308 54.6512C5.64455 54.6512 4.65517 54.6512 3.57231 54.6512C3.57231 55.9202 3.57231 57.2118 3.57231 58.5689C2.34749 58.5689 1.21097 58.5689 0 58.5689C0 54.8404 0 51.0858 0 47.2432Z" fill="#8C9FB2"/>
<path fill-rule="evenodd" clip-rule="evenodd" d="M40.7644 54.6149C39.6287 54.6149 38.6549 54.6149 37.5357 54.6149C37.5357 55.3065 37.5357 55.9624 37.5357 56.6165C37.5357 57.2523 37.5357 57.8855 37.5357 58.5788C36.3429 58.5788 35.2332 58.5788 34.0526 58.5788C34.0526 54.8225 34.0526 51.0653 34.0526 47.2549C35.1882 47.2549 36.2979 47.2549 37.5219 47.2549C37.5219 48.6521 37.5219 50.0021 37.5219 51.4115C38.6238 51.4115 39.614 51.4115 40.7072 51.4115C40.7072 50.0335 40.7072 48.6808 40.7072 47.2688C41.9485 47.2688 43.0894 47.2688 44.3047 47.2688C44.3047 51.0147 44.3047 54.7693 44.3047 58.5815C43.1526 58.5815 42.0143 58.5815 40.7644 58.5815C40.7644 57.2924 40.7644 56.0017 40.7644 54.6149Z" fill="#8C9FB2"/>
<path fill-rule="evenodd" clip-rule="evenodd" d="M22.084 52.9672C22.0216 53.8018 22.0086 54.6452 21.8857 55.4711C21.6685 56.9293 20.8704 58.0003 19.4898 58.5096C17.7343 59.1585 15.9131 59.1568 14.1664 58.5402C12.6922 58.0186 11.8206 56.8299 11.7011 55.2609C11.5877 53.7634 11.5566 52.2407 11.6916 50.7467C11.8743 48.7233 13.2679 47.3244 15.2535 47.0898C16.3035 46.965 17.3942 46.965 18.4424 47.0967C20.5709 47.3662 21.9472 49.0128 22.0242 51.2194C22.0441 51.8002 22.0268 52.3811 22.0268 52.9619C22.0459 52.9637 22.0649 52.9654 22.084 52.9672ZM15.2986 52.9262C15.2986 53.5358 15.2986 54.1454 15.2986 54.7559C15.2986 54.7847 15.2986 54.8135 15.3003 54.8431C15.3366 55.6525 15.8551 56.1767 16.6549 56.2124C17.6218 56.2534 18.2736 55.8156 18.3074 54.967C18.361 53.6335 18.3576 52.2947 18.3065 50.9603C18.2745 50.1187 17.6322 49.6914 16.6575 49.7324C15.8257 49.7681 15.3314 50.2522 15.3037 51.0947C15.2838 51.7052 15.2994 52.3148 15.2986 52.9262Z" fill="#8C9FB2"/>
<path fill-rule="evenodd" clip-rule="evenodd" d="M78.5225 55.8023C80.2087 55.5162 80.6267 55.0609 80.6596 53.3716C80.6934 51.6578 80.6683 49.9423 80.6683 48.2277C80.6683 47.9181 80.6683 47.6058 80.6683 47.25C83.7671 47.25 86.7525 47.25 89.8064 47.25C89.8064 51.0229 89.8064 54.7548 89.8064 58.5644C88.6499 58.5644 87.4857 58.5644 86.2185 58.5644C86.2185 55.8267 86.2185 53.0794 86.2185 50.2668C85.4741 50.2668 84.8301 50.2668 84.0753 50.2668C84.0753 51.3892 84.1315 52.4916 84.0571 53.5835C83.9948 54.5019 83.8805 55.4421 83.6087 56.3142C83.1534 57.7812 81.9225 58.6019 80.4025 58.6272C79.801 58.6376 79.1985 58.6289 78.5216 58.6289C78.5225 57.6748 78.5225 56.7651 78.5225 55.8023Z" fill="#8C9FB2"/>
<path fill-rule="evenodd" clip-rule="evenodd" d="M68.7395 58.6308C67.4247 58.6308 66.2708 58.6614 65.1213 58.6073C64.8556 58.5951 64.4946 58.3535 64.3631 58.1136C63.8489 57.1752 63.3771 56.2089 62.9547 55.226C62.6994 54.6329 62.3566 54.4288 61.7083 54.6774C61.7083 55.9376 61.7083 57.2118 61.7083 58.5611C60.499 58.5611 59.3417 58.5611 58.1282 58.5611C58.1282 54.8082 58.1282 51.0728 58.1282 47.2711C59.2863 47.2711 60.4246 47.2711 61.6537 47.2711C61.6537 48.6596 61.6537 50.0376 61.6537 51.4103C62.3566 51.6842 62.7219 51.501 62.9738 50.8565C63.3849 49.8073 63.8498 48.7764 64.3423 47.763C64.4574 47.5267 64.7664 47.2432 64.9993 47.2319C66.1116 47.176 67.229 47.2066 68.492 47.2066C67.635 48.9151 66.8542 50.5164 66.0276 52.0923C65.7454 52.6287 65.7186 53.0596 66.0311 53.6116C66.9443 55.2155 67.7917 56.8595 68.7395 58.6308Z" fill="#8C9FB2"/>
<path fill-rule="evenodd" clip-rule="evenodd" d="M23.3615 47.2096C25.2 47.2096 27.0334 47.1912 28.8658 47.2218C29.3436 47.2305 29.8318 47.3447 30.2941 47.4843C32.1135 48.0311 32.9471 49.1571 32.9462 51.0374C32.9462 51.7325 33.0233 52.4581 32.8554 53.114C32.4529 54.6882 31.2973 55.5072 29.76 55.7444C28.8606 55.8822 27.9379 55.8674 26.9373 55.9267C26.9373 56.8093 26.9373 57.6657 26.9373 58.5789C25.7107 58.5789 24.5742 58.5789 23.3615 58.5789C23.3615 54.8356 23.3615 51.0845 23.3615 47.2096ZM26.9633 50.0214C26.9633 51.1255 26.9633 52.0639 26.9633 53.0617C27.8011 52.9849 28.7862 53.455 29.2363 52.493C29.4795 51.9732 29.4804 51.156 29.2441 50.631C28.7983 49.6385 27.796 50.1818 26.9633 50.0214Z" fill="#8C9FB2"/>
<path fill-rule="evenodd" clip-rule="evenodd" d="M69.5142 58.5986C69.5142 54.776 69.5142 51.0388 69.5142 47.252C72.1699 47.252 74.7805 47.252 77.4595 47.252C77.4595 48.2279 77.4595 49.1646 77.4595 50.1771C75.9993 50.1771 74.5953 50.1771 73.1289 50.1771C73.1289 50.6673 73.1289 51.085 73.1289 51.6101C74.4524 51.6101 75.7647 51.6101 77.1427 51.6101C77.1427 52.538 77.1427 53.3631 77.1427 54.2797C75.795 54.2797 74.4845 54.2797 73.1212 54.2797C73.1212 54.789 73.1212 55.2059 73.1212 55.6987C74.6758 55.6987 76.1932 55.6987 77.8006 55.6987C77.8006 56.7017 77.8006 57.634 77.8006 58.5995C75.0488 58.5986 72.3196 58.5986 69.5142 58.5986Z" fill="#8C9FB2"/>
<path fill-rule="evenodd" clip-rule="evenodd" d="M91.329 58.6305C91.329 54.8114 91.329 51.083 91.329 47.2193C92.4101 47.2193 93.4895 47.1975 94.5663 47.2499C94.6927 47.2551 94.8892 47.6641 94.9004 47.8935C94.9402 48.7535 94.9169 49.6178 94.9169 50.6364C95.8344 50.6364 96.6619 50.5919 97.4842 50.6451C99.1141 50.7524 100.529 51.8016 100.838 53.2904C101.421 56.1013 100.501 58.4657 96.9709 58.6166C95.1099 58.6951 93.2445 58.6305 91.329 58.6305ZM94.9602 55.8711C95.8474 55.8711 96.7589 56.1589 97.228 55.2902C97.4271 54.9222 97.3899 54.2253 97.1648 53.8625C96.6394 53.0156 95.753 53.4351 94.9602 53.4194C94.9602 54.2532 94.9602 55.0163 94.9602 55.8711Z" fill="#8C9FB2"/>
</svg>
