<svg width="102" height="108" viewBox="0 0 102 108" fill="none" xmlns="http://www.w3.org/2000/svg">
<path fill-rule="evenodd" clip-rule="evenodd" d="M50.8426 70.3546C49.6395 69.1502 48.6258 68.1536 47.6452 67.1263C47.5559 67.0308 47.6061 66.6578 47.7214 66.5435C49.3587 64.9094 51.0281 63.3072 52.6685 61.6791C54.6457 59.7149 56.5959 57.7238 58.5681 55.7585C59.7903 54.5382 61.0406 53.3498 62.2649 52.1344C64.3454 50.0687 66.452 48.0269 68.4823 45.9145C71.367 42.9139 73.1206 39.2898 74.0922 35.2957C74.8953 31.9958 74.9094 28.659 74.3489 25.3064C73.6109 20.8866 71.7279 16.986 68.9045 13.5359C66.9723 11.1738 64.6021 9.30806 61.8919 7.85602C59.29 6.46166 56.5588 5.40147 53.632 5.0494C51.6458 4.80971 49.6034 4.77987 47.6051 4.92408C44.3986 5.15383 41.3525 6.09268 38.524 7.63623C36.4626 8.76007 34.5425 10.1127 32.9182 11.7974C30.95 13.8382 29.3497 16.1386 28.2067 18.7623C27.2963 20.8518 26.5513 22.9762 26.2285 25.2209C25.4985 30.31 26.1924 35.1942 28.4163 39.8706C29.5212 42.1919 30.9078 44.2914 32.7006 46.1383C33.0134 46.4605 33.2851 46.8364 33.5107 47.2243C34.1705 48.3621 33.8627 49.6242 32.7688 50.4079C31.8704 51.0504 30.6191 50.9121 29.7889 49.9593C28.7291 48.742 27.6773 47.5048 26.7579 46.183C25.7422 44.723 24.7897 43.2043 23.9725 41.628C22.7553 39.2818 22.0705 36.7447 21.6283 34.145C21.0477 30.7426 21.0116 27.3343 21.5942 23.9359C22.1587 20.642 23.1754 17.4674 24.9731 14.6359C26.3067 12.5354 27.8237 10.5274 29.446 8.63475C30.7915 7.06635 32.5151 5.86891 34.2667 4.72915C36.0394 3.57647 37.9074 2.63065 39.8786 1.89767C42.8154 0.806645 45.8394 0.113444 48.9977 0.0189613C51.3089 -0.0496627 53.606 0.0478027 55.8308 0.648511C57.79 1.17662 59.7332 1.80915 61.6142 2.56402C63.1512 3.18163 64.6221 3.98821 66.0569 4.82364C67.0415 5.39749 67.984 6.0887 68.8202 6.86048C70.1818 8.11759 71.5094 9.42542 72.7296 10.8168C74.3749 12.6915 75.6072 14.8427 76.679 17.0934C78.0376 19.9478 78.8478 22.9453 79.2208 26.0633C79.685 29.9271 79.4283 33.7452 78.3986 37.5095C77.4461 40.9974 75.913 44.2228 73.6871 47.0652C72.2974 48.8385 70.6561 50.4168 69.112 52.0678C68.2878 52.9509 67.4536 53.8261 66.5823 54.6606C65.6508 55.5537 64.6512 56.3782 63.7177 57.2673C62.5446 58.3862 61.4066 59.5398 60.2576 60.6806C58.1881 62.7353 56.1176 64.7911 54.0511 66.8478C53.1157 67.7787 52.1812 68.7086 51.2627 69.6544C51.0963 69.8185 51.0131 70.0592 50.8426 70.3546Z" fill="#8C9FB2"/>
<path fill-rule="evenodd" clip-rule="evenodd" d="M50.3252 27.1901C52.3807 23.4685 54.3729 19.8593 56.4575 16.085C56.7372 16.8468 56.9478 17.4555 57.1854 18.0532C58.6282 21.6982 60.06 25.3482 61.5309 28.9813C62.2979 30.8739 63.1542 32.7318 63.9333 34.6194C64.1117 35.052 64.3433 35.1963 64.7975 35.1933C66.3115 35.1843 66.3115 35.1982 66.3216 36.705C66.3306 38.0725 66.3306 38.0805 64.98 38.0795C61.8969 38.0775 58.8137 38.0536 55.7305 38.0695C55.2071 38.0715 55.0347 37.9183 55.0728 37.4062C55.1159 36.8492 55.1159 36.2853 55.0828 35.7274C55.0547 35.2539 55.2533 35.1157 55.6914 35.1555C55.9822 35.1813 56.278 35.1605 56.6961 35.1605C56.1406 33.606 55.6343 32.1858 55.1289 30.7665C55.0577 30.7506 54.9866 30.7337 54.9164 30.7178C53.4375 33.1942 51.9606 35.6707 50.4405 38.2187C48.8774 35.6806 47.3564 33.2082 45.7401 30.5835C45.1214 32.1858 44.58 33.5881 43.9754 35.1515C44.4968 35.1515 44.9009 35.1048 45.2839 35.1724C45.4593 35.2022 45.716 35.4479 45.726 35.609C45.7712 36.2724 45.727 36.9427 45.7361 37.61C45.7401 37.9532 45.5867 38.0466 45.2598 38.0466C41.8508 38.0476 38.4407 38.0576 35.0327 38.0745C34.6607 38.0765 34.4662 37.982 34.4803 37.5683C34.5023 36.9009 34.5003 36.2326 34.4803 35.5652C34.4692 35.2171 34.6297 35.1008 34.9465 35.1137C34.9686 35.1137 34.9906 35.1157 35.0117 35.1157C36.663 35.0908 36.649 35.0859 37.2536 33.4876C39.3712 27.8903 41.5008 22.2969 43.6275 16.7026C43.6876 16.5474 43.7699 16.4012 43.9463 16.0303C46.1121 19.8165 48.1906 23.4546 50.3252 27.1901Z" fill="#8C9FB2"/>
<path fill-rule="evenodd" clip-rule="evenodd" d="M9.53526 81.8988C9.43098 82.5203 9.31869 83.1419 9.22243 83.7675C9.03895 84.956 8.84744 86.1475 8.69504 87.3399C8.62084 87.9208 8.35814 88.1734 7.75956 88.1266C7.31237 88.0918 6.85917 88.1207 6.30872 88.1207C6.4541 87.2992 6.58846 86.5493 6.7188 85.7974C7.171 83.1907 7.61618 80.582 8.0774 77.9772C8.24484 77.0354 8.38421 76.917 9.33072 77.0563C9.57436 77.0911 9.87716 77.3726 9.97943 77.6142C10.7826 79.4949 11.5426 81.3945 12.3196 83.2862C12.4139 83.5149 12.5302 83.7347 12.7167 84.1295C12.9423 83.6263 13.1077 83.2881 13.2471 82.943C13.962 81.1638 14.71 79.3985 15.3617 77.5973C15.6224 76.8763 16.1177 77.0394 16.614 77.0364C17.1354 77.0344 17.0883 77.4601 17.1444 77.7763C17.7029 80.9132 18.2513 84.051 18.7988 87.1878C18.8459 87.4573 18.869 87.7338 18.9151 88.1008C18.2914 88.1008 17.731 88.1396 17.1815 88.0779C17.0211 88.06 16.7945 87.7766 16.7644 87.5886C16.4917 85.8909 16.2561 84.1852 16.0064 82.4835C15.9803 82.3006 15.9332 82.1245 15.853 81.7396C15.6234 82.1474 15.469 82.3692 15.3657 82.6118C14.6348 84.3344 13.9229 86.0679 13.1799 87.7845C13.0997 87.9715 12.83 88.245 12.7187 88.2161C12.5172 88.1634 12.2976 87.9426 12.2103 87.7388C11.4493 85.9575 10.7174 84.1643 9.97041 82.3791C9.89922 82.2061 9.78291 82.0549 9.68766 81.8938C9.63753 81.8948 9.58539 81.8968 9.53526 81.8988Z" fill="#8C9FB2"/>
<path fill-rule="evenodd" clip-rule="evenodd" d="M6.07105 100.326C6.46309 99.4087 6.79396 98.628 7.13086 97.8493C7.73746 96.451 8.36011 95.0576 8.95168 93.6513C9.23242 92.9849 9.79892 93.2495 10.2441 93.2704C10.3925 93.2783 10.601 93.6901 10.6472 93.9407C11.2417 97.179 11.8052 100.423 12.3968 103.66C12.475 104.084 12.4159 104.237 11.9416 104.243C10.3313 104.261 10.3243 104.278 10.1057 102.695C9.92024 101.352 9.75581 100.008 9.57433 98.6678C9.54726 98.4619 9.47707 98.26 9.42694 98.0581C9.36678 98.0373 9.30662 98.0174 9.24746 97.9975C8.91358 98.6439 8.54961 99.2755 8.25383 99.9378C7.65926 101.277 7.1108 102.632 6.52024 103.971C6.43802 104.156 6.22345 104.281 6.06905 104.435C5.9006 104.268 5.66097 104.13 5.57373 103.93C4.79166 102.112 4.03767 100.282 3.27164 98.458C3.20948 98.3128 3.11523 98.1785 2.88161 98.0462C2.74023 98.817 2.5778 99.5828 2.4635 100.358C2.30207 101.462 2.15869 102.574 2.04339 103.685C2.00128 104.095 1.82982 104.219 1.42976 104.244C-0.135381 104.349 -0.131371 104.361 0.131325 102.846C0.648695 99.8563 1.16105 96.8667 1.67541 93.8771C1.73056 93.5588 1.72655 93.1968 2.20381 93.2187C2.63094 93.2395 3.08314 93.0675 3.32578 93.6871C4.1239 95.7329 4.98016 97.7528 5.81538 99.7827C5.86751 99.916 5.93469 100.04 6.07105 100.326Z" fill="#8C9FB2"/>
<path fill-rule="evenodd" clip-rule="evenodd" d="M30.2621 98.0528C30.4727 97.9305 30.589 97.8996 30.6501 97.8241C31.9987 96.1164 35.0999 97.471 35.5632 99.2552C35.9933 100.9 35.9672 102.418 34.6598 103.678C33.4546 104.84 31.9115 104.838 30.6612 103.721C30.603 103.668 30.5198 103.643 30.3213 103.538C30.3213 104.261 30.3153 104.891 30.3233 105.521C30.3313 106.165 30.3453 106.813 30.3714 107.457C30.3874 107.844 30.225 107.975 29.832 107.987C28.5025 108.03 28.4884 108.044 28.4704 106.75C28.4293 103.782 28.4132 100.814 28.3661 97.8479C28.3591 97.3994 28.4984 97.1975 28.9547 97.2422C29.0188 97.2482 29.084 97.2403 29.1502 97.2422C29.6916 97.2542 30.3824 97.0175 30.2621 98.0528ZM30.1709 100.652C30.0435 102.058 31.0803 102.675 31.9646 102.738C32.9522 102.806 33.7925 101.938 33.8466 100.896C33.9048 99.7833 33.0816 98.8375 32.0188 98.7947C30.962 98.75 30.22 99.4959 30.1709 100.652Z" fill="#8C9FB2"/>
<path fill-rule="evenodd" clip-rule="evenodd" d="M76.8855 100.266C76.1075 101.318 75.2292 102.312 74.5804 103.438C74.021 104.41 73.2218 104.351 72.3656 104.296C72.2332 104.286 72.0177 103.986 72.0136 103.815C71.9585 101.859 71.9455 99.9004 71.9013 97.9431C71.8913 97.4985 72.0407 97.3374 72.5049 97.3563C73.9327 97.413 73.8054 97.0848 73.8395 98.6612C73.8585 99.5433 73.8605 100.425 73.8746 101.307C73.8756 101.334 73.9317 101.359 74.034 101.451C74.2265 101.22 74.4391 100.992 74.6195 100.742C75.2993 99.7959 75.9691 98.8422 76.6409 97.8904C76.9457 97.4588 78.4236 97.1156 78.8297 97.407C78.9239 97.4747 78.962 97.6676 78.965 97.8029C79.0082 99.784 79.0352 101.763 79.0783 103.745C79.0874 104.12 78.951 104.271 78.56 104.31C77.1232 104.45 77.1151 104.45 77.1282 103.018C77.1372 102.123 77.1302 101.225 77.1302 100.33C77.05 100.309 76.9678 100.288 76.8855 100.266Z" fill="#8C9FB2"/>
<path fill-rule="evenodd" clip-rule="evenodd" d="M41.2492 104.526C39.1106 104.722 37.0932 103.169 37.0371 100.925C36.9849 98.8792 38.1149 97.2929 40.7198 97.081C42.5677 96.9298 44.6803 98.0288 44.8086 100.719C44.8959 102.563 43.4932 104.503 41.2492 104.526ZM39.0434 100.758C39.0093 101.826 39.8124 102.644 40.9454 102.698C41.9531 102.745 42.8274 101.873 42.8384 100.813C42.8485 99.7404 42.0092 98.8463 40.9554 98.8115C39.9107 98.7747 39.0795 99.6221 39.0434 100.758Z" fill="#8C9FB2"/>
<path fill-rule="evenodd" clip-rule="evenodd" d="M20.1553 84.4984C20.2045 82.4098 21.905 80.8772 24.1399 80.9518C26.0189 81.0135 28.1906 82.378 28.1164 84.7898C28.0633 86.5482 26.2615 88.3314 24.1208 88.3095C21.5129 88.2817 20.1984 86.388 20.1553 84.4984ZM25.9928 84.753C26.0138 83.6182 25.2037 82.739 24.1048 82.7022C23.0089 82.6654 22.1616 83.485 22.1516 84.5919C22.1416 85.6173 23.057 86.5601 24.0747 86.571C25.0583 86.582 25.9747 85.7137 25.9928 84.753Z" fill="#8C9FB2"/>
<path fill-rule="evenodd" clip-rule="evenodd" d="M58.3735 104.505C56.0634 104.615 54.4291 102.483 54.5454 100.651C54.6958 98.2483 56.3321 97.1334 58.3846 97.0946C60.7117 97.0499 62.3601 98.7615 62.2989 100.931C62.2388 103.109 60.6205 104.583 58.3735 104.505ZM56.5547 100.785C56.5728 101.879 57.414 102.705 58.5069 102.695C59.4785 102.689 60.2966 101.846 60.3006 100.848C60.3036 99.7332 59.4043 98.7734 58.3896 98.8082C57.3789 98.842 56.5377 99.7481 56.5547 100.785Z" fill="#8C9FB2"/>
<path fill-rule="evenodd" clip-rule="evenodd" d="M89.2593 84.0968C88.7148 84.8119 88.1654 85.521 87.6279 86.2391C87.3312 86.6369 87.0574 87.0506 86.7697 87.4554C86.2814 88.1406 85.5354 88.4191 84.7152 88.1586C84.5688 88.1118 84.4144 87.8204 84.4114 87.6404C84.3773 85.706 84.3793 83.7706 84.3523 81.8342C84.3463 81.4244 84.5067 81.2335 84.9128 81.2325C84.9779 81.2325 85.0431 81.2206 85.1073 81.2186C86.2553 81.1718 86.2663 81.1798 86.2683 82.3106C86.2714 83.2276 86.2693 84.1426 86.2693 85.2614C86.5431 85.0088 86.6734 84.9173 86.7667 84.797C87.5548 83.7716 88.3388 82.7422 89.1199 81.7099C89.4046 81.3349 90.8244 81.0276 91.1874 81.3081C91.3097 81.4016 91.3658 81.6442 91.3689 81.8193C91.3999 83.7328 91.406 85.6463 91.44 87.5588C91.4481 88.0362 91.2706 88.1904 90.7913 88.1884C89.5089 88.1824 89.5079 88.2023 89.5039 86.9104C89.5009 85.9934 89.5029 85.0784 89.5029 84.1615C89.4217 84.1396 89.3405 84.1187 89.2593 84.0968Z" fill="#8C9FB2"/>
<path fill-rule="evenodd" clip-rule="evenodd" d="M77.3648 85.25C77.7167 84.8283 78.0847 84.4185 78.4156 83.9839C78.938 83.2967 79.4333 82.5915 79.9406 81.8954C80.3457 81.3414 81.4597 81.0022 82.0703 81.2837C82.1976 81.3424 82.3039 81.589 82.3079 81.7502C82.343 83.7293 82.3691 85.7085 82.359 87.6886C82.358 87.8517 82.0953 88.1332 81.9239 88.159C80.6164 88.349 80.4991 88.2485 80.468 86.9447C80.447 86.0088 80.464 85.0739 80.464 84.1401C80.3898 84.1152 80.3146 84.0913 80.2384 84.0665C79.9928 84.3758 79.7351 84.6741 79.5025 84.9934C78.8518 85.8795 78.2131 86.7726 77.5674 87.6628C77.2485 88.1014 75.9471 88.3888 75.5089 88.0944C75.3946 88.0168 75.3164 87.809 75.3144 87.6588C75.2953 85.6796 75.2973 83.7005 75.2813 81.7223C75.2783 81.3553 75.4267 81.2479 75.7826 81.237C77.1492 81.1862 77.1502 81.1753 77.1543 82.507C77.1573 83.4021 77.1553 84.2962 77.1553 85.1893C77.2254 85.2092 77.2956 85.2281 77.3648 85.25Z" fill="#8C9FB2"/>
<path fill-rule="evenodd" clip-rule="evenodd" d="M43.7578 84.6187C43.9042 82.9638 44.7294 81.8141 46.2925 81.2909C48.0081 80.7181 49.6554 80.8285 50.8807 82.2626C52.7075 84.3969 51.5735 87.5049 49.1992 88.0897C47.1628 88.5929 45.3691 88.0549 44.4527 86.5282C44.1107 85.9564 43.9834 85.2592 43.7578 84.6187ZM47.9539 82.7281C46.835 82.7181 45.8674 83.5675 45.8433 84.5789C45.8223 85.5058 46.8801 86.5392 47.8777 86.562C48.8754 86.5849 49.8219 85.6938 49.8329 84.7201C49.8449 83.649 48.9846 82.736 47.9539 82.7281Z" fill="#8C9FB2"/>
<path fill-rule="evenodd" clip-rule="evenodd" d="M15.7667 101.179C15.7557 101.937 16.1076 102.522 16.6972 102.771C17.355 103.046 18.1631 102.883 18.6785 102.371C19.0514 102 20.0902 101.918 20.4532 102.279C20.5474 102.373 20.5274 102.679 20.4481 102.831C19.7002 104.257 17.6347 104.908 16.0946 104.313C13.0064 103.123 13.212 99.1325 15.0529 97.7262C16.8235 96.3746 19.8145 97.1414 20.4923 99.2509C21.0407 100.959 20.9254 101.114 19.1808 101.1C18.118 101.092 17.0562 101.112 15.9943 101.121C15.9312 101.122 15.87 101.152 15.7667 101.179ZM15.8921 99.779C16.8677 99.779 17.8392 99.779 18.8188 99.779C18.7166 98.9067 18.0979 98.3846 17.2757 98.4314C16.4907 98.4731 15.9312 99.0002 15.8921 99.779Z" fill="#8C9FB2"/>
<path fill-rule="evenodd" clip-rule="evenodd" d="M93.7322 102.383C93.2679 103.69 92.3094 104.249 91.1393 104.498C88.9395 104.963 86.6294 103.538 86.6243 100.83C86.6183 97.8585 89.0869 96.5566 91.7639 97.4248C93.0002 97.8266 94.0179 99.7073 93.7251 100.902C93.6961 101.022 93.4083 101.154 93.2389 101.156C91.9374 101.174 90.637 101.158 89.3345 101.154C88.5895 101.152 88.4903 101.302 88.7901 101.988C89.2352 103.011 90.645 103.408 91.4511 102.592C92.2402 101.796 92.925 102.344 93.7322 102.383ZM91.8031 99.8635C91.7369 99.0768 91.0831 98.5447 90.283 98.5696C89.4047 98.5944 88.8081 99.0957 88.8041 99.8635C89.8028 99.8635 90.8014 99.8635 91.8031 99.8635Z" fill="#8C9FB2"/>
<path fill-rule="evenodd" clip-rule="evenodd" d="M46.3507 104.287C46.3507 102.747 46.3437 101.31 46.3537 99.8706C46.3587 99.1833 46.4018 98.4951 46.4109 97.8079C46.4169 97.4061 46.5743 97.2579 47.0034 97.2638C48.8032 97.2867 50.604 97.2817 52.4047 97.2678C52.7868 97.2658 53.0124 97.3146 53.0114 97.781C53.0053 99.7622 53.0204 101.741 53.0545 103.721C53.0625 104.198 52.9251 104.353 52.4248 104.333C51.1915 104.282 51.1765 104.31 51.1394 103.076C51.1053 101.914 51.0913 100.753 51.0913 99.5911C51.0913 99.1505 50.987 98.8979 50.4686 98.9426C49.9944 98.9814 49.5151 98.9655 49.0378 98.9506C48.5726 98.9367 48.3761 99.1137 48.3901 99.599C48.4312 100.953 48.4202 102.309 48.4613 103.665C48.4763 104.142 48.3189 104.331 47.8296 104.296C47.3664 104.262 46.8972 104.287 46.3507 104.287Z" fill="#8C9FB2"/>
<path fill-rule="evenodd" clip-rule="evenodd" d="M99.9756 99.8485C99.9756 99.2229 100.002 98.6282 99.9666 98.0384C99.9355 97.4984 100.095 97.2338 100.691 97.2746C101.958 97.3601 101.901 96.9892 101.912 98.483C101.925 100.204 101.95 101.925 101.999 103.646C102.014 104.17 101.861 104.371 101.298 104.349C100.053 104.3 100.052 104.328 100.058 103.118C100.066 101.558 100.066 101.558 98.4817 101.526C96.9998 101.501 97.3186 101.478 97.2805 102.663C97.2765 102.793 97.2725 102.922 97.2715 103.052C97.2615 104.377 97.0268 104.569 95.6743 104.287C95.5319 104.258 95.3384 104.014 95.3354 103.865C95.2932 101.844 95.2892 99.8216 95.2551 97.7987C95.2491 97.4158 95.4396 97.3015 95.7615 97.2935C96.1285 97.2855 96.5034 97.2567 96.8604 97.3223C96.9927 97.3452 97.1622 97.5998 97.1752 97.7609C97.2214 98.2741 97.2153 98.7943 97.2033 99.3094C97.1953 99.6864 97.3276 99.8634 97.7307 99.8535C98.4406 99.8356 99.1515 99.8485 99.9756 99.8485Z" fill="#8C9FB2"/>
<path fill-rule="evenodd" clip-rule="evenodd" d="M57.8241 84.4006C58.7956 84.867 59.1806 85.5662 58.9661 86.5797C58.8036 87.3465 58.3504 87.8755 57.6055 87.9432C56.3171 88.0595 55.0146 88.0496 53.7182 88.0556C53.6059 88.0576 53.3953 87.786 53.3913 87.6359C53.3442 85.6607 53.3281 83.6845 53.2981 81.7093C53.2921 81.3503 53.4615 81.2141 53.8154 81.222C54.8111 81.2449 55.8077 81.2379 56.8034 81.2648C58.3484 81.3055 59.0363 83.0261 58.0877 83.9879C58.0005 84.0764 57.9494 84.2007 57.8241 84.4006ZM56.0183 86.5936C56.0263 86.5667 56.0353 86.5389 56.0433 86.514C56.1296 86.514 56.2168 86.514 56.303 86.514C56.7081 86.5061 57.0991 86.3718 57.0971 85.9372C57.0951 85.6806 56.8515 85.2479 56.6489 85.2052C56.2168 85.1117 55.7085 85.1415 55.3014 85.2987C55.176 85.3474 55.1981 85.9959 55.3064 86.3201C55.3565 86.4712 55.7696 86.5061 56.0183 86.5936ZM55.8819 82.7228C55.3816 82.5965 55.162 82.8083 55.171 83.42C55.179 84.0475 55.5761 83.952 55.9531 83.958C56.4183 83.964 56.8876 83.8586 56.8956 83.3225C56.9076 82.7596 56.4354 82.687 55.8819 82.7228Z" fill="#8C9FB2"/>
<path fill-rule="evenodd" clip-rule="evenodd" d="M68.1575 104.294C68.1575 102.703 68.1364 101.245 68.1685 99.7855C68.1806 99.2206 68.0472 98.9779 67.4165 99.0028C66.2164 99.0475 66.2334 99.0127 66.2514 100.215C66.2625 100.943 66.2595 101.68 66.1662 102.4C66.0018 103.672 64.8217 104.528 63.5513 104.354C63.2605 104.316 63.0008 104.222 63.045 103.83C63.076 103.555 63.0279 103.263 63.0941 102.997C63.1332 102.834 63.3137 102.589 63.442 102.581C64.201 102.536 64.3825 102.039 64.3905 101.435C64.4056 100.337 64.4106 99.2405 64.3624 98.1445C64.3364 97.5309 64.5429 97.3111 65.1676 97.327C66.6194 97.3598 68.0733 97.3469 69.5271 97.329C69.873 97.325 69.9853 97.4493 69.9893 97.7755C70.0134 99.7765 70.0475 101.777 70.0826 103.778C70.0896 104.116 69.9723 104.308 69.5973 104.298C69.1652 104.284 68.736 104.294 68.1575 104.294Z" fill="#8C9FB2"/>
<path fill-rule="evenodd" clip-rule="evenodd" d="M74.2746 87.9952C73.1817 88.4109 71.8953 88.1176 71.2306 87.311C70.7633 86.7461 70.3222 86.1593 69.8509 85.5974C69.7547 85.481 69.5772 85.4343 69.4368 85.3567C69.3606 85.5009 69.2223 85.6421 69.2172 85.7883C69.1942 86.3691 69.1952 86.9519 69.2212 87.5308C69.2393 87.9236 69.1531 88.1275 68.6918 88.1195C66.9934 88.0947 67.3102 88.2339 67.2901 86.8256C67.2661 85.1468 67.2921 83.469 67.2691 81.7922C67.2631 81.3357 67.4245 81.1955 67.8757 81.2034C69.2042 81.2263 69.2032 81.2114 69.1842 82.5302C69.1791 82.8892 69.1832 83.2472 69.1832 83.8141C69.5702 83.4641 69.8188 83.2532 70.0515 83.0255C70.3603 82.7221 70.7052 82.4426 70.9498 82.0926C71.7058 81.0125 72.7757 81.1875 74.047 81.2731C73.644 81.7097 73.3562 82.0369 73.0524 82.3472C72.538 82.8733 72.0257 83.3984 71.4923 83.9046C71.1945 84.1881 71.1945 84.3979 71.4792 84.7112C72.3535 85.665 73.1948 86.6476 74.044 87.6272C74.1343 87.7337 74.1954 87.8669 74.2746 87.9952Z" fill="#8C9FB2"/>
<path fill-rule="evenodd" clip-rule="evenodd" d="M42.9086 81.4231C42.2478 82.0606 41.5911 82.6991 40.9263 83.3326C39.9628 84.2536 39.9728 84.2416 40.8642 85.2481C41.6332 86.1163 42.3722 87.0094 43.1332 87.9016C42.1556 88.3779 40.8211 88.0975 40.2135 87.3267C39.7853 86.7847 39.3602 86.2387 38.911 85.7145C38.7847 85.5673 38.5821 85.4838 38.4127 85.3684C38.3345 85.5763 38.1991 85.7822 38.1861 85.994C38.156 86.5112 38.164 87.0293 38.1921 87.5445C38.2122 87.9215 38.0999 88.1025 37.6888 88.0985C35.9672 88.0826 36.3222 88.2347 36.3011 86.8165C36.277 85.1805 36.2861 83.5434 36.246 81.9074C36.2329 81.3693 36.4124 81.2003 36.9578 81.2232C38.3225 81.2798 38.1279 81.0779 38.163 82.4644C38.1741 82.8582 38.165 83.255 38.165 83.6509C38.2292 83.6717 38.2944 83.6956 38.3585 83.7165C38.7365 83.3167 39.1115 82.9119 39.4946 82.5161C39.8535 82.1431 40.2054 81.7582 40.5965 81.4201C40.7388 81.2958 40.9805 81.243 41.18 81.2351C41.7154 81.2102 42.2539 81.2251 42.7913 81.2251C42.8314 81.2928 42.8695 81.3584 42.9086 81.4231Z" fill="#8C9FB2"/>
<path fill-rule="evenodd" clip-rule="evenodd" d="M65.8152 86.0504C65.8152 86.6213 65.8623 87.1166 65.7921 87.595C65.7651 87.7829 65.5024 88.0266 65.2998 88.0883C63.5662 88.6054 61.5539 88.0375 60.7959 86.7048C59.8213 84.9872 60.09 82.9345 61.5188 81.7092C62.3921 80.9613 64.5288 80.7286 65.4783 81.2975C65.6086 81.375 65.747 81.5521 65.756 81.6913C65.7911 82.1538 65.7701 82.6222 65.7701 83.1543C64.4957 82.7366 63.2394 82.2512 62.3621 83.6476C61.9028 84.3756 62.0923 85.4129 62.6638 85.9888C63.3457 86.676 64.3824 86.7207 65.8152 86.0504Z" fill="#8C9FB2"/>
<path fill-rule="evenodd" clip-rule="evenodd" d="M34.6748 83.1436C33.3021 82.5608 32.1902 82.6563 31.6528 83.3764C31.1003 84.1183 31.1254 85.1188 31.7129 85.8319C32.3887 86.6554 33.3503 86.7449 34.756 86.0557C34.756 86.6445 34.782 87.1845 34.7359 87.7186C34.7259 87.8449 34.4913 87.9961 34.3298 88.0567C32.9933 88.556 31.1975 88.189 30.3503 87.2621C29.3296 86.1472 29.114 84.35 29.6625 82.9805C30.3202 81.3415 32.2253 80.6752 33.8165 81.0551C34.7038 81.2699 34.9304 81.8129 34.6748 83.1436Z" fill="#8C9FB2"/>
<path fill-rule="evenodd" clip-rule="evenodd" d="M81.953 101.641C81.953 100.951 81.9349 100.261 81.96 99.574C81.974 99.1782 81.8196 99.0151 81.4326 99.0459C81.3453 99.0539 81.2581 99.0559 81.1709 99.0539C79.8333 99.0439 80.0198 99.3065 79.9867 97.8435C79.9777 97.4258 80.1742 97.3462 80.5442 97.3482C82.1725 97.3562 83.8018 97.3522 85.4302 97.3283C85.7951 97.3224 85.9606 97.4427 85.9525 97.8007C85.9515 97.8216 85.9546 97.8435 85.9566 97.8644C86.0618 99.0787 86.0388 99.1036 84.8236 99.0787C83.8199 99.0589 83.8089 99.0996 83.848 100.081C83.8961 101.307 83.8831 102.537 83.9101 103.764C83.9182 104.176 83.7648 104.329 83.3306 104.318C82.0271 104.283 82.0261 104.3 82.0161 102.999C82.0131 102.547 82.0161 102.094 82.0161 101.644C81.9951 101.643 81.974 101.641 81.953 101.641Z" fill="#8C9FB2"/>
<path fill-rule="evenodd" clip-rule="evenodd" d="M24.3966 97.2539C25.1115 97.2539 25.8294 97.2808 26.5433 97.242C26.9884 97.2191 27.207 97.3375 27.1739 97.8009C27.1619 97.972 27.1699 98.147 27.19 98.3161C27.2511 98.8213 27.0386 98.9904 26.5272 98.9944C25.2849 99.0023 25.2829 99.0252 25.298 100.292C25.31 101.409 25.311 102.528 25.3561 103.643C25.3732 104.077 25.2809 104.251 24.7997 104.268C23.431 104.317 23.42 104.34 23.3989 102.985C23.3809 101.887 23.3759 100.788 23.414 99.6916C23.435 99.1107 23.2104 98.8969 22.653 98.9745C22.6109 98.9805 22.5667 98.9785 22.5226 98.9785C21.4067 98.9725 21.4287 99.1863 21.4217 97.8556C21.4197 97.3643 21.5721 97.2111 22.0514 97.23C22.8324 97.2589 23.6145 97.238 24.3966 97.238C24.3966 97.242 24.3966 97.2479 24.3966 97.2539Z" fill="#8C9FB2"/>
<path fill-rule="evenodd" clip-rule="evenodd" d="M86.3797 77.792C87.4054 78.9616 87.9689 78.9884 89.0728 77.975C89.5069 77.5772 89.8148 78.0794 90.1637 78.2037C90.2309 78.2286 90.2559 78.6234 90.1707 78.7746C89.2864 80.3361 86.6714 80.4534 85.6136 78.9944C85.2366 78.4743 85.2807 78.2932 85.8613 78.0138C86.0327 77.9302 86.2132 77.8626 86.3797 77.792Z" fill="#8C9FB2"/>
</svg>
