<svg width="47" height="32" viewBox="0 0 47 32" fill="none" xmlns="http://www.w3.org/2000/svg">
<g clip-path="url(#clip0_2_4220)">
<path fill-rule="evenodd" clip-rule="evenodd" d="M38.0887 1.57021L9.38297 12.0182C8.64719 12.286 8.14381 12.9088 7.99152 13.6219L4.42282 21.275C3.91181 22.3708 4.38653 23.6751 5.4824 24.1861L13.3265 27.8439C13.874 28.1756 14.5613 28.266 15.2106 28.0297L43.9164 17.5816C45.0534 17.1678 45.6388 15.9108 45.2253 14.7747L40.896 2.88005C40.4818 1.74208 39.2257 1.15636 38.0887 1.57021ZM8.30821 23.1055C7.60344 23.362 6.82416 22.9986 6.56764 22.2938C6.31113 21.5891 6.67485 20.8107 7.37962 20.5542C8.08439 20.2977 8.86273 20.6614 9.11891 21.3652C9.37542 22.07 9.01204 22.8493 8.30821 23.1055Z" fill="#7E1210"/>
<path fill-rule="evenodd" clip-rule="evenodd" d="M37.8378 1.41894L9.13297 11.8666C8.39719 12.1344 7.89381 12.7571 7.74152 13.4702L4.17282 21.1233C3.66181 22.2192 4.13619 23.5226 5.2324 24.0345L13.0774 27.6919C13.6258 28.0233 14.3132 28.1137 14.9606 27.8781L43.6654 17.4304C44.8034 17.0162 45.3888 15.7592 44.9753 14.6231L40.6456 2.7275C40.2318 1.59047 38.9757 1.00475 37.8378 1.41894ZM8.05821 22.9539C7.35344 23.2104 6.5751 22.8466 6.31892 22.1428C6.06241 21.438 6.42579 20.6588 7.12962 20.4026C7.83439 20.1461 8.61367 20.5095 8.87019 21.2142C9.12636 21.9181 8.76298 22.6973 8.05821 22.9539Z" fill="#BE1622"/>
<path fill-rule="evenodd" clip-rule="evenodd" d="M7.35939 20.4287C6.65462 20.6852 6.29218 21.4642 6.54835 22.168C6.80486 22.8728 7.58415 23.2361 8.28798 22.98C8.99275 22.7235 9.35613 21.9442 9.09961 21.2394C8.84344 20.5356 8.06416 20.1722 7.35939 20.4287ZM8.16519 22.6426C7.64742 22.8311 7.07355 22.5643 6.88476 22.0455C6.69596 21.5268 6.96441 20.9545 7.48218 20.7661C8.00089 20.5773 8.57381 20.8444 8.76261 21.3631C8.9514 21.8818 8.6839 22.4538 8.16519 22.6426Z" fill="url(#paint0_linear_2_4220)"/>
<path fill-rule="evenodd" clip-rule="evenodd" d="M7.12929 20.4016C6.42452 20.6581 6.06207 21.4371 6.31859 22.1418C6.5751 22.8466 7.35404 23.209 8.05787 22.9529C8.76264 22.6964 9.12603 21.9171 8.86985 21.2132C8.61334 20.5085 7.83406 20.1451 7.12929 20.4016ZM7.93509 22.6155C7.41732 22.804 6.8438 22.5381 6.655 22.0194C6.4662 21.5007 6.73336 20.9277 7.25207 20.739C7.77078 20.5502 8.34371 20.8173 8.53251 21.336C8.72036 21.8551 8.4538 22.4267 7.93509 22.6155Z" fill="white"/>
<path d="M12.6767 20.7492L12.6878 22.9023L11.78 23.2327L11.8584 15.8198L12.8554 15.4569L17.5817 21.1211L16.6213 21.4706L15.2815 19.8011L12.6767 20.7492ZM14.6856 19.1433L12.679 16.6183L12.6611 16.6248L12.6653 19.8786L14.6856 19.1433Z" fill="white"/>
<path d="M18.0297 17.1536L20.0408 12.8406L21.2531 12.3994L19.4978 16.018L23.6981 18.8949L22.5573 19.3101L19.0868 16.871L18.4189 18.223L19.2527 20.5139L18.3723 20.8344L15.999 14.3139L16.8795 13.9934L18.0297 17.1536Z" fill="white"/>
<path d="M25.0299 17.5247L28.4334 16.2859L26.3447 10.5472L27.2252 10.2267L29.3139 15.9654L29.8871 15.7568L30.6847 17.9481L29.8775 18.2419L29.3645 16.8324L24.4339 18.627L22.0607 12.1064L22.9412 11.786L25.0299 17.5247Z" fill="white"/>
<path d="M31.4737 14.7216L31.5094 14.7086L32.8723 8.17019L33.8788 7.80388L36.252 14.3244L35.3715 14.6449L33.4555 9.38073L33.4377 9.38723L32.0403 15.8573L31.0245 16.2271L28.6512 9.70654L29.5317 9.38607L31.4737 14.7216Z" fill="white"/>
<path d="M42.5746 12.0243L41.6941 12.3447L40.6773 9.55104L39.2217 10.0808L38.4964 13.5086L37.3932 13.9102L38.2266 10.443C37.5158 10.5602 36.3178 10.5376 35.8048 9.12803C35.3048 7.7542 36.2236 6.95152 37.3005 6.55957L40.2023 5.50341L42.5746 12.0243ZM39.5961 6.57751L37.5128 7.33577C37.0712 7.49652 36.3651 7.84608 36.7311 8.85155C37.0646 9.76775 37.9063 9.70616 38.5528 9.47085L40.404 8.79707L39.5961 6.57751Z" fill="white"/>
</g>
<defs>
<linearGradient id="paint0_linear_2_4220" x1="7.58851" y1="23.0417" x2="8.06021" y2="20.3669" gradientUnits="userSpaceOnUse">
<stop/>
<stop offset="1" stop-color="#B2B2B2"/>
</linearGradient>
<clipPath id="clip0_2_4220">
<rect width="43" height="18" fill="white" transform="translate(0.218506 14.8962) rotate(-20)"/>
</clipPath>
</defs>
</svg>
