<svg width="24" height="24" viewBox="0 0 24 24" fill="none" xmlns="http://www.w3.org/2000/svg">
<g clip-path="url(#clip0_2_4232)">
<path d="M12.0158 23.4006C18.3038 23.4006 23.4013 18.3031 23.4013 12.0151C23.4013 5.72709 18.3038 0.629639 12.0158 0.629639C5.72776 0.629639 0.63031 5.72709 0.63031 12.0151C0.63031 18.3031 5.72776 23.4006 12.0158 23.4006Z" fill="#7E1210" stroke="#7E1210" stroke-miterlimit="10"/>
<path d="M11.5964 22.9819C17.8844 22.9819 22.9819 17.8844 22.9819 11.5964C22.9819 5.30839 17.8844 0.210938 11.5964 0.210938C5.30839 0.210938 0.210938 5.30839 0.210938 11.5964C0.210938 17.8844 5.30839 22.9819 11.5964 22.9819Z" fill="#BE1622"/>
<path d="M9.5476 16.49L8.34823 16.9264L5.33938 14.6754L4.42107 18.3563L3.25075 18.782L4.47602 14.1588L0.78949 11.5264L2.00907 11.0824L4.83665 13.1748L5.6577 9.75417L6.81728 9.33228L5.68549 13.7186L9.5476 16.49Z" fill="white"/>
<path d="M10.9661 14.4915L11.0059 14.4782L12.5103 7.25992L13.6213 6.85571L16.2411 14.0538L15.2691 14.4081L13.1545 8.59761L13.1343 8.60456L11.5907 15.7464L10.4703 16.1544L7.85052 8.95634L8.82252 8.60266L10.9661 14.4915Z" fill="white"/>
<path d="M20.5263 12.4952L19.5543 12.8489L17.2484 6.51287L14.8093 7.40087L14.4954 6.53813L20.3463 4.40845L20.6596 5.27118L18.221 6.15918L20.5263 12.4952Z" fill="white"/>
</g>
<defs>
<clipPath id="clip0_2_4232">
<rect width="24" height="24" fill="white"/>
</clipPath>
</defs>
</svg>
