<svg width="14" height="14" viewBox="0 0 14 14" fill="none" xmlns="http://www.w3.org/2000/svg">
<path fill-rule="evenodd" clip-rule="evenodd" d="M11.1938 8.95253C10.9793 8.83365 9.91906 8.26251 9.72095 8.18325C9.52148 8.10127 9.37666 8.05892 9.22227 8.27344C9.06788 8.4866 8.62658 8.96619 8.49406 9.1083C8.36016 9.2504 8.23174 9.2627 8.01587 9.14382C7.80137 9.02631 7.10185 8.76807 6.29029 7.98649C5.66045 7.38118 5.24647 6.64607 5.12624 6.42061C5.00601 6.19653 5.12624 6.08175 5.23964 5.97791C5.34348 5.88363 5.46917 5.72785 5.58394 5.60625C5.69733 5.48191 5.73832 5.39173 5.8162 5.24826C5.89544 5.10479 5.86265 4.97498 5.8121 4.86293C5.76155 4.75226 5.3626 3.65368 5.19592 3.20688C5.02787 2.76143 4.84343 2.82702 4.715 2.82292C4.58794 2.81882 4.44175 2.79422 4.29556 2.78876C4.148 2.78329 3.90754 2.82838 3.69987 3.04154C3.48947 3.25333 2.90335 3.76436 2.86236 4.84517C2.82274 5.92462 3.57008 6.9986 3.67391 7.1489C3.77912 7.2992 5.10165 9.64256 7.30132 10.6045C9.50098 11.5692 9.51328 11.2754 9.91633 11.2535C10.3207 11.2317 11.2361 10.7712 11.4383 10.2656C11.6405 9.7587 11.6569 9.32009 11.605 9.22581C11.5545 9.13153 11.4096 9.07141 11.1938 8.95253Z" fill="#AEC4CD"/>
<path d="M7.00069 14C3.14102 14 0 10.86 0 7C0 3.13995 3.13965 0 7.00069 0C10.8604 0 14 3.13995 14 7C14 10.86 10.859 14 7.00069 14ZM7.00069 0.341597C3.3282 0.341597 0.341563 3.32852 0.341563 7C0.341563 10.6715 3.3282 13.6584 7.00069 13.6584C10.6718 13.6584 13.6584 10.6701 13.6584 7C13.6584 3.32852 10.6718 0.341597 7.00069 0.341597Z" fill="#AEC4CD"/>
</svg>
