<svg width="12" height="9" viewBox="0 0 12 9" fill="none" xmlns="http://www.w3.org/2000/svg">
<path d="M10.5028 0H1.50301C0.674501 0 0 0.674367 0 1.50011V7.49989C0 8.32823 0.674501 9 1.50301 9H10.5028C11.3261 9 12 8.32888 12 7.49989V1.50011C11.9994 0.674367 11.3255 0 10.5028 0ZM8.03357 4.00527L11.2079 1.28442C11.2287 1.35393 11.2527 1.4241 11.2527 1.50011V7.49989C11.2527 7.55447 11.2319 7.59669 11.2222 7.64867L8.03357 4.00527ZM10.5028 0.752978C10.5483 0.752978 10.5945 0.771169 10.6393 0.782863L6.00552 4.7576L1.3607 0.783512C1.40943 0.771169 1.45492 0.752978 1.50301 0.752978H10.5028ZM0.783668 7.64542C0.771322 7.59734 0.750528 7.55447 0.750528 7.49989V1.50011C0.750528 1.4241 0.774571 1.35393 0.794065 1.28442L3.97033 4.00527L0.783668 7.64542ZM1.50301 8.24962C1.42893 8.24962 1.35745 8.22883 1.28467 8.20999L4.53761 4.49318L5.75535 5.53461C5.82878 5.59568 5.9165 5.62622 6.00487 5.62622C6.08675 5.62622 6.17447 5.59568 6.24465 5.53461L7.46304 4.49383L10.7153 8.21064C10.6458 8.22883 10.5789 8.25027 10.5028 8.25027L1.50301 8.24962Z" fill="#AEC4CD"/>
</svg>
