<svg width="82" height="106" viewBox="0 0 82 106" fill="none" xmlns="http://www.w3.org/2000/svg">
<path fill-rule="evenodd" clip-rule="evenodd" d="M67.3898 33.7932C67.3898 36.3763 67.3898 38.9604 67.3888 41.5435C67.3787 55.4806 56.1652 66.6742 42.1534 66.6902C38.1162 66.6951 34.0879 66.8843 30.1047 65.6954C19.5779 62.5566 12.0778 52.6694 12.1199 41.7546C12.1399 36.4182 12.2532 31.0787 12.0958 25.7473C11.775 14.8633 19.235 4.19439 30.4306 1.3783C38.6666 -0.693943 47.076 -0.816425 54.7415 3.72936C62.8853 8.55894 67.2213 15.7595 67.3757 25.2822C67.4218 28.1192 67.3827 30.9572 67.3827 33.7942C67.3847 33.7932 67.3857 33.7932 67.3898 33.7932ZM66.8524 33.5493C66.8524 30.7959 66.8634 28.0416 66.8504 25.2882C66.8063 15.5046 60.7047 6.55341 51.6346 2.77439C46.7211 0.727048 41.592 0.573696 36.4188 0.854509C23.0678 1.57944 12.7936 12.1368 12.6262 25.2862C12.556 30.7929 12.57 36.3016 12.6342 41.8074C12.7565 52.3129 19.62 61.5549 29.5914 64.9007C33.6026 66.248 37.7151 66.253 41.8577 66.2231C55.8504 66.1216 66.8243 55.1868 66.8534 41.3025C66.8584 38.7174 66.8534 36.1334 66.8524 33.5493Z" fill="#8C9FB2"/>
<path fill-rule="evenodd" clip-rule="evenodd" d="M76.8749 105.631C78.2234 105.397 78.1672 104.382 78.1652 103.393C78.1602 101.405 78.1632 99.4188 77.9426 97.3167C77.5406 97.9182 77.1326 98.5146 76.7386 99.1201C75.9055 100.397 75.0743 101.677 74.2502 102.961C73.384 104.312 73.5655 104.926 75.1555 105.621C73.1775 105.621 71.3498 105.621 69.5232 105.621C70.5197 105.44 70.7684 104.786 70.7613 103.879C70.7393 100.958 70.7914 98.0367 70.7202 95.117C70.7062 94.5663 70.2561 94.0286 70.0305 93.5377C71.3839 93.5377 73.1153 93.5377 74.6021 93.5377C74.3575 93.8852 73.8041 94.3064 73.7881 94.7496C73.6978 97.0568 73.746 99.368 73.746 101.679C73.8512 101.721 73.9575 101.763 74.0628 101.805C74.7906 100.702 75.5235 99.602 76.2423 98.4957C76.7957 97.6433 77.3622 96.7979 77.8624 95.9146C78.5211 94.7525 78.2775 94.0804 76.9912 93.5078C78.8179 93.5078 80.5493 93.5078 81.9549 93.5078C81.7042 93.9967 81.1929 94.5404 81.1789 95.0981C81.1007 98.0606 81.1007 101.026 81.1909 103.988C81.209 104.572 81.7463 105.14 82 105.631C80.5443 105.631 78.7096 105.631 76.8749 105.631Z" fill="#8C9FB2"/>
<path fill-rule="evenodd" clip-rule="evenodd" d="M54.937 93.4961C56.3075 93.4961 58.0078 93.4961 59.6049 93.4961C59.3112 93.9303 58.7557 94.3744 58.7377 94.8394C58.6445 97.1058 58.6956 99.3802 58.6956 101.651C58.8329 101.744 58.9683 101.838 59.1056 101.931C59.254 101.654 59.3853 101.367 59.5538 101.102C60.6506 99.3892 61.7724 97.6933 62.8482 95.9686C63.568 94.8175 63.2221 93.9701 61.6601 93.5409C63.7735 93.5409 65.5912 93.5409 67.4098 93.5409C66.1827 93.5638 66.0904 94.4182 66.0884 95.3184C66.0794 98.1544 66.0834 100.988 66.0804 103.824C66.0794 104.762 66.319 105.51 67.4499 105.627C65.5761 105.627 63.7013 105.627 61.8266 105.627C63.1349 105.39 63.1499 104.44 63.1369 103.42C63.1098 101.411 63.1289 99.4011 62.8492 97.3179C61.5188 99.4051 60.1473 101.465 58.877 103.586C58.3818 104.415 58.8801 105.113 60.2666 105.619C58.2033 105.619 56.3235 105.619 54.4427 105.619C55.6157 105.501 55.8042 104.625 55.8142 103.724C55.8453 100.846 55.8704 97.9672 55.7822 95.0933C55.7661 94.5427 55.2217 94.0099 54.937 93.4961Z" fill="#8C9FB2"/>
<path fill-rule="evenodd" clip-rule="evenodd" d="M66.1606 87.0898C67.5522 86.8976 67.5392 85.9018 67.5331 84.8801C67.5181 82.2542 67.5211 79.6293 67.5181 77.0054C67.5171 76.0285 67.5011 75.0626 66.1396 74.9053C68.0464 74.9053 69.9533 74.9053 71.8592 74.9053C70.3082 75.21 70.4827 76.391 70.4917 77.5192C70.5147 80.4956 70.5047 80.4976 73.5234 80.4757C73.9395 80.4737 74.3565 80.4369 74.8999 80.41C74.8999 78.9552 75.0062 77.5591 74.8418 76.1948C74.7836 75.7168 74.0568 75.3185 73.6567 74.9083C75.4413 74.9083 77.3963 74.9083 79.3533 74.9083C77.7752 75.1233 77.8925 76.2864 77.9006 77.4206C77.9186 79.8763 77.9066 82.3319 77.9086 84.7865C77.9096 85.8211 77.7762 86.9414 79.3162 87.0918C77.4083 87.0918 75.4994 87.0918 73.5906 87.0918C74.926 86.8418 74.9571 85.8629 74.926 84.8452C74.922 84.7178 74.919 84.5913 74.919 84.4649C74.9059 80.8571 74.9039 80.8422 71.2556 81.2743C70.9789 81.3062 70.5528 81.7384 70.5338 82.0072C70.4556 83.1873 70.3774 84.3932 70.5548 85.5523C70.6441 86.1338 71.2857 86.6297 71.6236 87.0898C69.9894 87.0898 68.0755 87.0898 66.1606 87.0898Z" fill="#8C9FB2"/>
<path fill-rule="evenodd" clip-rule="evenodd" d="M21.582 87.4008C17.663 87.3968 14.9661 84.7818 14.9962 81.0177C15.0263 77.2696 17.6761 74.6905 21.4978 74.6875C25.4308 74.6835 28.1618 77.2656 28.1608 80.9909C28.1608 84.7669 25.4539 87.4047 21.582 87.4008ZM18.0751 81.1572C18.3548 82.3949 18.5413 83.6934 18.9543 84.9143C19.3684 86.1371 20.3539 86.8302 21.6933 86.7983C22.9946 86.7664 23.8398 85.9768 24.2538 84.8316C25.1621 82.3252 25.117 79.771 24.2909 77.2576C23.8909 76.0358 22.9926 75.29 21.6161 75.2979C20.2526 75.3059 19.3142 76.0497 18.9122 77.2447C18.5032 78.4695 18.3578 79.78 18.0751 81.1572Z" fill="#8C9FB2"/>
<path fill-rule="evenodd" clip-rule="evenodd" d="M17.7152 105.941C13.8333 105.957 11.1043 103.34 11.0873 99.5862C11.0722 95.9635 13.7681 93.2888 17.4615 93.2629C21.3966 93.2341 24.1345 95.8022 24.1305 99.5165C24.1265 103.25 21.4547 105.924 17.7152 105.941ZM14.0839 99.5284C14.4328 100.935 14.6845 102.385 15.1667 103.758C15.5466 104.841 16.5161 105.369 17.6901 105.353C18.814 105.338 19.6892 104.79 20.1153 103.782C21.2692 101.058 21.2331 98.2747 20.2095 95.5224C19.8065 94.441 18.9102 93.8724 17.7312 93.8445C16.488 93.8166 15.5346 94.4191 15.1226 95.5264C14.6604 96.7711 14.4408 98.1065 14.0839 99.5284Z" fill="#8C9FB2"/>
<path fill-rule="evenodd" clip-rule="evenodd" d="M35.8263 79.8488C37.5747 82.3433 39.238 84.7182 40.8691 87.0434C39.3352 87.0434 37.5387 87.0434 35.6418 87.0434C36.7647 86.3573 36.2794 85.6413 35.719 84.8825C35.1215 84.0749 34.5791 83.2265 33.9395 82.2875C33.2257 83.1269 32.578 83.8439 31.9805 84.5997C30.8697 86.0018 30.9438 86.2896 32.6392 87.1051C31.1474 87.1051 29.7678 87.1051 28.3873 87.1051C30.4877 86.0436 31.4421 83.9285 32.9339 82.3243C33.1595 82.0824 33.3289 81.4749 33.1846 81.2578C31.9544 79.3778 30.6571 77.5445 29.3528 75.7153C29.1483 75.4295 28.8084 75.2373 28.3913 74.8838C30.4386 74.8838 32.3214 74.8838 34.2042 74.8838C32.7454 75.3199 33.2427 76.0728 33.8332 76.8734C34.3816 77.6162 34.8969 78.386 35.5225 79.2812C36.1351 78.5234 36.6925 77.8941 37.1797 77.2159C38.053 75.9971 37.9708 75.7053 36.4739 74.9087C37.9748 74.9087 39.2741 74.9087 40.3077 74.9087C38.872 76.494 37.3652 78.155 35.8263 79.8488Z" fill="#8C9FB2"/>
<path fill-rule="evenodd" clip-rule="evenodd" d="M47.0068 81.6765C47.0068 83.0467 46.8995 84.4448 47.064 85.81C47.1231 86.291 47.8459 86.6943 48.2279 87.0936C46.5186 87.0936 44.6488 87.0936 42.78 87.0936C44.1956 86.8467 44.1716 85.8081 44.1666 84.7605C44.1575 82.3069 44.1696 79.8522 44.1666 77.3966C44.1646 75.6062 44.1606 75.6062 42.8733 75.0286C45.0989 75.0286 47.5171 74.8902 49.9112 75.0734C51.799 75.2168 52.8647 76.5303 52.8748 78.1534C52.8858 79.6909 51.8321 80.9197 50.0666 81.2902C49.1182 81.4913 48.1387 81.5401 47.0068 81.6765ZM47.0038 80.7395C48.8776 80.9357 49.6345 80.3511 49.8581 78.7051C50.0987 76.9236 49.3919 75.7556 47.9572 75.5345C47.3507 75.4419 46.9797 75.5415 46.9948 76.2793C47.0259 77.7451 47.0038 79.2119 47.0038 80.7395Z" fill="#8C9FB2"/>
<path fill-rule="evenodd" clip-rule="evenodd" d="M0 93.3555C2.1565 93.476 4.54258 93.4939 6.89357 93.7827C8.49766 93.9778 9.46613 95.2445 9.50422 96.6276C9.54433 98.0646 8.60594 99.2715 6.97177 99.6937C5.95217 99.9576 4.88946 100.055 3.65732 100.257C3.65732 101.635 3.58514 103.145 3.71046 104.64C3.74053 105.005 4.41927 105.317 4.77317 105.63C3.14702 105.63 1.42564 105.63 0.0230614 105.63C0.270693 105.052 0.796029 104.366 0.821093 103.663C0.918341 100.874 0.90631 98.0775 0.821093 95.2863C0.803047 94.6739 0.320818 94.0754 0 93.3555ZM3.71447 99.373C4.77317 99.5104 5.59226 99.3332 6.14968 98.4828C6.70208 97.6374 6.68805 95.7294 6.11058 94.9696C5.51907 94.1919 4.71803 93.9778 3.71447 94.1153C3.71447 95.8808 3.71447 97.5507 3.71447 99.373Z" fill="#8C9FB2"/>
<path fill-rule="evenodd" clip-rule="evenodd" d="M55.6158 87.0753C54.2333 87.0753 53.0332 87.0753 51.8632 87.0753C54.3546 84.4663 55.0283 80.8875 56.6685 77.8065C57.1988 76.8107 57.6289 75.7631 58.2485 74.4258C59.235 76.6364 60.0892 78.5474 60.9414 80.4603C61.6131 81.9709 62.2487 83.4964 62.9675 84.9841C63.3194 85.7121 63.8237 86.3683 64.2688 87.0723C62.6156 87.0723 60.8531 87.0723 59.4014 87.0723C59.5949 86.668 60.1684 86.0297 60.027 85.6533C59.7032 84.791 59.7674 83.3869 58.1292 83.607C57.4174 83.7036 56.6635 83.5193 55.9627 83.6488C55.4714 83.7404 54.8338 84.0381 54.6132 84.4355C53.7711 85.954 53.9235 86.2817 55.6158 87.0753ZM57.1056 78.8073C56.4078 80.3627 55.8704 81.5616 55.298 82.8372C56.5993 82.8372 57.656 82.8372 58.8941 82.8372C58.2896 81.475 57.7683 80.3029 57.1056 78.8073Z" fill="#8C9FB2"/>
<path fill-rule="evenodd" clip-rule="evenodd" d="M3.16803 87.0645C4.36308 86.8643 4.47036 86.0199 4.46434 85.055C4.4483 82.3026 4.4483 79.5523 4.46434 76.7999C4.46935 75.838 4.2538 75.0941 3.09485 74.9238C6.57171 74.9238 10.0476 74.9238 13.6096 74.9238C13.6096 75.9485 13.6096 76.9264 13.6096 77.9032C13.5505 77.9182 13.4913 77.9341 13.4322 77.948C13.3139 77.6135 13.2838 77.1972 13.0602 76.9602C12.6241 76.4982 12.1329 75.8848 11.5745 75.7732C7.87102 75.0284 7.46699 75.3859 7.46398 79.0593C7.46198 81.0499 7.45195 83.0395 7.46198 85.0281C7.46799 86.3824 7.54419 86.477 9.00792 87.0645C6.90255 87.0645 5.03579 87.0645 3.16803 87.0645Z" fill="#8C9FB2"/>
<path fill-rule="evenodd" clip-rule="evenodd" d="M38.1312 93.7256C38.1312 94.6926 38.1312 95.8626 38.1312 97.2438C37.6299 96.4671 37.3001 95.8039 36.8309 95.2602C34.928 93.0595 31.4973 93.4767 30.2932 96.1096C29.1784 98.5453 29.2957 101.059 30.4566 103.448C31.406 105.401 34.2262 105.855 36.2384 104.483C36.7607 104.127 37.2339 103.703 37.7492 103.294C37.7352 104.175 37.1798 104.82 35.9787 105.385C33.5796 106.518 30.1779 105.989 28.2189 104.182C26.4424 102.542 25.9291 99.7611 26.9447 97.2657C27.9552 94.7812 30.3413 93.1909 33.1655 93.2507C34.121 93.2706 35.0664 93.6022 36.0258 93.7127C36.6835 93.7864 37.3572 93.7256 38.1312 93.7256Z" fill="#8C9FB2"/>
<path fill-rule="evenodd" clip-rule="evenodd" d="M51.9644 103.734C51.5724 104.114 51.2245 104.552 50.7844 104.866C47.1321 107.45 41.3694 105.365 40.5363 101.175C39.5448 96.1786 44.3139 91.9824 49.2575 93.4502C50.1167 93.7061 51.0942 94.6511 52.0627 93.2351C52.0627 94.6332 52.0627 95.853 52.0627 97.0051C51.4832 96.2603 50.9999 95.3671 50.2761 94.7626C48.2499 93.0728 45.2844 93.8226 44.2397 96.2284C43.2021 98.6173 43.3474 101.033 44.4031 103.358C45.3185 105.374 48.1697 105.875 50.2721 104.476C50.7603 104.15 51.2075 103.761 51.6717 103.403C51.7699 103.514 51.8672 103.622 51.9644 103.734Z" fill="#8C9FB2"/>
<path fill-rule="evenodd" clip-rule="evenodd" d="M55.8764 58.7446C55.8764 57.3425 55.8764 56.1037 55.8764 54.863C55.7962 54.8411 55.716 54.8192 55.6368 54.7973C54.8838 55.8777 54.2051 57.0199 53.3559 58.0177C52.5379 58.9826 51.5403 59.7971 50.622 60.6784C50.4896 60.5858 50.3563 60.4942 50.224 60.4016C50.4054 58.7555 50.5869 57.1095 50.7694 55.4654C48.5948 57.7289 46.9246 60.4285 43.5129 61.6005C43.8547 59.824 44.1445 58.3214 44.4122 56.9243C42.379 58.0137 40.441 59.2026 38.3768 60.1028C37.0755 60.6704 35.5957 60.8845 34.1721 61.1076C33.5164 61.2111 32.8026 60.9572 32.1158 60.8636C32.0837 60.7371 32.0526 60.6087 32.0206 60.4812C32.3965 60.1875 32.7735 59.8937 33.1504 59.6C38.1402 55.7124 40.8962 50.6627 40.9854 44.3265C41.0065 42.9035 40.5383 41.4726 40.2957 40.0456C40.1463 40.0486 39.9959 40.0526 39.8475 40.0556C39.1878 41.2824 38.5282 42.5102 37.9006 43.6803C37.1847 42.8657 36.6113 41.7922 36.2092 41.851C35.5065 41.9556 34.8548 42.7044 34.2823 43.2829C33.7189 43.8505 33.3239 44.5815 32.7785 45.17C31.022 47.064 28.6941 47.0022 27.097 44.9489C26.5486 44.2429 26.0413 44.0736 25.1861 44.1792C22.5224 44.5088 20.3087 43.2889 19.1889 40.9996C18.069 38.7093 18.466 36.2288 20.3979 34.3736C21.0606 33.7363 21.0516 33.2484 20.8651 32.4089C20.5223 30.8625 20.1974 29.2264 20.3528 27.6759C20.6606 24.6129 22.773 23.2636 25.8508 23.6679C27.2253 23.8481 28.4535 23.4876 29.5603 22.4152C30.215 21.7799 31.3689 21.4124 32.3213 21.3616C35.9376 21.1684 39.5618 21.1206 43.184 21.0808C47.4459 21.034 51.7097 21.0529 55.9726 21.043C56.2654 21.043 56.5571 21.043 57.2138 21.043C55.0904 23.3233 52.6151 24.5491 50.238 26.1105C51.8591 26.2022 53.4803 26.2938 55.1024 26.3844C55.1515 26.4929 55.2016 26.6015 55.2498 26.71C53.9053 27.3941 52.5609 28.0782 51.1273 28.8081C53.3078 30.5826 55.7861 30.2909 58.2594 29.8916C58.4189 31.4958 57.8664 31.9777 54.2081 33.5262C59.4084 39.7987 60.5753 46.9584 58.7517 54.6887C58.1612 57.2001 57.319 58.1332 55.8764 58.7446ZM46.2448 39.4253C46.4022 39.3177 46.5576 39.2112 46.715 39.1046C45.8288 36.7735 44.9425 34.4423 44.0562 32.1112C44.1455 32.0285 44.2347 31.9459 44.3239 31.8632C46.303 33.5869 48.283 35.3116 50.2621 37.0354C50.1728 36.1401 49.8941 35.3624 49.5863 34.5937C49.2665 33.7921 48.9196 33.0014 48.5557 32.1381C53.7991 32.2964 55.4453 32.0644 56.4839 31.0517C52.2982 31.0407 50.3523 30.2829 49.5091 28.2933C50.0054 28.1659 50.5027 28.0653 50.9819 27.905C51.408 27.7616 51.812 27.5515 52.2251 27.3702C52.185 27.2348 52.1449 27.0994 52.1038 26.9629C48.9337 27.2716 45.7395 27.4389 42.6005 27.9398C40.6957 28.2445 38.865 29.0422 37.0203 29.6705C36.4238 29.8736 35.9185 30.3068 36.3576 31.0268C37.7572 33.3231 39.1898 35.5984 40.6095 37.8818C40.6937 37.8559 40.7769 37.831 40.8611 37.8051C40.5242 36.2696 40.1874 34.7331 39.8515 33.1976C39.9257 33.1378 40.0009 33.0791 40.0781 33.0203C42.1333 35.1563 44.1896 37.2903 46.2448 39.4253ZM21.582 31.5993C21.993 31.1652 22.2166 30.9172 22.4522 30.6802C24.0192 29.0949 25.4939 28.9983 27.1542 30.4681C27.8149 31.0526 28.4114 31.7437 28.8966 32.4786C29.3357 33.1428 29.82 33.4346 30.63 33.5272C33.6417 33.8697 35.8664 35.4072 37.2469 38.1128C37.4113 38.4344 37.5988 38.7451 37.9196 39.3187C37.8835 38.8537 37.8975 38.6834 37.8544 38.528C37.1045 35.8235 35.4543 33.7015 33.4432 31.8114C31.1263 29.6337 28.8114 27.4539 26.5065 25.2631C25.4949 24.3012 23.6342 24.2823 22.6928 25.3388C21.1218 27.1033 20.829 29.1368 21.582 31.5993ZM53.4843 22.6691C53.4702 22.5625 53.4572 22.455 53.4422 22.3485C51.3819 22.3485 49.3227 22.3395 47.2614 22.3494C42.2807 22.3753 37.299 22.3943 32.3183 22.454C30.629 22.4749 30.0606 23.3851 30.8817 24.8469C31.425 25.8138 32.2301 26.6353 32.9189 27.5226C33.1083 27.1681 33.0883 26.9311 33.0552 26.6941C32.7675 24.6477 32.7815 24.4386 34.9009 24.4386C37.9958 24.4376 41.1037 24.6278 44.1826 24.9475C47.6233 25.305 50.5187 23.9228 53.4843 22.6691ZM21.969 33.1339C24.7721 32.2426 27.2624 32.6061 29.0801 35.001C30.8867 37.3819 30.615 39.8534 28.7402 42.572C31.387 40.6222 33.5194 38.4354 37.0063 39.5288C35.6558 37.0682 34.0798 35.1205 31.4621 34.7092C29.6295 34.4204 28.5557 33.5282 27.464 32.1679C25.5701 29.8069 23.3244 30.2431 21.969 33.1339ZM50.3302 33.2872C50.7553 34.9054 51.1995 36.2776 51.4631 37.6826C51.7859 39.4133 52.4506 40.9598 53.3088 42.4983C54.3254 44.3245 55.0713 46.2992 56.0458 48.4561C56.5381 44.0716 56.8148 39.9988 54.4778 36.2069C53.5143 34.6455 52.0386 33.9713 50.3302 33.2872ZM35.3851 59.579C38.449 58.9258 41.1729 57.7239 43.2933 55.4326C43.6262 55.0711 43.9359 54.5991 44.0372 54.1321C44.6748 51.2094 43.55 48.6154 42.411 45.628C41.5408 51.2881 39.9057 56.1476 35.3851 59.579ZM41.4827 35.8344C42.8532 41.0743 44.1896 46.1797 45.5861 51.5201C48.0234 46.6288 46.8835 40.3961 41.4827 35.8344ZM45.3646 58.9985C45.4799 59.0652 45.5962 59.1319 45.7125 59.1967C46.7521 57.7846 47.7777 56.3607 48.8354 54.9616C49.9603 53.4739 50.5297 51.8995 49.9833 50.0105C49.4911 48.3097 49.1242 46.574 48.675 44.8613C48.5437 44.3624 48.3241 43.8854 48.1467 43.3985C47.9482 43.9252 47.9993 44.3783 48.0514 44.8314C48.3592 47.4862 48.2479 50.1758 46.8734 52.4671C45.6152 54.5692 45.7776 56.8098 45.3646 58.9985ZM52.7153 43.6912C53.1805 46.821 53.2056 49.5435 51.9704 52.1385C51.8852 52.3168 51.9093 52.5547 51.9083 52.7649C51.9042 54.4856 51.9062 56.2053 51.9062 57.9051C55.8413 54.6489 56.2453 49.3075 52.7153 43.6912ZM51.3739 49.3632C53.0231 44.7627 50.5849 37.4705 46.5827 35.0936C48.1667 39.8116 49.8029 44.685 51.3739 49.3632ZM24.4533 41.2087C25.6574 41.1938 27.1672 39.7051 27.1903 38.5081C27.2133 37.2773 25.6433 35.7249 24.3971 35.7488C23.1058 35.7737 21.596 37.3251 21.6582 38.5599C21.7193 39.7549 23.2683 41.2227 24.4533 41.2087ZM27.6224 44.3694C28.4966 45.6888 29.7528 46.0473 31.032 45.1112C31.8702 44.4968 32.57 43.6713 33.2507 42.8717C34.2703 41.6757 35.2187 40.4191 37.1727 40.7975C36.6454 40.442 36.128 40.186 35.5857 40.1173C33.9595 39.9082 32.6 40.5565 31.3519 41.5333C30.1558 42.4704 28.9327 43.3756 27.6224 44.3694ZM57.6559 42.3708C57.5536 45.5255 57.7632 48.699 56.6203 51.7362C56.5932 51.8109 56.6072 51.9045 56.6173 51.9881C56.7897 53.3922 56.9641 54.7983 57.1657 56.4224C59.0675 51.6784 58.8429 47.0421 57.6559 42.3708ZM36.7947 33.9972C36.7897 34.0281 36.8429 33.9185 36.8108 33.8807C34.2112 30.8296 31.6226 27.7685 28.9688 24.7632C28.7322 24.4944 28.0815 24.586 27.6234 24.5103C27.5502 24.6647 27.476 24.818 27.4018 24.9724C30.5468 27.9936 33.6918 31.0148 36.7947 33.9972ZM35.6779 25.9363C35.5746 26.0498 35.4724 26.1633 35.3701 26.2768C35.9937 26.7887 36.5672 27.6231 37.2549 27.7287C38.0509 27.8522 39.0004 27.4359 39.7743 27.0436C40.0621 26.8982 40.045 26.1564 40.1663 25.6863C39.8084 25.8825 39.3713 26.006 39.1036 26.2878C38.086 27.3642 37.5787 27.432 36.4208 26.5198C36.1732 26.3266 35.9265 26.1315 35.6779 25.9363ZM20.829 39.7678C20.829 38.8138 20.829 38.1566 20.829 37.1459C20.0811 37.7623 19.6581 38.1108 19.1678 38.5151C19.7042 38.9184 20.1002 39.2171 20.829 39.7678ZM28.0264 39.8037C28.7653 39.2211 29.1884 38.8875 29.6676 38.5101C29.1733 38.0939 28.7623 37.7483 28.0264 37.129C28.0264 38.1337 28.0264 38.7969 28.0264 39.8037ZM25.4017 34.9422C25.4218 34.8008 25.4418 34.6604 25.4608 34.519C25.1521 34.1306 24.8443 33.7433 24.4533 33.2494C24.0523 33.7522 23.7014 34.1904 23.1028 34.9422C24.0914 34.9422 24.747 34.9422 25.4017 34.9422ZM20.7589 34.749C20.822 35.4023 20.8732 35.935 20.9263 36.4688C21.0416 36.5305 21.1579 36.5932 21.2742 36.655C21.7233 36.2039 22.1725 35.7518 22.8321 35.0886C21.9268 34.9402 21.4386 34.8606 20.7589 34.749ZM24.4483 43.744C24.8673 43.2043 25.1922 42.7841 25.7235 42.098C24.7701 42.098 24.1024 42.098 23.1409 42.098C23.7004 42.801 24.0081 43.1893 24.4483 43.744ZM27.9321 40.5575C27.8018 40.4738 27.6695 40.3892 27.5391 40.3045C27.1201 40.7636 26.7 41.2227 26.0403 41.9446C27.0439 42.0462 27.5652 42.098 28.1677 42.1577C28.0745 41.5264 28.0033 41.0424 27.9321 40.5575ZM20.7238 42.2005C21.4416 42.089 21.9349 42.0133 22.4271 41.9366C22.4933 41.8261 22.5595 41.7156 22.6256 41.605C22.1574 41.1828 21.6882 40.7606 21.22 40.3394C21.1108 40.4171 21.0015 40.4947 20.8922 40.5724C20.8431 41.0534 20.793 41.5353 20.7238 42.2005ZM26.4945 35.0209C26.4263 35.1523 26.3581 35.2838 26.289 35.4142C26.7572 35.8185 27.2243 36.2228 27.9101 36.8143C28.0144 35.9231 28.0735 35.4142 28.1477 34.7809C27.468 34.8805 26.9817 34.9502 26.4945 35.0209ZM44.3329 26.4312C44.3269 26.3565 44.3209 26.2838 44.3149 26.2091C43.5068 26.0637 42.7018 25.9184 41.8566 25.767C41.7624 26.1852 41.6922 26.4949 41.5869 26.96C42.5825 26.7678 43.4567 26.5995 44.3329 26.4312ZM35.7631 28.3939C35.2207 27.7128 34.7836 27.1651 34.3475 26.6174C34.2673 26.6552 34.1871 26.6921 34.1069 26.7289C34.3325 27.4837 34.558 28.2385 34.8237 29.1308C35.2488 28.7962 35.4994 28.6 35.7631 28.3939Z" fill="#8C9FB2"/>
<path fill-rule="evenodd" clip-rule="evenodd" d="M45.9471 20.3736C41.8708 20.3736 37.4595 20.3736 32.8578 20.3736C33.3721 18.374 32.2152 16.9371 31.4953 15.3419C29.9584 11.9363 31.6377 9.2068 35.3542 8.90707C36.1402 8.84334 36.5151 9.08532 36.6464 9.88991C36.9853 11.9711 37.3954 14.0404 38.038 16.1196C38.038 14.9057 38.038 13.6918 38.038 12.479C38.038 11.2581 38.038 10.0383 38.038 8.71289C39.1649 8.71289 40.1995 8.71289 41.3915 8.71289C41.3915 11.1307 41.3915 13.5494 41.3915 15.9702C41.4858 15.9772 41.58 15.9841 41.6733 15.9911C42.0512 13.9946 42.4783 12.006 42.7851 9.99746C42.9285 9.06142 43.3355 8.81546 44.2298 8.91603C48.0425 9.34323 49.5223 12.1175 47.867 15.7003C47.1963 17.1452 46.6509 18.6479 45.9471 20.3736ZM37.274 17.7278C36.7938 15.1128 36.3657 12.707 35.8835 10.3121C35.8394 10.0901 35.4544 9.80129 35.2048 9.7754C33.5877 9.61408 32.0818 10.7592 31.8041 12.3864C31.4482 14.4715 32.6102 16.021 33.7912 17.5376C33.8934 17.669 34.1681 17.7148 34.3646 17.7188C35.2509 17.7377 36.1361 17.7278 37.274 17.7278ZM42.2247 17.5455C45.1371 18.1709 45.8068 17.8762 47.0209 15.5082C47.2124 15.1327 47.4149 14.7553 47.5472 14.358C48.3122 12.0757 46.9938 9.99049 44.6218 9.8232C44.2819 9.7993 43.6563 10.1996 43.5911 10.4973C43.0839 12.7986 42.6798 15.1238 42.2247 17.5455ZM39.8707 18.5214V18.5174C38.1733 18.5174 36.473 18.4896 34.7757 18.5423C34.4589 18.5523 34.1521 18.8839 33.8403 19.0671C34.129 19.2752 34.4158 19.6606 34.7075 19.6636C38.0621 19.7044 41.4166 19.7034 44.7712 19.6606C45.0659 19.6566 45.3566 19.2812 45.6494 19.0781C45.3366 18.8928 45.0298 18.5583 44.71 18.5473C43.0989 18.4915 41.4848 18.5214 39.8707 18.5214ZM39.0816 9.5384C39.0816 12.3177 39.0816 14.9904 39.0816 17.6222C40.2496 17.9668 40.5564 17.5127 40.5303 16.5149C40.4792 14.5323 40.4612 12.5457 40.5213 10.5641C40.5554 9.43882 40.0611 9.26456 39.0816 9.5384Z" fill="#8C9FB2"/>
<path fill-rule="evenodd" clip-rule="evenodd" d="M39.3162 2.59766C39.9859 3.01987 40.7017 3.3903 41.2942 3.90214C41.4396 4.02661 41.2571 4.89893 41.0997 4.93975C39.9257 5.23949 40.4792 5.95048 40.5644 6.61069C40.6165 7.01299 40.5804 7.56167 40.3388 7.82257C40.1493 8.02969 39.4465 8.06355 39.227 7.87734C38.9553 7.6493 38.7909 7.0817 38.862 6.71326C39.0034 5.9694 39.4896 5.23252 38.2946 4.88698C38.2274 4.86806 38.2946 4.04454 38.463 3.66813C38.5893 3.38632 38.9813 3.22002 39.254 3.00294C39.2741 2.86751 39.2951 2.73209 39.3162 2.59766Z" fill="#8C9FB2"/>
</svg>
