<svg width="100" height="25" viewBox="0 0 100 25" fill="none" xmlns="http://www.w3.org/2000/svg">
<path fill-rule="evenodd" clip-rule="evenodd" d="M35.9445 23.6577C34.3578 17.731 32.7739 11.8167 31.1915 5.90249C31.1804 5.90387 31.1693 5.90387 31.1583 5.90387C31.1583 11.8167 31.1583 17.7268 31.1583 23.6591C28.9069 23.6591 26.6831 23.6591 24.4455 23.6591C24.4455 16.2313 24.4455 8.80491 24.4455 1.36468C28.3983 1.36468 32.3261 1.36468 36.2858 1.36468C37.4509 5.71832 38.6188 10.0816 39.7977 14.4865C40.9766 10.0858 42.1417 5.72801 43.3137 1.35222C43.4326 1.35222 43.5293 1.35222 43.6247 1.35222C47.3688 1.35222 51.1129 1.35499 54.8555 1.34668C55.1292 1.34668 55.1983 1.42284 55.1969 1.69148C55.19 8.90877 55.19 16.1274 55.1983 23.3461C55.1983 23.6189 55.1209 23.6895 54.8555 23.6854C52.8211 23.6743 50.7881 23.6798 48.755 23.6798C48.6693 23.6798 48.5809 23.6798 48.4606 23.6798C48.4606 17.7268 48.4606 11.7932 48.4606 5.85817C48.444 5.85678 48.4261 5.8554 48.4081 5.85402C46.8256 11.7807 45.2417 17.7102 43.6523 23.6577C41.0927 23.6577 38.5262 23.6577 35.9445 23.6577Z" fill="#8C9FB2"/>
<path fill-rule="evenodd" clip-rule="evenodd" d="M17.8709 15.0806C17.8681 16.1857 17.7645 17.2755 17.4618 18.3362C17.0886 19.6337 16.5565 20.8536 15.6955 21.9241C14.9727 22.82 14.1241 23.5511 13.1041 24.0676C12.3287 24.4623 11.5078 24.7171 10.6412 24.8625C9.8769 24.9927 9.11676 25.0176 8.35246 24.9899C7.38639 24.9525 6.44242 24.7628 5.53577 24.4097C4.38311 23.9596 3.36451 23.3019 2.53941 22.3727C1.82072 21.564 1.27757 20.6529 0.864322 19.6461C0.534004 18.8444 0.359858 18.0121 0.178805 17.1785C0.13596 16.9805 0.0986448 16.7797 0.0903523 16.5789C0.0544181 15.8603 -0.0395612 15.136 0.0184864 14.4257C0.102794 13.401 0.246532 12.3735 0.467665 11.3681C0.699856 10.313 1.00806 9.26611 1.37293 8.24832C1.82211 6.99097 2.38876 5.77794 3.15029 4.67014C3.57459 4.05116 3.95743 3.40033 4.42596 2.81735C5.02716 2.06682 5.7265 1.40907 6.52258 0.852399C7.04915 0.484057 7.62134 0.222342 8.23084 0.0810978C9.00342 -0.0975342 9.76495 0.0270953 10.4864 0.374666C11.1802 0.709774 11.8091 1.13766 12.366 1.67079C13.4607 2.71488 14.3369 3.92376 15.0915 5.23512C15.9097 6.65725 16.5551 8.15278 17.0057 9.72585C17.2932 10.7312 17.524 11.7559 17.6995 12.7861C17.8225 13.5408 17.817 14.3149 17.8709 15.0806Z" fill="#8C9FB2"/>
<path fill-rule="evenodd" clip-rule="evenodd" d="M100 17.5855C100 19.6294 100 21.6345 100 23.6798C99.8853 23.6798 99.7706 23.6798 99.6573 23.6798C96.3154 23.6798 92.9721 23.6923 89.6289 23.6715C88.7678 23.6673 87.8985 23.6203 87.0526 23.4804C86.0244 23.3128 85.0058 23.0636 84.001 22.7783C82.8262 22.446 81.7288 21.9156 80.7282 21.2094C79.5479 20.373 78.5501 19.376 77.8189 18.0993C77.3435 17.2698 76.9828 16.4044 76.7464 15.4904C76.5847 14.8576 76.5267 14.1943 76.452 13.5435C76.4023 13.1101 76.3719 12.6683 76.3885 12.2335C76.4313 11.1686 76.5571 10.1162 76.8667 9.08737C77.2094 7.95742 77.7167 6.9161 78.4201 5.97724C79.2604 4.85421 80.3329 3.99705 81.5464 3.29498C82.8262 2.55553 84.2 2.09164 85.6277 1.78146C86.2552 1.64437 86.9034 1.58067 87.5461 1.52113C91.6536 1.14171 95.7736 1.44774 99.8853 1.35219C99.9143 1.3508 99.942 1.35912 99.9917 1.36604C99.9917 3.37807 99.9917 5.3901 99.9917 7.44922C99.8798 7.44922 99.7582 7.44922 99.6338 7.44922C96.126 7.44922 92.6155 7.40213 89.1078 7.47137C87.564 7.50184 86.0603 7.89788 84.8261 8.9212C84.1378 9.49172 83.7038 10.2589 83.5104 11.1326C83.2519 12.2834 83.2713 13.4369 83.7163 14.5377C84.0632 15.3935 84.6727 16.0513 85.4757 16.5359C86.1156 16.9236 86.8053 17.1757 87.5281 17.2989C88.3352 17.4374 89.1548 17.562 89.9716 17.5703C93.1877 17.6008 96.4025 17.5828 99.6186 17.5828C99.7333 17.5855 99.8494 17.5855 100 17.5855Z" fill="#8C9FB2"/>
<path fill-rule="evenodd" clip-rule="evenodd" d="M75.971 1.36816C75.971 3.39543 75.971 5.40608 75.971 7.44719C73.9145 7.44719 71.8759 7.44719 69.8055 7.44719C69.8055 12.8643 69.8055 18.2537 69.8055 23.6612C67.55 23.6612 65.3276 23.6612 63.0693 23.6612C63.0693 18.2648 63.0693 12.8754 63.0693 7.46104C60.9947 7.46104 58.9562 7.46104 56.89 7.46104C56.89 5.41716 56.89 3.3982 56.89 1.36955C63.2572 1.36816 69.6065 1.36816 75.971 1.36816Z" fill="#8C9FB2"/>
</svg>
