<svg width="96" height="89" viewBox="0 0 96 89" fill="none" xmlns="http://www.w3.org/2000/svg">
<path fill-rule="evenodd" clip-rule="evenodd" d="M55.1815 18.6629C55.1815 15.4 56.4972 12.4644 58.5985 10.4064C55.7099 4.24201 49.6906 0 42.7306 0C32.9592 0 25.0378 8.35539 25.0378 18.662C25.0378 28.9687 32.9592 37.3241 42.7306 37.3241C49.6906 37.3241 55.7099 33.083 58.5985 26.9177C56.4972 24.8623 55.1815 21.9249 55.1815 18.6629Z" fill="#8C9FB2"/>
<path d="M15.6695 55.373V44.9141H17.3427V48.8446H17.8189L20.5797 44.9141H22.5109L19.2872 49.4474L22.8369 55.3721H20.8244L18.0089 50.494H17.3427V55.3721H15.6695V55.373Z" fill="#8C9FB2"/>
<path d="M27.0809 55.3734C26.9855 55.201 26.9175 54.928 26.9175 54.6699C26.9175 54.641 26.9175 54.6262 26.9175 54.5982C26.7134 54.8563 26.1419 55.7033 24.9996 55.7033C23.9659 55.7033 23.1903 54.9858 23.1903 53.451C23.1903 51.0404 24.7814 51.2417 26.5085 50.4953C26.7674 50.3807 26.9034 50.0657 26.9034 49.7209C26.9034 49.2047 26.618 48.7741 25.9511 48.7741C25.0129 48.7741 24.8768 49.5923 24.8494 50.1794H23.3803C23.3803 47.7259 25.0535 47.4678 25.8831 47.4678C27.4202 47.4678 28.3858 48.1564 28.3858 49.9353V54.1817C28.3858 54.5264 28.5352 54.8703 28.7392 55.1004V55.3734H27.0809ZM26.9042 51.5715C26.4281 51.8577 25.8565 52.016 25.4625 52.1307C25.0411 52.2462 24.7549 52.7327 24.7549 53.1212C24.7549 53.5377 24.905 54.2114 25.5305 54.2114C26.3327 54.2114 26.9042 53.7092 26.9042 52.303V51.5715Z" fill="#8C9FB2"/>
<path d="M32.1272 55.7024C30.3859 55.7024 29.4618 54.067 29.4618 51.6564C29.4618 48.7295 30.7128 47.4678 32.4266 47.4678C34.3579 47.4678 34.9153 49.4182 34.9153 50.4944H33.4196C33.1882 49.2615 32.7261 49.0743 32.2499 49.0743C31.5971 49.0743 31.067 49.8347 31.067 51.6135C31.067 53.3355 31.5158 54.1817 32.2914 54.1817C32.7402 54.1817 33.1749 53.9813 33.4205 52.6618H34.9162C34.6839 54.3969 33.9638 55.7024 32.1272 55.7024Z" fill="#8C9FB2"/>
<path d="M39.8255 55.3728V49.1463H37.5542V55.3728H36.0037V47.5967H41.3892V55.3728H39.8255Z" fill="#8C9FB2"/>
<path d="M46.6262 55.3728V50.4667L44.3549 55.3728H42.8044V47.5967H44.3549V52.5028L46.6262 47.5967H48.1908V55.3728H46.6262Z" fill="#8C9FB2"/>
<path d="M53.427 55.3731V50.4669L51.1565 55.3731H49.606V47.5969H51.1565V52.5031L53.427 47.5969H54.9915V55.3731H53.427ZM52.2988 46.7937C51.1565 46.7937 49.9602 46.3203 49.9602 44.915H51.4153C51.4153 45.4453 51.8641 45.6754 52.2988 45.6754C52.7617 45.6754 53.1822 45.4742 53.1822 44.915H54.6373C54.6373 46.3343 53.4684 46.7937 52.2988 46.7937Z" fill="#8C9FB2"/>
<path d="M58.7311 55.7024C56.9907 55.7024 56.0657 54.067 56.0657 51.6564C56.0657 48.7295 57.3167 47.4678 59.0306 47.4678C60.9618 47.4678 61.5193 49.4182 61.5193 50.4944H60.0236C59.7921 49.2615 59.3301 49.0743 58.8539 49.0743C58.201 49.0743 57.6701 49.8347 57.6701 51.6135C57.6701 53.3355 58.1197 54.1817 58.8945 54.1817C59.3433 54.1817 59.778 53.9813 60.0236 52.6618H61.5193C61.2887 54.3969 60.5678 55.7024 58.7311 55.7024Z" fill="#8C9FB2"/>
<path d="M62.5546 55.3728V47.5967H64.1183V50.5664H64.5671L66.2129 47.5967H67.9401L66.0089 50.9541L68.0629 55.3728H66.2818L64.7313 51.9008H64.1191V55.3728H62.5546Z" fill="#8C9FB2"/>
<path d="M72.6321 55.3728V50.4667L70.3616 55.3728H68.8112V47.5967H70.3616V52.5028L72.6321 47.5967H74.1967V55.3728H72.6321Z" fill="#8C9FB2"/>
<path d="M79.4337 55.3731V50.4669L77.1632 55.3731H75.6127V47.5969H77.1632V52.5031L79.4337 47.5969H80.9982V55.3731H79.4337ZM78.3047 46.7937C77.1623 46.7937 75.9653 46.3203 75.9653 44.915H77.4203C77.4203 45.4453 77.87 45.6754 78.3047 45.6754C78.7675 45.6754 79.1881 45.4742 79.1881 44.915H80.6432C80.644 46.3343 79.4743 46.7937 78.3047 46.7937Z" fill="#8C9FB2"/>
<path d="M4.13536 61.8065V70.6143H2.46213V61.8065H0V60.1562H6.50126V61.8065H4.13536Z" fill="#8C9FB2"/>
<path d="M10.4873 70.9457C9.65769 70.9457 9.22217 70.4574 8.8555 69.8117V73.7571H7.29095V62.8405H8.8555V64.0174C9.11433 63.3857 9.58967 62.7119 10.5826 62.7119C12.3098 62.7119 13.0581 64.706 13.0581 66.9443C13.0581 69.1826 12.309 70.9457 10.4873 70.9457ZM10.1745 64.2895C9.44034 64.2895 8.8555 65.1357 8.8555 66.8866C8.8555 68.7232 9.48099 69.4249 10.1745 69.4249C10.868 69.4249 11.4802 68.6366 11.4802 66.8866C11.4794 65.0779 10.9228 64.2895 10.1745 64.2895Z" fill="#8C9FB2"/>
<path d="M16.8931 72.2216C16.5124 73.6129 15.6961 73.7564 14.3904 73.7564V72.2934C14.4717 72.3082 14.567 72.3082 14.6492 72.3082C15.2888 72.3082 15.7235 71.7482 15.7235 71.0456C15.7235 70.903 15.7094 70.7586 15.6687 70.616L13.5467 62.8398H15.2738L16.5796 68.4924L17.8446 62.8398H19.449L16.8931 72.2216Z" fill="#8C9FB2"/>
<path d="M23.0278 70.946C20.4844 70.946 20.0497 68.4208 20.0497 66.2254C20.0497 65.3224 20.063 63.715 20.1716 63.1839C20.4305 61.9073 21.2185 60.2859 23.2858 60.2859C23.8433 60.2859 24.1975 60.1275 24.1975 59.8125H25.6393C25.6393 60.9745 24.959 61.8644 23.1506 61.8644C22.1576 61.8644 21.4367 62.8969 21.4226 63.8148H21.4765C21.7893 63.3843 22.3882 62.9109 23.2991 62.9109C24.9449 62.9109 26.0059 64.4316 26.0059 66.8283C26.0068 69.2249 24.9731 70.946 23.0278 70.946ZM23.0278 64.4334C22.4571 64.4334 21.6134 65.0643 21.6134 66.8291C21.6134 68.5931 22.4571 69.224 23.0278 69.224C23.5853 69.224 24.4281 68.6509 24.4281 66.8291C24.4281 65.108 23.5853 64.4334 23.0278 64.4334Z" fill="#8C9FB2"/>
<path d="M29.8285 70.9456C27.9379 70.9456 26.8495 69.4248 26.8495 66.8287C26.8495 64.2028 27.9786 62.7109 29.8285 62.7109C31.6917 62.7109 32.8066 64.2466 32.8066 66.8287C32.8066 69.2813 31.7738 70.9456 29.8285 70.9456ZM29.8285 64.2894C29.0122 64.2894 28.4141 65.1076 28.4141 66.8287C28.4141 68.5787 28.9989 69.3671 29.8285 69.3671C30.59 69.3671 31.2288 68.6785 31.2288 66.8287C31.2296 65.0498 30.59 64.2894 29.8285 64.2894Z" fill="#8C9FB2"/>
<path d="M37.7856 70.616V64.3895H35.5143V70.616H33.9639V62.8398H39.3494V70.616H37.7856Z" fill="#8C9FB2"/>
<path d="M43.8929 70.9457C43.0633 70.9457 42.6278 70.4574 42.2611 69.8117V73.7571H40.6974V62.8405H42.2611V64.0174C42.5199 63.3857 42.9953 62.7119 43.9883 62.7119C45.7154 62.7119 46.4637 64.706 46.4637 66.9443C46.4637 69.1826 45.7154 70.9457 43.8929 70.9457ZM43.5801 64.2895C42.846 64.2895 42.2611 65.1357 42.2611 66.8866C42.2611 68.7232 42.8866 69.4249 43.5801 69.4249C44.2736 69.4249 44.8858 68.6366 44.8858 66.8866C44.8858 65.0779 44.3284 64.2895 43.5801 64.2895Z" fill="#8C9FB2"/>
<path d="M50.2307 70.9456C48.3401 70.9456 47.2526 69.4248 47.2526 66.8287C47.2526 64.2028 48.3808 62.7109 50.2307 62.7109C52.0947 62.7109 53.2096 64.2466 53.2096 66.8287C53.2096 69.2813 52.176 70.9456 50.2307 70.9456ZM50.2307 64.2894C49.4152 64.2894 48.8163 65.1076 48.8163 66.8287C48.8163 68.5787 49.4011 69.3671 50.2307 69.3671C50.9922 69.3671 51.631 68.6785 51.631 66.8287C51.6318 65.0498 50.9922 64.2894 50.2307 64.2894Z" fill="#8C9FB2"/>
<path d="M57.7656 70.616H54.3395V62.8398H57.6039C58.596 62.8398 59.6172 63.5005 59.6172 64.8628C59.6172 65.3371 59.2497 66.1683 58.7196 66.4414C59.3045 66.542 59.9026 67.2735 59.9026 68.3069C59.9017 69.3971 59.263 70.616 57.7656 70.616ZM57.0721 64.1602H55.9024V65.9251H57.0315C57.5757 65.9251 57.983 65.6381 57.983 65.0501C57.9838 64.3763 57.5209 64.1602 57.0721 64.1602ZM57.2364 67.2586H55.9033V69.2816H57.209C57.9025 69.2816 58.27 68.9955 58.27 68.1914C58.27 67.4887 57.8071 67.2586 57.2364 67.2586Z" fill="#8C9FB2"/>
<path d="M63.7375 70.9456C61.8478 70.9456 60.7585 69.4248 60.7585 66.8287C60.7585 64.2028 61.8876 62.7109 63.7375 62.7109C65.6007 62.7109 66.7164 64.2466 66.7164 66.8287C66.7156 69.2813 65.682 70.9456 63.7375 70.9456ZM63.7375 64.2894C62.922 64.2894 62.3231 65.1076 62.3231 66.8287C62.3231 68.5787 62.9079 69.3671 63.7375 69.3671C64.4999 69.3671 65.1378 68.6785 65.1378 66.8287C65.1378 65.0498 64.4999 64.2894 63.7375 64.2894Z" fill="#8C9FB2"/>
<path d="M72.4554 72.5375V70.616H68.9745V72.5375H67.41V69.0664H67.9533C68.5929 67.8895 68.8509 65.2356 68.8509 62.8398H73.4342V69.0664H74.0191V72.5375H72.4554ZM71.8705 64.3886H70.3201C70.3201 66.3827 70.0347 68.1616 69.6 69.0664H71.8705V64.3886Z" fill="#8C9FB2"/>
<path d="M78.7128 70.616V67.144H76.4414V70.616H74.891V62.8398H76.4414V65.8096H78.7128V62.8398H80.2765V70.616H78.7128Z" fill="#8C9FB2"/>
<path d="M83.9764 70.616H81.7324V62.8398H83.297V65.7956H84.4252C85.677 65.7956 86.7786 66.4842 86.7786 68.1336C86.7786 69.9702 85.4049 70.616 83.9764 70.616ZM84.0585 67.1449H83.297V69.2816H84.1265C84.6973 69.2816 85.2149 69.0952 85.2149 68.2202C85.2141 67.2884 84.6566 67.1449 84.0585 67.1449ZM87.5808 70.616V62.8398H89.1454V70.616H87.5808Z" fill="#8C9FB2"/>
<path d="M94.4355 70.6144V65.7082L92.1649 70.6144H90.6145V62.8382H92.1649V67.7444L94.4355 62.8382H96V70.6144H94.4355ZM93.3073 62.0359C92.165 62.0359 90.9679 61.5625 90.9679 60.1572H92.4238C92.4238 60.6875 92.8726 60.9176 93.3073 60.9176C93.7702 60.9176 94.1907 60.7164 94.1907 60.1572H95.6458C95.6458 61.5765 94.4769 62.0359 93.3073 62.0359Z" fill="#8C9FB2"/>
<path d="M14.3846 85.8584V75.4004H16.0578V79.3309H16.534L19.2947 75.4004H21.226L18.0031 79.9338L21.5528 85.8584H19.5395L16.7239 80.9812H16.0578V85.8584H14.3846Z" fill="#8C9FB2"/>
<path d="M24.9797 86.1878C23.0891 86.1878 22.0007 84.667 22.0007 82.0709C22.0007 79.445 23.1298 77.9531 24.9797 77.9531C26.8429 77.9531 27.9578 79.4887 27.9578 82.0709C27.9586 84.5244 26.925 86.1878 24.9797 86.1878ZM24.9797 79.5316C24.1634 79.5316 23.5653 80.3498 23.5653 82.0709C23.5653 83.8209 24.1501 84.6093 24.9797 84.6093C25.7412 84.6093 26.38 83.9206 26.38 82.0709C26.3808 80.292 25.7412 79.5316 24.9797 79.5316Z" fill="#8C9FB2"/>
<path d="M32.9368 85.8601V82.3881H30.6655V85.8601H29.1151V78.084H30.6655V81.0546H32.9368V78.084H34.5006V85.8601H32.9368Z" fill="#8C9FB2"/>
<path d="M38.2419 86.1878C36.5006 86.1878 35.5757 84.5524 35.5757 82.1418C35.5757 79.2157 36.8275 77.9531 38.5405 77.9531C40.4726 77.9531 41.0292 79.9044 41.0292 80.9806H39.5335C39.3021 79.7469 38.84 79.5605 38.3638 79.5605C37.711 79.5605 37.1809 80.32 37.1809 82.0989C37.1809 83.8209 37.6297 84.667 38.4053 84.667C38.8541 84.667 39.2888 84.4666 39.5343 83.1471H41.03C40.7986 84.8823 40.0777 86.1878 38.2419 86.1878Z" fill="#8C9FB2"/>
<path d="M44.7838 86.1878C42.8932 86.1878 41.8057 84.667 41.8057 82.0709C41.8057 79.445 42.9339 77.9531 44.7838 77.9531C46.6478 77.9531 47.7627 79.4887 47.7627 82.0709C47.7627 84.5244 46.7291 86.1878 44.7838 86.1878ZM44.7838 79.5316C43.9683 79.5316 43.3694 80.3498 43.3694 82.0709C43.3694 83.8209 43.9542 84.6093 44.7838 84.6093C45.5453 84.6093 46.1841 83.9206 46.1841 82.0709C46.1841 80.292 45.5453 79.5316 44.7838 79.5316Z" fill="#8C9FB2"/>
<path d="M52.0474 86.1878C51.217 86.1878 50.7832 85.6995 50.4149 85.0546V88.9992H48.8511V78.0817H50.4149V79.2586C50.6737 78.6269 51.1498 77.9531 52.142 77.9531C53.8691 77.9531 54.6174 79.9473 54.6174 82.1855C54.6174 84.4238 53.8691 86.1878 52.0474 86.1878ZM51.7347 79.5316C50.9997 79.5316 50.4149 80.3786 50.4149 82.1286C50.4149 83.9653 51.0403 84.667 51.7347 84.667C52.4282 84.667 53.0396 83.8786 53.0396 82.1286C53.0396 80.32 52.4821 79.5316 51.7347 79.5316Z" fill="#8C9FB2"/>
<path d="M60.1265 87.7816V85.8601H55.7066V78.084H57.2703V84.3105H59.5417V78.084H61.1054V84.3105H61.6902V87.7816H60.1265Z" fill="#8C9FB2"/>
<path d="M66.383 85.8601V80.954L64.1117 85.8601H62.5612V78.084H64.1117V82.9901L66.383 78.084H67.9476V85.8601H66.383Z" fill="#8C9FB2"/>
<path d="M72.0962 87.4658C71.7155 88.8579 70.8992 89.0005 69.5934 89.0005V87.5375C69.6747 87.5524 69.7701 87.5524 69.8523 87.5524C70.4919 87.5524 70.9265 86.9924 70.9265 86.2898C70.9265 86.1471 70.9124 86.0036 70.8726 85.8601L68.7506 78.084H70.4778L71.7835 83.7365L73.0477 78.084H74.6529L72.0962 87.4658Z" fill="#8C9FB2"/>
<path d="M80.7469 85.8596V81.6272L79.4138 85.8596H78.4756L77.1292 81.5406V85.8596H75.5107V78.0703H77.252L78.9526 83.694L80.6258 78.0843H82.3662V85.8605L80.7469 85.8596Z" fill="#8C9FB2"/>
<path fill-rule="evenodd" clip-rule="evenodd" d="M57.2928 33.2479C60.8209 28.9813 62.7803 24.2493 62.816 18.6283C62.8516 13.0003 60.8781 8.27005 57.1866 4.05604C57.5474 4.05604 57.7175 4.01404 57.8585 4.06216C61.7873 5.40704 65.7982 6.54105 69.6175 8.17117C73.7612 9.93955 76.4407 13.2112 76.6671 18.1689C76.8696 22.5947 74.307 26.9172 70.1908 28.6585C66.661 30.1521 62.9835 31.2607 59.3716 32.5365C58.6806 32.7806 57.9863 33.0116 57.2928 33.2479Z" fill="#8C9FB2"/>
</svg>
